<svg width="14" height="14" viewBox="0 0 14 14" fill="none" xmlns="http://www.w3.org/2000/svg">
<path d="M8.82538 6.99901L13.6561 1.99813C13.8676 1.77862 13.9864 1.48091 13.9864 1.17048C13.9864 0.860046 13.8676 0.562331 13.6561 0.342824C13.4445 0.123318 13.1576 0 12.8584 0C12.5593 0 12.2724 0.123318 12.0608 0.342824L7.24137 5.35536L2.42193 0.342824C2.21039 0.123318 1.92347 -2.31288e-09 1.62431 0C1.32514 2.31288e-09 1.03823 0.123318 0.826684 0.342824C0.615142 0.562331 0.496298 0.860046 0.496298 1.17048C0.496298 1.48091 0.615142 1.77862 0.826684 1.99813L5.65736 6.99901L0.826684 11.9999C0.721389 12.1083 0.637814 12.2372 0.580779 12.3792C0.523745 12.5213 0.494381 12.6736 0.494381 12.8275C0.494381 12.9814 0.523745 13.1338 0.580779 13.2758C0.637814 13.4179 0.721389 13.5468 0.826684 13.6552C0.93112 13.7644 1.05537 13.8512 1.19227 13.9103C1.32917 13.9695 1.476 14 1.62431 14C1.77261 14 1.91945 13.9695 2.05635 13.9103C2.19324 13.8512 2.31749 13.7644 2.42193 13.6552L7.24137 8.64265L12.0608 13.6552C12.1652 13.7644 12.2895 13.8512 12.4264 13.9103C12.5633 13.9695 12.7101 14 12.8584 14C13.0067 14 13.1536 13.9695 13.2905 13.9103C13.4274 13.8512 13.5516 13.7644 13.6561 13.6552C13.7613 13.5468 13.8449 13.4179 13.902 13.2758C13.959 13.1338 13.9884 12.9814 13.9884 12.8275C13.9884 12.6736 13.959 12.5213 13.902 12.3792C13.8449 12.2372 13.7613 12.1083 13.6561 11.9999L8.82538 6.99901Z" fill="#D3CDCA"/>
</svg>
