<svg width="47" height="51" viewBox="0 0 47 51" fill="none" xmlns="http://www.w3.org/2000/svg">
<path fill-rule="evenodd" clip-rule="evenodd" d="M44.0625 25.5597C44.0625 19.8368 41.8961 14.3483 38.0399 10.3016C34.1837 6.25483 28.9535 3.9814 23.5 3.9814C18.0465 3.9814 12.8163 6.25483 8.96012 10.3016C5.1039 14.3483 2.9375 19.8368 2.9375 25.5597C2.9375 31.2827 5.1039 36.7712 8.96012 40.8179C12.8163 44.8647 18.0465 47.1381 23.5 47.1381C28.9535 47.1381 34.1837 44.8647 38.0399 40.8179C41.8961 36.7712 44.0625 31.2827 44.0625 25.5597ZM2.05444e-06 25.5597C2.59931e-06 19.0192 2.47589 12.7466 6.88299 8.12181C11.2901 3.49698 17.2674 0.898782 23.5 0.898782C29.7326 0.898783 35.7099 3.49698 40.117 8.12181C44.5241 12.7466 47 19.0193 47 25.5597C47 32.1002 44.5241 38.3728 40.117 42.9977C35.7099 47.6225 29.7326 50.2207 23.5 50.2207C17.2674 50.2207 11.2901 47.6225 6.88299 42.9977C2.47588 38.3728 1.50957e-06 32.1002 2.05444e-06 25.5597ZM22.0313 36.3489C22.0313 36.7577 22.186 37.1497 22.4614 37.4388C22.7369 37.7278 23.1105 37.8902 23.5 37.8902C23.8895 37.8902 24.2631 37.7278 24.5386 37.4388C24.814 37.1497 24.9688 36.7577 24.9688 36.3489L24.9688 18.4913L31.2726 25.1097C31.5484 25.3991 31.9225 25.5617 32.3125 25.5617C32.7025 25.5617 33.0766 25.3991 33.3524 25.1097C33.6282 24.8203 33.7831 24.4277 33.7831 24.0184C33.7831 23.6091 33.6282 23.2166 33.3524 22.9272L24.5399 13.6793C24.4034 13.5358 24.2414 13.4219 24.0629 13.3442C23.8845 13.2665 23.6932 13.2265 23.5 13.2265C23.3068 13.2265 23.1155 13.2665 22.9371 13.3442C22.7586 13.4219 22.5966 13.5358 22.4601 13.6793L13.6476 22.9272C13.3718 23.2166 13.2169 23.6091 13.2169 24.0184C13.2169 24.4277 13.3718 24.8203 13.6476 25.1097C13.9234 25.3991 14.2975 25.5617 14.6875 25.5617C15.0775 25.5617 15.4516 25.3991 15.7274 25.1097L22.0313 18.4913L22.0313 36.3489Z" fill="white"/>
</svg>
