<svg width="36" height="312" viewBox="0 0 36 312" fill="none" xmlns="http://www.w3.org/2000/svg">
<path d="M23.687 8.5068C26.997 5.1968 31.787 4.26681 34.117 4.01681C34.2884 3.99776 34.4619 4.01746 34.6247 4.07455C34.7874 4.13164 34.9353 4.22463 35.0572 4.34658C35.1792 4.46854 35.2721 4.61639 35.3292 4.77914C35.3863 4.94189 35.4061 5.11535 35.387 5.28677C35.127 7.60677 34.207 12.3968 30.897 15.7168C27.587 19.0368 22.797 19.9568 20.467 20.2068C20.2956 20.2259 20.1221 20.2061 19.9593 20.149C19.7966 20.0919 19.6487 19.9989 19.5268 19.877C19.4048 19.755 19.3119 19.6072 19.2548 19.4445C19.1977 19.2817 19.178 19.1082 19.197 18.9368C19.457 16.6068 20.377 11.8168 23.687 8.5068Z" fill="#E04031"/>
<path d="M11.7171 8.51657C15.0271 11.8266 15.9571 16.6166 16.2071 18.9466C16.2261 19.118 16.2064 19.2915 16.1493 19.4542C16.0922 19.617 15.9993 19.7648 15.8773 19.8867C15.7553 20.0087 15.6075 20.1017 15.4447 20.1588C15.282 20.2159 15.1085 20.2356 14.9371 20.2166C12.6171 19.9566 7.82706 19.0365 4.50706 15.7265C1.18706 12.4165 0.267073 7.62653 0.0170726 5.29653C-0.00197988 5.12512 0.017786 4.9516 0.0748729 4.78884C0.13196 4.62609 0.224889 4.47831 0.346846 4.35635C0.468802 4.23439 0.616651 4.1414 0.779402 4.08431C0.942153 4.02723 1.11567 4.00752 1.28709 4.02658C3.61709 4.27658 8.39709 5.20657 11.7171 8.51657Z" fill="#E04031"/>
<path d="M11.7071 34.9375C8.39707 38.2475 3.60708 39.1775 1.27708 39.4275C1.10566 39.4466 0.932143 39.4268 0.769391 39.3697C0.60664 39.3126 0.458792 39.2197 0.336835 39.0977C0.214878 38.9758 0.121949 38.8279 0.0648625 38.6652C0.00777559 38.5024 -0.0119903 38.3289 0.00706226 38.1575C0.267063 35.8375 1.18705 31.0475 4.49705 27.7275C7.80705 24.4075 12.597 23.4875 14.927 23.2375C15.0985 23.2185 15.272 23.2382 15.4347 23.2953C15.5975 23.3524 15.7453 23.4453 15.8673 23.5673C15.9892 23.6892 16.0822 23.8371 16.1393 23.9998C16.1964 24.1626 16.2161 24.3361 16.1971 24.5075C15.9471 26.7975 15.0271 31.5775 11.7071 34.9375Z" fill="#E04031"/>
<path d="M23.687 34.9375C20.377 31.6275 19.447 26.8375 19.197 24.5075C19.178 24.3361 19.1977 24.1626 19.2548 23.9998C19.3119 23.8371 19.4048 23.6892 19.5268 23.5673C19.6487 23.4453 19.7966 23.3524 19.9593 23.2953C20.1221 23.2382 20.2956 23.2185 20.467 23.2375C22.787 23.4975 27.577 24.4175 30.897 27.7275C34.217 31.0375 35.137 35.8275 35.387 38.1575C35.4061 38.3289 35.3863 38.5024 35.3292 38.6652C35.2721 38.8279 35.1792 38.9758 35.0572 39.0977C34.9353 39.2197 34.7874 39.3126 34.6247 39.3697C34.4619 39.4268 34.2884 39.4466 34.117 39.4275C31.787 39.1275 26.997 38.2075 23.687 34.9375Z" fill="#E04031"/>
<path d="M23.687 54.0068C26.997 50.6968 31.787 49.7668 34.117 49.5168C34.2884 49.4978 34.4619 49.5175 34.6247 49.5745C34.7874 49.6316 34.9353 49.7246 35.0572 49.8466C35.1792 49.9685 35.2721 50.1164 35.3292 50.2791C35.3863 50.4419 35.4061 50.6154 35.387 50.7868C35.127 53.1068 34.207 57.8968 30.897 61.2168C27.587 64.5368 22.797 65.4568 20.467 65.7068C20.2956 65.7259 20.1221 65.7061 19.9593 65.649C19.7966 65.5919 19.6487 65.4989 19.5268 65.377C19.4048 65.255 19.3119 65.1072 19.2548 64.9445C19.1977 64.7817 19.178 64.6082 19.197 64.4368C19.457 62.1068 20.377 57.3268 23.687 54.0068Z" fill="#E04031"/>
<path d="M11.7171 54.0166C15.0271 57.3266 15.9571 62.1166 16.2071 64.4466C16.2261 64.618 16.2064 64.7915 16.1493 64.9542C16.0922 65.117 15.9993 65.2648 15.8773 65.3867C15.7553 65.5087 15.6075 65.6017 15.4447 65.6588C15.282 65.7159 15.1085 65.7356 14.9371 65.7166C12.6171 65.4566 7.82706 64.5365 4.50706 61.2265C1.18706 57.9165 0.267073 53.1265 0.0170726 50.7965C-0.00197988 50.6251 0.017786 50.4516 0.0748729 50.2888C0.13196 50.1261 0.224889 49.9783 0.346846 49.8563C0.468802 49.7344 0.616651 49.6414 0.779402 49.5843C0.942153 49.5272 1.11567 49.5075 1.28709 49.5266C3.61709 49.7866 8.39709 50.7066 11.7171 54.0166Z" fill="#E04031"/>
<path d="M11.7071 80.3965C8.39707 83.7065 3.60708 84.6365 1.27708 84.8865C1.10566 84.9055 0.932143 84.8858 0.769391 84.8287C0.60664 84.7716 0.458792 84.6787 0.336835 84.5567C0.214878 84.4348 0.121949 84.2869 0.0648625 84.1242C0.00777559 83.9614 -0.0119903 83.7879 0.00706226 83.6165C0.267063 81.2965 1.18705 76.5065 4.49705 73.1865C7.80705 69.8665 12.597 68.9465 14.927 68.6965C15.0985 68.6774 15.272 68.6972 15.4347 68.7543C15.5975 68.8114 15.7453 68.9043 15.8673 69.0263C15.9892 69.1482 16.0822 69.2961 16.1393 69.4588C16.1964 69.6216 16.2161 69.7951 16.1971 69.9665C15.9471 72.2965 15.0271 77.0865 11.7071 80.3965Z" fill="#E04031"/>
<path d="M23.687 80.3965C20.377 77.0865 19.447 72.2965 19.197 69.9665C19.178 69.7951 19.1977 69.6216 19.2548 69.4588C19.3119 69.2961 19.4048 69.1482 19.5268 69.0263C19.6487 68.9043 19.7966 68.8114 19.9593 68.7543C20.1221 68.6972 20.2956 68.6774 20.467 68.6965C22.787 68.9565 27.577 69.8765 30.897 73.1865C34.217 76.4965 35.137 81.2865 35.387 83.6165C35.4061 83.7879 35.3863 83.9614 35.3292 84.1242C35.2721 84.2869 35.1792 84.4348 35.0572 84.5567C34.9353 84.6787 34.7874 84.7716 34.6247 84.8287C34.4619 84.8858 34.2884 84.9055 34.117 84.8865C31.787 84.6365 26.997 83.7065 23.687 80.3965Z" fill="#E04031"/>
<path d="M23.687 99.5166C26.997 96.2066 31.787 95.2766 34.117 95.0266C34.2884 95.0075 34.4619 95.0272 34.6247 95.0843C34.7874 95.1414 34.9353 95.2344 35.0572 95.3563C35.1792 95.4783 35.2721 95.6261 35.3292 95.7888C35.3863 95.9516 35.4061 96.1251 35.387 96.2965C35.127 98.6165 34.207 103.407 30.897 106.727C27.587 110.047 22.797 110.967 20.467 111.217C20.2956 111.236 20.1221 111.216 19.9593 111.159C19.7966 111.102 19.6487 111.009 19.5268 110.887C19.4048 110.765 19.3119 110.617 19.2548 110.454C19.1977 110.291 19.178 110.118 19.197 109.947C19.457 107.617 20.377 102.827 23.687 99.5166Z" fill="#E04031"/>
<path d="M11.7171 99.5264C15.0271 102.836 15.9571 107.626 16.2071 109.956C16.2261 110.128 16.2064 110.301 16.1493 110.464C16.0922 110.627 15.9993 110.775 15.8773 110.897C15.7553 111.019 15.6075 111.112 15.4447 111.169C15.282 111.226 15.1085 111.245 14.9371 111.226C12.6171 110.966 7.82706 110.046 4.50706 106.736C1.18706 103.426 0.267073 98.6364 0.0170726 96.3064C-0.00197988 96.1349 0.017786 95.9614 0.0748729 95.7987C0.13196 95.6359 0.224889 95.4881 0.346846 95.3662C0.468802 95.2442 0.616651 95.1512 0.779402 95.0941C0.942153 95.037 1.11567 95.0173 1.28709 95.0363C3.61709 95.2863 8.39709 96.2064 11.7171 99.5264Z" fill="#E04031"/>
<path d="M11.7071 125.938C8.39707 129.248 3.60708 130.178 1.27708 130.428C1.10566 130.447 0.932143 130.427 0.769391 130.37C0.60664 130.313 0.458792 130.22 0.336835 130.098C0.214878 129.976 0.121949 129.828 0.0648625 129.665C0.00777559 129.502 -0.0119903 129.329 0.00706226 129.157C0.267063 126.837 1.18705 122.048 4.49705 118.728C7.80705 115.408 12.597 114.488 14.927 114.238C15.0985 114.218 15.272 114.238 15.4347 114.295C15.5975 114.352 15.7453 114.445 15.8673 114.567C15.9892 114.689 16.0822 114.837 16.1393 115C16.1964 115.163 16.2161 115.336 16.1971 115.508C15.9471 117.798 15.0271 122.588 11.7071 125.938Z" fill="#E04031"/>
<path d="M23.687 125.938C20.377 122.628 19.447 117.838 19.197 115.508C19.178 115.336 19.1977 115.163 19.2548 115C19.3119 114.837 19.4048 114.689 19.5268 114.567C19.6487 114.445 19.7966 114.352 19.9593 114.295C20.1221 114.238 20.2956 114.218 20.467 114.238C22.787 114.498 27.577 115.418 30.897 118.728C34.217 122.038 35.137 126.827 35.387 129.157C35.4061 129.329 35.3863 129.502 35.3292 129.665C35.2721 129.828 35.1792 129.976 35.0572 130.098C34.9353 130.22 34.7874 130.313 34.6247 130.37C34.4619 130.427 34.2884 130.447 34.117 130.428C31.787 130.138 26.997 129.218 23.687 125.938Z" fill="#E04031"/>
<path d="M23.687 145.017C26.997 141.707 31.787 140.777 34.117 140.527C34.2884 140.508 34.4619 140.527 34.6247 140.584C34.7874 140.642 34.9353 140.734 35.0572 140.856C35.1792 140.978 35.2721 141.126 35.3292 141.289C35.3863 141.452 35.4061 141.625 35.387 141.797C35.127 144.117 34.207 148.907 30.897 152.227C27.587 155.547 22.797 156.467 20.467 156.717C20.2956 156.736 20.1221 156.716 19.9593 156.659C19.7966 156.602 19.6487 156.509 19.5268 156.387C19.4048 156.265 19.3119 156.117 19.2548 155.954C19.1977 155.792 19.178 155.618 19.197 155.447C19.457 153.117 20.377 148.327 23.687 145.017Z" fill="#E04031"/>
<path d="M11.7171 145.026C15.0271 148.336 15.9571 153.126 16.2071 155.456C16.2261 155.628 16.2064 155.801 16.1493 155.964C16.0922 156.127 15.9993 156.275 15.8773 156.397C15.7553 156.519 15.6075 156.611 15.4447 156.669C15.282 156.726 15.1085 156.745 14.9371 156.726C12.6171 156.466 7.82706 155.546 4.50706 152.236C1.18706 148.926 0.267073 144.136 0.0170726 141.806C-0.00197988 141.635 0.017786 141.461 0.0748729 141.299C0.13196 141.136 0.224889 140.988 0.346846 140.866C0.468802 140.744 0.616651 140.651 0.779402 140.594C0.942153 140.537 1.11567 140.517 1.28709 140.536C3.61709 140.786 8.39709 141.706 11.7171 145.026Z" fill="#E04031"/>
<path d="M11.7071 171.406C8.39707 174.716 3.60708 175.646 1.27708 175.896C1.10566 175.915 0.932143 175.896 0.769391 175.838C0.60664 175.781 0.458792 175.688 0.336835 175.566C0.214878 175.445 0.121949 175.297 0.0648625 175.134C0.00777559 174.971 -0.0119903 174.798 0.00706226 174.626C0.267063 172.306 1.18705 167.516 4.49705 164.196C7.80705 160.876 12.597 159.956 14.927 159.706C15.0985 159.687 15.272 159.707 15.4347 159.764C15.5975 159.821 15.7453 159.914 15.8673 160.036C15.9892 160.158 16.0822 160.306 16.1393 160.469C16.1964 160.631 16.2161 160.805 16.1971 160.976C15.9471 163.306 15.0271 168.086 11.7071 171.406Z" fill="#E04031"/>
<path d="M23.687 171.406C20.377 168.096 19.447 163.306 19.197 160.976C19.178 160.805 19.1977 160.631 19.2548 160.469C19.3119 160.306 19.4048 160.158 19.5268 160.036C19.6487 159.914 19.7966 159.821 19.9593 159.764C20.1221 159.707 20.2956 159.687 20.467 159.706C22.787 159.966 27.577 160.886 30.897 164.196C34.217 167.506 35.137 172.296 35.387 174.626C35.4061 174.798 35.3863 174.971 35.3292 175.134C35.2721 175.297 35.1792 175.445 35.0572 175.566C34.9353 175.688 34.7874 175.781 34.6247 175.838C34.4619 175.896 34.2884 175.915 34.117 175.896C31.787 175.636 26.997 174.716 23.687 171.406Z" fill="#E04031"/>
<path d="M23.687 190.517C26.997 187.207 31.787 186.277 34.117 186.027C34.2884 186.008 34.4619 186.027 34.6247 186.084C34.7874 186.142 34.9353 186.234 35.0572 186.356C35.1792 186.478 35.2721 186.626 35.3292 186.789C35.3863 186.952 35.4061 187.125 35.387 187.297C35.127 189.617 34.207 194.407 30.897 197.727C27.587 201.047 22.797 201.967 20.467 202.217C20.2956 202.236 20.1221 202.216 19.9593 202.159C19.7966 202.102 19.6487 202.009 19.5268 201.887C19.4048 201.765 19.3119 201.617 19.2548 201.454C19.1977 201.292 19.178 201.118 19.197 200.947C19.457 198.617 20.377 193.827 23.687 190.517Z" fill="#E04031"/>
<path d="M11.7171 190.526C15.0271 193.836 15.9571 198.626 16.2071 200.956C16.2261 201.128 16.2064 201.301 16.1493 201.464C16.0922 201.627 15.9993 201.775 15.8773 201.897C15.7553 202.019 15.6075 202.111 15.4447 202.169C15.282 202.226 15.1085 202.245 14.9371 202.226C12.6171 201.966 7.82706 201.046 4.50706 197.736C1.18706 194.426 0.267073 189.636 0.0170726 187.306C-0.00197988 187.135 0.017786 186.961 0.0748729 186.799C0.13196 186.636 0.224889 186.488 0.346846 186.366C0.468802 186.244 0.616651 186.151 0.779402 186.094C0.942153 186.037 1.11567 186.017 1.28709 186.036C3.61709 186.286 8.39709 187.216 11.7171 190.526Z" fill="#E04031"/>
<path d="M11.7071 216.937C8.39707 220.247 3.60708 221.177 1.27708 221.427C1.10566 221.447 0.932143 221.427 0.769391 221.37C0.60664 221.313 0.458792 221.22 0.336835 221.098C0.214878 220.976 0.121949 220.828 0.0648625 220.665C0.00777559 220.502 -0.0119903 220.329 0.00706226 220.157C0.267063 217.837 1.18705 213.048 4.49705 209.728C7.80705 206.408 12.597 205.488 14.927 205.238C15.0985 205.218 15.272 205.238 15.4347 205.295C15.5975 205.352 15.7453 205.445 15.8673 205.567C15.9892 205.689 16.0822 205.837 16.1393 206C16.1964 206.163 16.2161 206.336 16.1971 206.507C15.9471 208.807 15.0271 213.587 11.7071 216.937Z" fill="#E04031"/>
<path d="M23.687 216.937C20.377 213.627 19.447 208.837 19.197 206.507C19.178 206.336 19.1977 206.163 19.2548 206C19.3119 205.837 19.4048 205.689 19.5268 205.567C19.6487 205.445 19.7966 205.352 19.9593 205.295C20.1221 205.238 20.2956 205.218 20.467 205.238C22.787 205.498 27.577 206.418 30.897 209.728C34.217 213.038 35.137 217.827 35.387 220.157C35.4061 220.329 35.3863 220.502 35.3292 220.665C35.2721 220.828 35.1792 220.976 35.0572 221.098C34.9353 221.22 34.7874 221.313 34.6247 221.37C34.4619 221.427 34.2884 221.447 34.117 221.427C31.787 221.147 26.997 220.217 23.687 216.937Z" fill="#E04031"/>
<path d="M23.687 236.017C26.997 232.707 31.787 231.777 34.117 231.527C34.2884 231.508 34.4619 231.527 34.6247 231.584C34.7874 231.642 34.9353 231.734 35.0572 231.856C35.1792 231.978 35.2721 232.126 35.3292 232.289C35.3863 232.452 35.4061 232.625 35.387 232.797C35.127 235.117 34.207 239.907 30.897 243.227C27.587 246.547 22.797 247.467 20.467 247.717C20.2956 247.736 20.1221 247.716 19.9593 247.659C19.7966 247.602 19.6487 247.509 19.5268 247.387C19.4048 247.265 19.3119 247.117 19.2548 246.954C19.1977 246.792 19.178 246.618 19.197 246.447C19.457 244.117 20.377 239.337 23.687 236.017Z" fill="#E04031"/>
<path d="M11.7171 236.026C15.0271 239.336 15.9571 244.126 16.2071 246.456C16.2261 246.628 16.2064 246.801 16.1493 246.964C16.0922 247.127 15.9993 247.275 15.8773 247.397C15.7553 247.519 15.6075 247.611 15.4447 247.669C15.282 247.726 15.1085 247.745 14.9371 247.726C12.6171 247.466 7.82706 246.546 4.50706 243.236C1.18706 239.926 0.267073 235.136 0.0170726 232.806C-0.00197988 232.635 0.017786 232.461 0.0748729 232.299C0.13196 232.136 0.224889 231.988 0.346846 231.866C0.468802 231.744 0.616651 231.651 0.779402 231.594C0.942153 231.537 1.11567 231.517 1.28709 231.536C3.61709 231.796 8.39709 232.716 11.7171 236.026Z" fill="#E04031"/>
<path d="M11.7071 262.406C8.39707 265.716 3.60708 266.646 1.27708 266.896C1.10566 266.915 0.932143 266.896 0.769391 266.838C0.60664 266.781 0.458792 266.688 0.336835 266.566C0.214878 266.445 0.121949 266.297 0.0648625 266.134C0.00777559 265.971 -0.0119903 265.798 0.00706226 265.626C0.267063 263.306 1.18705 258.516 4.49705 255.196C7.80705 251.876 12.597 250.956 14.927 250.706C15.0985 250.687 15.272 250.707 15.4347 250.764C15.5975 250.821 15.7453 250.914 15.8673 251.036C15.9892 251.158 16.0822 251.306 16.1393 251.469C16.1964 251.631 16.2161 251.805 16.1971 251.976C15.9471 254.306 15.0271 259.096 11.7071 262.406Z" fill="#E04031"/>
<path d="M23.687 262.406C20.377 259.096 19.447 254.306 19.197 251.976C19.178 251.805 19.1977 251.631 19.2548 251.469C19.3119 251.306 19.4048 251.158 19.5268 251.036C19.6487 250.914 19.7966 250.821 19.9593 250.764C20.1221 250.707 20.2956 250.687 20.467 250.706C22.787 250.966 27.577 251.886 30.897 255.196C34.217 258.506 35.137 263.296 35.387 265.626C35.4061 265.798 35.3863 265.971 35.3292 266.134C35.2721 266.297 35.1792 266.445 35.0572 266.566C34.9353 266.688 34.7874 266.781 34.6247 266.838C34.4619 266.896 34.2884 266.915 34.117 266.896C31.787 266.646 26.997 265.726 23.687 262.406Z" fill="#E04031"/>
<path d="M23.687 281.526C26.997 278.216 31.787 277.286 34.117 277.036C34.2884 277.017 34.4619 277.037 34.6247 277.094C34.7874 277.151 34.9353 277.244 35.0572 277.366C35.1792 277.488 35.2721 277.636 35.3292 277.799C35.3863 277.961 35.4061 278.135 35.387 278.306C35.127 280.626 34.207 285.416 30.897 288.736C27.587 292.056 22.797 292.976 20.467 293.226C20.2956 293.245 20.1221 293.226 19.9593 293.169C19.7966 293.111 19.6487 293.019 19.5268 292.897C19.4048 292.775 19.3119 292.627 19.2548 292.464C19.1977 292.301 19.178 292.128 19.197 291.956C19.457 289.626 20.377 284.836 23.687 281.526Z" fill="#E04031"/>
<path d="M11.7171 281.536C15.0271 284.846 15.9571 289.636 16.2071 291.966C16.2261 292.138 16.2064 292.311 16.1493 292.474C16.0922 292.637 15.9993 292.784 15.8773 292.906C15.7553 293.028 15.6075 293.121 15.4447 293.178C15.282 293.235 15.1085 293.255 14.9371 293.236C12.6171 292.976 7.82706 292.056 4.50706 288.746C1.18706 285.436 0.267073 280.646 0.0170726 278.316C-0.00197988 278.145 0.017786 277.971 0.0748729 277.808C0.13196 277.646 0.224889 277.498 0.346846 277.376C0.468802 277.254 0.616651 277.161 0.779402 277.104C0.942153 277.047 1.11567 277.027 1.28709 277.046C3.61709 277.296 8.39709 278.216 11.7171 281.536Z" fill="#E04031"/>
<path d="M11.7071 307.937C8.39707 311.247 3.60708 312.177 1.27708 312.427C1.10566 312.447 0.932143 312.427 0.769391 312.37C0.60664 312.313 0.458792 312.22 0.336835 312.098C0.214878 311.976 0.121949 311.828 0.0648625 311.665C0.00777559 311.502 -0.0119903 311.329 0.00706226 311.157C0.267063 308.837 1.18705 304.048 4.49705 300.728C7.80705 297.408 12.597 296.488 14.927 296.238C15.0985 296.218 15.272 296.238 15.4347 296.295C15.5975 296.352 15.7453 296.445 15.8673 296.567C15.9892 296.689 16.0822 296.837 16.1393 297C16.1964 297.163 16.2161 297.336 16.1971 297.507C15.9471 299.807 15.0271 304.597 11.7071 307.937Z" fill="#E04031"/>
<path d="M23.687 307.937C20.377 304.627 19.447 299.837 19.197 297.507C19.178 297.336 19.1977 297.163 19.2548 297C19.3119 296.837 19.4048 296.689 19.5268 296.567C19.6487 296.445 19.7966 296.352 19.9593 296.295C20.1221 296.238 20.2956 296.218 20.467 296.238C22.787 296.498 27.577 297.418 30.897 300.728C34.217 304.038 35.137 308.827 35.387 311.157C35.4061 311.329 35.3863 311.502 35.3292 311.665C35.2721 311.828 35.1792 311.976 35.0572 312.098C34.9353 312.22 34.7874 312.313 34.6247 312.37C34.4619 312.427 34.2884 312.447 34.117 312.427C31.787 312.147 26.997 311.227 23.687 307.937Z" fill="#E04031"/>
</svg>
