<svg width="42" height="36" viewBox="-3 0 42 36" fill="none" xmlns="http://www.w3.org/2000/svg">
<path d="M30.696 23.4346C33.957 26.7051 34.8732 31.4379 35.1195 33.7401C35.1383 33.9095 35.1188 34.081 35.0625 34.2418C35.0063 34.4026 34.9147 34.5487 34.7946 34.6692C34.6744 34.7897 34.5288 34.8815 34.3685 34.9379C34.2082 34.9943 34.0372 35.0138 33.8683 34.995C31.5827 34.7381 26.8636 33.8291 23.5927 30.5586C20.3219 27.2881 19.4155 22.5553 19.1692 20.2531C19.1505 20.0837 19.17 19.9122 19.2262 19.7514C19.2825 19.5906 19.374 19.4445 19.4942 19.324C19.6143 19.2035 19.7599 19.1117 19.9203 19.0553C20.0806 18.9989 20.2516 18.9794 20.4204 18.9982C22.7159 19.2551 27.4351 20.1641 30.696 23.4346Z" fill="#C4C4C4"/>
<path d="M30.6863 11.5801C27.4253 14.8506 22.7062 15.7695 20.4107 16.0165C20.2418 16.0353 20.0708 16.0158 19.9105 15.9594C19.7502 15.903 19.6046 15.8111 19.4844 15.6906C19.3643 15.5701 19.2727 15.4241 19.2165 15.2633C19.1602 15.1024 19.1407 14.931 19.1595 14.7616C19.4156 12.4693 20.322 7.73647 23.583 4.45609C26.8439 1.17571 31.5631 0.266696 33.8585 0.0196799C34.0274 0.000854397 34.1984 0.0203838 34.3587 0.0767898C34.5191 0.133196 34.6647 0.225016 34.7848 0.345517C34.905 0.466019 34.9966 0.612102 35.0529 0.772912C35.1091 0.933721 35.1285 1.10517 35.1098 1.27454C34.8635 3.57674 33.9571 8.29969 30.6863 11.5801Z" fill="#C4C4C4"/>
<path d="M4.43066 11.5684C1.16966 8.29785 0.253436 3.56502 0.00713763 1.26282C-0.0116335 1.09345 0.00778044 0.922 0.0640215 0.761192C0.120263 0.600382 0.211938 0.454299 0.33209 0.333797C0.452241 0.213296 0.597841 0.121476 0.758183 0.0650698C0.918524 0.00866377 1.08948 -0.0108656 1.25836 0.00795999C3.54401 0.264857 8.26304 1.17387 11.5339 4.44437C14.8047 7.71487 15.7111 12.4477 15.9574 14.7499C15.9762 14.9193 15.9568 15.0907 15.9005 15.2515C15.8443 15.4123 15.7527 15.5584 15.6326 15.6789C15.5124 15.7994 15.3667 15.8913 15.2064 15.9477C15.046 16.0041 14.8752 16.0236 14.7063 16.0048C12.4404 15.7577 7.72122 14.8487 4.43066 11.5684Z" fill="#C4C4C4"/>
<path d="M4.43066 23.4346C7.69166 20.1641 12.4108 19.2452 14.7063 18.9982C14.8752 18.9794 15.046 18.9989 15.2064 19.0553C15.3667 19.1117 15.5124 19.2035 15.6326 19.324C15.7527 19.4445 15.8443 19.5906 15.9005 19.7514C15.9568 19.9122 15.9762 20.0837 15.9574 20.2531C15.7013 22.5454 14.7949 27.2782 11.5339 30.5586C8.27289 33.839 3.55386 34.748 1.25836 34.995C1.08948 35.0138 0.918523 34.9943 0.758182 34.9379C0.597839 34.8815 0.45224 34.7897 0.332088 34.6692C0.211937 34.5487 0.120262 34.4026 0.0640202 34.2418C0.0077792 34.081 -0.0116347 33.9095 0.00713646 33.7401C0.282992 31.4379 1.18936 26.7051 4.43066 23.4346Z" fill="#C4C4C4"/>
</svg>
