<svg width="88" height="312" viewBox="0 0 88 312" fill="none" xmlns="http://www.w3.org/2000/svg">
<path d="M23.687 8.5068C26.997 5.1968 31.787 4.26681 34.117 4.01681C34.2884 3.99776 34.4619 4.01746 34.6247 4.07455C34.7874 4.13164 34.9353 4.22463 35.0572 4.34658C35.1792 4.46854 35.2721 4.61639 35.3292 4.77914C35.3863 4.94189 35.4061 5.11535 35.387 5.28677C35.127 7.60677 34.207 12.3968 30.897 15.7168C27.587 19.0368 22.797 19.9568 20.467 20.2068C20.2956 20.2259 20.1221 20.2061 19.9593 20.149C19.7966 20.0919 19.6487 19.9989 19.5268 19.877C19.4048 19.755 19.3119 19.6072 19.2548 19.4445C19.1977 19.2817 19.178 19.1082 19.197 18.9368C19.457 16.6068 20.377 11.8168 23.687 8.5068Z" fill="#E04031"/>
<path d="M11.7168 8.51657C15.0268 11.8266 15.9568 16.6166 16.2068 18.9466C16.2259 19.118 16.2061 19.2915 16.149 19.4542C16.0919 19.617 15.999 19.7648 15.8771 19.8867C15.7551 20.0087 15.6073 20.1017 15.4445 20.1588C15.2818 20.2159 15.1082 20.2356 14.9368 20.2166C12.6168 19.9566 7.82682 19.0365 4.50682 15.7265C1.18682 12.4165 0.266828 7.62653 0.0168285 5.29653C-0.00222402 5.12512 0.0175418 4.9516 0.0746288 4.78884C0.131716 4.62609 0.224645 4.47831 0.346601 4.35635C0.468558 4.23439 0.616406 4.1414 0.779158 4.08431C0.941909 4.02723 1.11543 4.00752 1.28685 4.02658C3.61685 4.27658 8.39684 5.20657 11.7168 8.51657Z" fill="#E04031"/>
<path d="M11.7071 34.9375C8.39707 38.2475 3.60708 39.1775 1.27708 39.4275C1.10566 39.4466 0.932143 39.4268 0.769391 39.3697C0.60664 39.3126 0.458792 39.2197 0.336835 39.0977C0.214878 38.9758 0.121949 38.8279 0.0648625 38.6652C0.00777559 38.5024 -0.0119903 38.3289 0.00706226 38.1575C0.267063 35.8375 1.18705 31.0475 4.49705 27.7275C7.80705 24.4075 12.597 23.4875 14.927 23.2375C15.0985 23.2185 15.272 23.2382 15.4347 23.2953C15.5975 23.3524 15.7453 23.4453 15.8673 23.5673C15.9892 23.6892 16.0822 23.8371 16.1393 23.9998C16.1964 24.1626 16.2161 24.3361 16.1971 24.5075C15.9471 26.7975 15.0271 31.5775 11.7071 34.9375Z" fill="#E04031"/>
<path d="M23.687 34.9375C20.377 31.6275 19.447 26.8375 19.197 24.5075C19.178 24.3361 19.1977 24.1626 19.2548 23.9998C19.3119 23.8371 19.4048 23.6892 19.5268 23.5673C19.6487 23.4453 19.7966 23.3524 19.9593 23.2953C20.1221 23.2382 20.2956 23.2185 20.467 23.2375C22.787 23.4975 27.577 24.4175 30.897 27.7275C34.217 31.0375 35.137 35.8275 35.387 38.1575C35.4061 38.3289 35.3863 38.5024 35.3292 38.6652C35.2721 38.8279 35.1792 38.9758 35.0572 39.0977C34.9353 39.2197 34.7874 39.3126 34.6247 39.3697C34.4619 39.4268 34.2884 39.4466 34.117 39.4275C31.787 39.1275 26.997 38.2075 23.687 34.9375Z" fill="#E04031"/>
<path d="M23.687 54.0068C26.997 50.6968 31.787 49.7668 34.117 49.5168C34.2884 49.4978 34.4619 49.5175 34.6247 49.5745C34.7874 49.6316 34.9353 49.7246 35.0572 49.8466C35.1792 49.9685 35.2721 50.1164 35.3292 50.2791C35.3863 50.4419 35.4061 50.6154 35.387 50.7868C35.127 53.1068 34.207 57.8968 30.897 61.2168C27.587 64.5368 22.797 65.4568 20.467 65.7068C20.2956 65.7259 20.1221 65.7061 19.9593 65.649C19.7966 65.5919 19.6487 65.4989 19.5268 65.377C19.4048 65.255 19.3119 65.1072 19.2548 64.9445C19.1977 64.7817 19.178 64.6082 19.197 64.4368C19.457 62.1068 20.377 57.3268 23.687 54.0068Z" fill="#E04031"/>
<path d="M11.7168 54.0166C15.0268 57.3266 15.9568 62.1166 16.2068 64.4466C16.2259 64.618 16.2061 64.7915 16.149 64.9542C16.0919 65.117 15.999 65.2648 15.8771 65.3867C15.7551 65.5087 15.6073 65.6017 15.4445 65.6588C15.2818 65.7159 15.1082 65.7356 14.9368 65.7166C12.6168 65.4566 7.82682 64.5365 4.50682 61.2265C1.18682 57.9165 0.266828 53.1265 0.0168285 50.7965C-0.00222402 50.6251 0.0175418 50.4516 0.0746288 50.2888C0.131716 50.1261 0.224645 49.9783 0.346601 49.8563C0.468558 49.7344 0.616406 49.6414 0.779158 49.5843C0.941909 49.5272 1.11543 49.5075 1.28685 49.5266C3.61685 49.7866 8.39684 50.7066 11.7168 54.0166Z" fill="#E04031"/>
<path d="M11.7071 80.3965C8.39707 83.7065 3.60708 84.6365 1.27708 84.8865C1.10566 84.9055 0.932143 84.8858 0.769391 84.8287C0.60664 84.7716 0.458792 84.6787 0.336835 84.5567C0.214878 84.4348 0.121949 84.2869 0.0648625 84.1242C0.00777559 83.9614 -0.0119903 83.7879 0.00706226 83.6165C0.267063 81.2965 1.18705 76.5065 4.49705 73.1865C7.80705 69.8665 12.597 68.9465 14.927 68.6965C15.0985 68.6774 15.272 68.6972 15.4347 68.7543C15.5975 68.8114 15.7453 68.9043 15.8673 69.0263C15.9892 69.1482 16.0822 69.2961 16.1393 69.4588C16.1964 69.6216 16.2161 69.7951 16.1971 69.9665C15.9471 72.2965 15.0271 77.0865 11.7071 80.3965Z" fill="#E04031"/>
<path d="M23.687 80.3965C20.377 77.0865 19.447 72.2965 19.197 69.9665C19.178 69.7951 19.1977 69.6216 19.2548 69.4588C19.3119 69.2961 19.4048 69.1482 19.5268 69.0263C19.6487 68.9043 19.7966 68.8114 19.9593 68.7543C20.1221 68.6972 20.2956 68.6774 20.467 68.6965C22.787 68.9565 27.577 69.8765 30.897 73.1865C34.217 76.4965 35.137 81.2865 35.387 83.6165C35.4061 83.7879 35.3863 83.9614 35.3292 84.1242C35.2721 84.2869 35.1792 84.4348 35.0572 84.5567C34.9353 84.6787 34.7874 84.7716 34.6247 84.8287C34.4619 84.8858 34.2884 84.9055 34.117 84.8865C31.787 84.6365 26.997 83.7065 23.687 80.3965Z" fill="#E04031"/>
<path d="M23.687 99.5166C26.997 96.2066 31.787 95.2766 34.117 95.0266C34.2884 95.0075 34.4619 95.0272 34.6247 95.0843C34.7874 95.1414 34.9353 95.2344 35.0572 95.3563C35.1792 95.4783 35.2721 95.6261 35.3292 95.7888C35.3863 95.9516 35.4061 96.1251 35.387 96.2965C35.127 98.6165 34.207 103.407 30.897 106.727C27.587 110.047 22.797 110.967 20.467 111.217C20.2956 111.236 20.1221 111.216 19.9593 111.159C19.7966 111.102 19.6487 111.009 19.5268 110.887C19.4048 110.765 19.3119 110.617 19.2548 110.454C19.1977 110.291 19.178 110.118 19.197 109.947C19.457 107.617 20.377 102.827 23.687 99.5166Z" fill="#E04031"/>
<path d="M11.7168 99.5264C15.0268 102.836 15.9568 107.626 16.2068 109.956C16.2259 110.128 16.2061 110.301 16.149 110.464C16.0919 110.627 15.999 110.775 15.8771 110.897C15.7551 111.019 15.6073 111.112 15.4445 111.169C15.2818 111.226 15.1082 111.245 14.9368 111.226C12.6168 110.966 7.82682 110.046 4.50682 106.736C1.18682 103.426 0.266828 98.6364 0.0168285 96.3064C-0.00222402 96.1349 0.0175418 95.9614 0.0746288 95.7987C0.131716 95.6359 0.224645 95.4881 0.346601 95.3662C0.468558 95.2442 0.616406 95.1512 0.779158 95.0941C0.941909 95.037 1.11543 95.0173 1.28685 95.0363C3.61685 95.2863 8.39684 96.2064 11.7168 99.5264Z" fill="#E04031"/>
<path d="M11.7071 125.938C8.39707 129.248 3.60708 130.178 1.27708 130.428C1.10566 130.447 0.932143 130.427 0.769391 130.37C0.60664 130.313 0.458792 130.22 0.336835 130.098C0.214878 129.976 0.121949 129.828 0.0648625 129.665C0.00777559 129.502 -0.0119903 129.329 0.00706226 129.157C0.267063 126.837 1.18705 122.048 4.49705 118.728C7.80705 115.408 12.597 114.488 14.927 114.238C15.0985 114.218 15.272 114.238 15.4347 114.295C15.5975 114.352 15.7453 114.445 15.8673 114.567C15.9892 114.689 16.0822 114.837 16.1393 115C16.1964 115.163 16.2161 115.336 16.1971 115.508C15.9471 117.798 15.0271 122.588 11.7071 125.938Z" fill="#E04031"/>
<path d="M23.687 125.938C20.377 122.628 19.447 117.838 19.197 115.508C19.178 115.336 19.1977 115.163 19.2548 115C19.3119 114.837 19.4048 114.689 19.5268 114.567C19.6487 114.445 19.7966 114.352 19.9593 114.295C20.1221 114.238 20.2956 114.218 20.467 114.238C22.787 114.498 27.577 115.418 30.897 118.728C34.217 122.038 35.137 126.827 35.387 129.157C35.4061 129.329 35.3863 129.502 35.3292 129.665C35.2721 129.828 35.1792 129.976 35.0572 130.098C34.9353 130.22 34.7874 130.313 34.6247 130.37C34.4619 130.427 34.2884 130.447 34.117 130.428C31.787 130.138 26.997 129.218 23.687 125.938Z" fill="#E04031"/>
<path d="M23.687 145.017C26.997 141.707 31.787 140.777 34.117 140.527C34.2884 140.508 34.4619 140.527 34.6247 140.584C34.7874 140.642 34.9353 140.734 35.0572 140.856C35.1792 140.978 35.2721 141.126 35.3292 141.289C35.3863 141.452 35.4061 141.625 35.387 141.797C35.127 144.117 34.207 148.907 30.897 152.227C27.587 155.547 22.797 156.467 20.467 156.717C20.2956 156.736 20.1221 156.716 19.9593 156.659C19.7966 156.602 19.6487 156.509 19.5268 156.387C19.4048 156.265 19.3119 156.117 19.2548 155.954C19.1977 155.792 19.178 155.618 19.197 155.447C19.457 153.117 20.377 148.327 23.687 145.017Z" fill="#E04031"/>
<path d="M11.7168 145.026C15.0268 148.336 15.9568 153.126 16.2068 155.456C16.2259 155.628 16.2061 155.801 16.149 155.964C16.0919 156.127 15.999 156.275 15.8771 156.397C15.7551 156.519 15.6073 156.611 15.4445 156.669C15.2818 156.726 15.1082 156.745 14.9368 156.726C12.6168 156.466 7.82682 155.546 4.50682 152.236C1.18682 148.926 0.266828 144.136 0.0168285 141.806C-0.00222402 141.635 0.0175418 141.461 0.0746288 141.299C0.131716 141.136 0.224645 140.988 0.346601 140.866C0.468558 140.744 0.616406 140.651 0.779158 140.594C0.941909 140.537 1.11543 140.517 1.28685 140.536C3.61685 140.786 8.39684 141.706 11.7168 145.026Z" fill="#E04031"/>
<path d="M11.7071 171.406C8.39707 174.716 3.60708 175.646 1.27708 175.896C1.10566 175.915 0.932143 175.896 0.769391 175.838C0.60664 175.781 0.458792 175.688 0.336835 175.566C0.214878 175.445 0.121949 175.297 0.0648625 175.134C0.00777559 174.971 -0.0119903 174.798 0.00706226 174.626C0.267063 172.306 1.18705 167.516 4.49705 164.196C7.80705 160.876 12.597 159.956 14.927 159.706C15.0985 159.687 15.272 159.707 15.4347 159.764C15.5975 159.821 15.7453 159.914 15.8673 160.036C15.9892 160.158 16.0822 160.306 16.1393 160.469C16.1964 160.631 16.2161 160.805 16.1971 160.976C15.9471 163.306 15.0271 168.086 11.7071 171.406Z" fill="#E04031"/>
<path d="M23.687 171.406C20.377 168.096 19.447 163.306 19.197 160.976C19.178 160.805 19.1977 160.631 19.2548 160.469C19.3119 160.306 19.4048 160.158 19.5268 160.036C19.6487 159.914 19.7966 159.821 19.9593 159.764C20.1221 159.707 20.2956 159.687 20.467 159.706C22.787 159.966 27.577 160.886 30.897 164.196C34.217 167.506 35.137 172.296 35.387 174.626C35.4061 174.798 35.3863 174.971 35.3292 175.134C35.2721 175.297 35.1792 175.445 35.0572 175.566C34.9353 175.688 34.7874 175.781 34.6247 175.838C34.4619 175.896 34.2884 175.915 34.117 175.896C31.787 175.636 26.997 174.716 23.687 171.406Z" fill="#E04031"/>
<path d="M23.687 190.517C26.997 187.207 31.787 186.277 34.117 186.027C34.2884 186.008 34.4619 186.027 34.6247 186.084C34.7874 186.142 34.9353 186.234 35.0572 186.356C35.1792 186.478 35.2721 186.626 35.3292 186.789C35.3863 186.952 35.4061 187.125 35.387 187.297C35.127 189.617 34.207 194.407 30.897 197.727C27.587 201.047 22.797 201.967 20.467 202.217C20.2956 202.236 20.1221 202.216 19.9593 202.159C19.7966 202.102 19.6487 202.009 19.5268 201.887C19.4048 201.765 19.3119 201.617 19.2548 201.454C19.1977 201.292 19.178 201.118 19.197 200.947C19.457 198.617 20.377 193.827 23.687 190.517Z" fill="#E04031"/>
<path d="M11.7168 190.526C15.0268 193.836 15.9568 198.626 16.2068 200.956C16.2259 201.128 16.2061 201.301 16.149 201.464C16.0919 201.627 15.999 201.775 15.8771 201.897C15.7551 202.019 15.6073 202.111 15.4445 202.169C15.2818 202.226 15.1082 202.245 14.9368 202.226C12.6168 201.966 7.82682 201.046 4.50682 197.736C1.18682 194.426 0.266828 189.636 0.0168285 187.306C-0.00222402 187.135 0.0175418 186.961 0.0746288 186.799C0.131716 186.636 0.224645 186.488 0.346601 186.366C0.468558 186.244 0.616406 186.151 0.779158 186.094C0.941909 186.037 1.11543 186.017 1.28685 186.036C3.61685 186.286 8.39684 187.216 11.7168 190.526Z" fill="#E04031"/>
<path d="M11.7071 216.937C8.39707 220.247 3.60708 221.177 1.27708 221.427C1.10566 221.447 0.932143 221.427 0.769391 221.37C0.60664 221.313 0.458792 221.22 0.336835 221.098C0.214878 220.976 0.121949 220.828 0.0648625 220.665C0.00777559 220.502 -0.0119903 220.329 0.00706226 220.157C0.267063 217.837 1.18705 213.048 4.49705 209.728C7.80705 206.408 12.597 205.488 14.927 205.238C15.0985 205.218 15.272 205.238 15.4347 205.295C15.5975 205.352 15.7453 205.445 15.8673 205.567C15.9892 205.689 16.0822 205.837 16.1393 206C16.1964 206.163 16.2161 206.336 16.1971 206.507C15.9471 208.807 15.0271 213.587 11.7071 216.937Z" fill="#E04031"/>
<path d="M23.687 216.937C20.377 213.627 19.447 208.837 19.197 206.507C19.178 206.336 19.1977 206.163 19.2548 206C19.3119 205.837 19.4048 205.689 19.5268 205.567C19.6487 205.445 19.7966 205.352 19.9593 205.295C20.1221 205.238 20.2956 205.218 20.467 205.238C22.787 205.498 27.577 206.418 30.897 209.728C34.217 213.038 35.137 217.827 35.387 220.157C35.4061 220.329 35.3863 220.502 35.3292 220.665C35.2721 220.828 35.1792 220.976 35.0572 221.098C34.9353 221.22 34.7874 221.313 34.6247 221.37C34.4619 221.427 34.2884 221.447 34.117 221.427C31.787 221.147 26.997 220.217 23.687 216.937Z" fill="#E04031"/>
<path d="M23.687 236.017C26.997 232.707 31.787 231.777 34.117 231.527C34.2884 231.508 34.4619 231.527 34.6247 231.584C34.7874 231.642 34.9353 231.734 35.0572 231.856C35.1792 231.978 35.2721 232.126 35.3292 232.289C35.3863 232.452 35.4061 232.625 35.387 232.797C35.127 235.117 34.207 239.907 30.897 243.227C27.587 246.547 22.797 247.467 20.467 247.717C20.2956 247.736 20.1221 247.716 19.9593 247.659C19.7966 247.602 19.6487 247.509 19.5268 247.387C19.4048 247.265 19.3119 247.117 19.2548 246.954C19.1977 246.792 19.178 246.618 19.197 246.447C19.457 244.117 20.377 239.337 23.687 236.017Z" fill="#E04031"/>
<path d="M11.7168 236.026C15.0268 239.336 15.9568 244.126 16.2068 246.456C16.2259 246.628 16.2061 246.801 16.149 246.964C16.0919 247.127 15.999 247.275 15.8771 247.397C15.7551 247.519 15.6073 247.611 15.4445 247.669C15.2818 247.726 15.1082 247.745 14.9368 247.726C12.6168 247.466 7.82682 246.546 4.50682 243.236C1.18682 239.926 0.266828 235.136 0.0168285 232.806C-0.00222402 232.635 0.0175418 232.461 0.0746288 232.299C0.131716 232.136 0.224645 231.988 0.346601 231.866C0.468558 231.744 0.616406 231.651 0.779158 231.594C0.941909 231.537 1.11543 231.517 1.28685 231.536C3.61685 231.796 8.39684 232.716 11.7168 236.026Z" fill="#E04031"/>
<path d="M11.7071 262.406C8.39707 265.716 3.60708 266.646 1.27708 266.896C1.10566 266.915 0.932143 266.896 0.769391 266.838C0.60664 266.781 0.458792 266.688 0.336835 266.566C0.214878 266.445 0.121949 266.297 0.0648625 266.134C0.00777559 265.971 -0.0119903 265.798 0.00706226 265.626C0.267063 263.306 1.18705 258.516 4.49705 255.196C7.80705 251.876 12.597 250.956 14.927 250.706C15.0985 250.687 15.272 250.707 15.4347 250.764C15.5975 250.821 15.7453 250.914 15.8673 251.036C15.9892 251.158 16.0822 251.306 16.1393 251.469C16.1964 251.631 16.2161 251.805 16.1971 251.976C15.9471 254.306 15.0271 259.096 11.7071 262.406Z" fill="#E04031"/>
<path d="M23.687 262.406C20.377 259.096 19.447 254.306 19.197 251.976C19.178 251.805 19.1977 251.631 19.2548 251.469C19.3119 251.306 19.4048 251.158 19.5268 251.036C19.6487 250.914 19.7966 250.821 19.9593 250.764C20.1221 250.707 20.2956 250.687 20.467 250.706C22.787 250.966 27.577 251.886 30.897 255.196C34.217 258.506 35.137 263.296 35.387 265.626C35.4061 265.798 35.3863 265.971 35.3292 266.134C35.2721 266.297 35.1792 266.445 35.0572 266.566C34.9353 266.688 34.7874 266.781 34.6247 266.838C34.4619 266.896 34.2884 266.915 34.117 266.896C31.787 266.646 26.997 265.726 23.687 262.406Z" fill="#E04031"/>
<path d="M23.687 281.526C26.997 278.216 31.787 277.286 34.117 277.036C34.2884 277.017 34.4619 277.037 34.6247 277.094C34.7874 277.151 34.9353 277.244 35.0572 277.366C35.1792 277.488 35.2721 277.636 35.3292 277.799C35.3863 277.961 35.4061 278.135 35.387 278.306C35.127 280.626 34.207 285.416 30.897 288.736C27.587 292.056 22.797 292.976 20.467 293.226C20.2956 293.245 20.1221 293.226 19.9593 293.169C19.7966 293.111 19.6487 293.019 19.5268 292.897C19.4048 292.775 19.3119 292.627 19.2548 292.464C19.1977 292.301 19.178 292.128 19.197 291.956C19.457 289.626 20.377 284.836 23.687 281.526Z" fill="#E04031"/>
<path d="M11.7168 281.536C15.0268 284.846 15.9568 289.636 16.2068 291.966C16.2259 292.138 16.2061 292.311 16.149 292.474C16.0919 292.637 15.999 292.784 15.8771 292.906C15.7551 293.028 15.6073 293.121 15.4445 293.178C15.2818 293.235 15.1082 293.255 14.9368 293.236C12.6168 292.976 7.82682 292.056 4.50682 288.746C1.18682 285.436 0.266828 280.646 0.0168285 278.316C-0.00222402 278.145 0.0175418 277.971 0.0746288 277.808C0.131716 277.646 0.224645 277.498 0.346601 277.376C0.468558 277.254 0.616406 277.161 0.779158 277.104C0.941909 277.047 1.11543 277.027 1.28685 277.046C3.61685 277.296 8.39684 278.216 11.7168 281.536Z" fill="#E04031"/>
<path d="M11.7071 307.937C8.39707 311.247 3.60708 312.177 1.27708 312.427C1.10566 312.447 0.932143 312.427 0.769391 312.37C0.60664 312.313 0.458792 312.22 0.336835 312.098C0.214878 311.976 0.121949 311.828 0.0648625 311.665C0.00777559 311.502 -0.0119903 311.329 0.00706226 311.157C0.267063 308.837 1.18705 304.048 4.49705 300.728C7.80705 297.408 12.597 296.488 14.927 296.238C15.0985 296.218 15.272 296.238 15.4347 296.295C15.5975 296.352 15.7453 296.445 15.8673 296.567C15.9892 296.689 16.0822 296.837 16.1393 297C16.1964 297.163 16.2161 297.336 16.1971 297.507C15.9471 299.807 15.0271 304.597 11.7071 307.937Z" fill="#E04031"/>
<path d="M23.687 307.937C20.377 304.627 19.447 299.837 19.197 297.507C19.178 297.336 19.1977 297.163 19.2548 297C19.3119 296.837 19.4048 296.689 19.5268 296.567C19.6487 296.445 19.7966 296.352 19.9593 296.295C20.1221 296.238 20.2956 296.218 20.467 296.238C22.787 296.498 27.577 297.418 30.897 300.728C34.217 304.038 35.137 308.827 35.387 311.157C35.4061 311.329 35.3863 311.502 35.3292 311.665C35.2721 311.828 35.1792 311.976 35.0572 312.098C34.9353 312.22 34.7874 312.313 34.6247 312.37C34.4619 312.427 34.2884 312.447 34.117 312.427C31.787 312.147 26.997 311.227 23.687 307.937Z" fill="#E04031"/>
<path d="M76.081 8.5068C79.391 5.1968 84.181 4.26681 86.511 4.01681C86.6824 3.99776 86.856 4.01746 87.0187 4.07455C87.1815 4.13164 87.3293 4.22463 87.4513 4.34658C87.5732 4.46854 87.6662 4.61639 87.7232 4.77914C87.7803 4.94189 87.8001 5.11535 87.7811 5.28677C87.5211 7.60677 86.6011 12.3968 83.2911 15.7168C79.9811 19.0368 75.1911 19.9568 72.8611 20.2068C72.6896 20.2259 72.5161 20.2061 72.3534 20.149C72.1906 20.0919 72.0428 19.9989 71.9208 19.877C71.7989 19.755 71.7059 19.6072 71.6488 19.4445C71.5918 19.2817 71.572 19.1082 71.591 18.9368C71.851 16.6068 72.771 11.8168 76.081 8.5068Z" fill="#E04031"/>
<path d="M64.1109 8.51657C67.4209 11.8266 68.3509 16.6166 68.6009 18.9466C68.6199 19.118 68.6002 19.2915 68.5431 19.4542C68.486 19.617 68.3931 19.7648 68.2711 19.8867C68.1491 20.0087 68.0013 20.1017 67.8385 20.1588C67.6758 20.2159 67.5023 20.2356 67.3309 20.2166C65.0109 19.9566 60.2209 19.0365 56.9009 15.7265C53.5809 12.4165 52.6609 7.62653 52.4109 5.29653C52.3918 5.12512 52.4116 4.9516 52.4687 4.78884C52.5258 4.62609 52.6187 4.47831 52.7406 4.35635C52.8626 4.23439 53.0104 4.1414 53.1732 4.08431C53.336 4.02723 53.5095 4.00752 53.6809 4.02658C56.0109 4.27658 60.7909 5.20657 64.1109 8.51657Z" fill="#E04031"/>
<path d="M64.1011 34.9375C60.7911 38.2475 56.0011 39.1775 53.6711 39.4275C53.4997 39.4466 53.3262 39.4268 53.1634 39.3697C53.0007 39.3126 52.8528 39.2197 52.7309 39.0977C52.6089 38.9758 52.516 38.8279 52.4589 38.6652C52.4018 38.5024 52.3821 38.3289 52.4011 38.1575C52.6611 35.8375 53.5811 31.0475 56.8911 27.7275C60.2011 24.4075 64.9911 23.4875 67.3211 23.2375C67.4925 23.2185 67.666 23.2382 67.8288 23.2953C67.9915 23.3524 68.1394 23.4453 68.2613 23.5673C68.3833 23.6892 68.4762 23.8371 68.5333 23.9998C68.5904 24.1626 68.6102 24.3361 68.5911 24.5075C68.3411 26.7975 67.4211 31.5775 64.1011 34.9375Z" fill="#E04031"/>
<path d="M76.081 34.9375C72.771 31.6275 71.841 26.8375 71.591 24.5075C71.572 24.3361 71.5918 24.1626 71.6488 23.9998C71.7059 23.8371 71.7989 23.6892 71.9208 23.5673C72.0428 23.4453 72.1906 23.3524 72.3534 23.2953C72.5161 23.2382 72.6896 23.2185 72.8611 23.2375C75.1811 23.4975 79.9711 24.4175 83.2911 27.7275C86.6111 31.0375 87.531 35.8275 87.781 38.1575C87.8001 38.3289 87.7803 38.5024 87.7232 38.6652C87.6662 38.8279 87.5732 38.9758 87.4513 39.0977C87.3293 39.2197 87.1815 39.3126 87.0187 39.3697C86.856 39.4268 86.6824 39.4466 86.511 39.4275C84.181 39.1275 79.391 38.2075 76.081 34.9375Z" fill="#E04031"/>
<path d="M76.081 54.0068C79.391 50.6968 84.181 49.7668 86.511 49.5168C86.6824 49.4978 86.856 49.5175 87.0187 49.5745C87.1815 49.6316 87.3293 49.7246 87.4513 49.8466C87.5732 49.9685 87.6662 50.1164 87.7232 50.2791C87.7803 50.4419 87.8001 50.6154 87.7811 50.7868C87.5211 53.1068 86.6011 57.8968 83.2911 61.2168C79.9811 64.5368 75.1911 65.4568 72.8611 65.7068C72.6896 65.7259 72.5161 65.7061 72.3534 65.649C72.1906 65.5919 72.0428 65.4989 71.9208 65.377C71.7989 65.255 71.7059 65.1072 71.6488 64.9445C71.5918 64.7817 71.572 64.6082 71.591 64.4368C71.851 62.1068 72.771 57.3268 76.081 54.0068Z" fill="#E04031"/>
<path d="M64.1109 54.0166C67.4209 57.3266 68.3509 62.1166 68.6009 64.4466C68.6199 64.618 68.6002 64.7915 68.5431 64.9542C68.486 65.117 68.3931 65.2648 68.2711 65.3867C68.1491 65.5087 68.0013 65.6017 67.8385 65.6588C67.6758 65.7159 67.5023 65.7356 67.3309 65.7166C65.0109 65.4566 60.2209 64.5365 56.9009 61.2265C53.5809 57.9165 52.6609 53.1265 52.4109 50.7965C52.3918 50.6251 52.4116 50.4516 52.4687 50.2888C52.5258 50.1261 52.6187 49.9783 52.7406 49.8563C52.8626 49.7344 53.0104 49.6414 53.1732 49.5843C53.336 49.5272 53.5095 49.5075 53.6809 49.5266C56.0109 49.7866 60.7909 50.7066 64.1109 54.0166Z" fill="#E04031"/>
<path d="M64.1011 80.3965C60.7911 83.7065 56.0011 84.6365 53.6711 84.8865C53.4997 84.9055 53.3262 84.8858 53.1634 84.8287C53.0007 84.7716 52.8528 84.6787 52.7309 84.5567C52.6089 84.4348 52.516 84.2869 52.4589 84.1242C52.4018 83.9614 52.3821 83.7879 52.4011 83.6165C52.6611 81.2965 53.5811 76.5065 56.8911 73.1865C60.2011 69.8665 64.9911 68.9465 67.3211 68.6965C67.4925 68.6774 67.666 68.6972 67.8288 68.7543C67.9915 68.8114 68.1394 68.9043 68.2613 69.0263C68.3833 69.1482 68.4762 69.2961 68.5333 69.4588C68.5904 69.6216 68.6102 69.7951 68.5911 69.9665C68.3411 72.2965 67.4211 77.0865 64.1011 80.3965Z" fill="#E04031"/>
<path d="M76.081 80.3965C72.771 77.0865 71.841 72.2965 71.591 69.9665C71.572 69.7951 71.5918 69.6216 71.6488 69.4588C71.7059 69.2961 71.7989 69.1482 71.9208 69.0263C72.0428 68.9043 72.1906 68.8114 72.3534 68.7543C72.5161 68.6972 72.6896 68.6774 72.8611 68.6965C75.1811 68.9565 79.9711 69.8765 83.2911 73.1865C86.6111 76.4965 87.531 81.2865 87.781 83.6165C87.8001 83.7879 87.7803 83.9614 87.7232 84.1242C87.6662 84.2869 87.5732 84.4348 87.4513 84.5567C87.3293 84.6787 87.1815 84.7716 87.0187 84.8287C86.856 84.8858 86.6824 84.9055 86.511 84.8865C84.181 84.6365 79.391 83.7065 76.081 80.3965Z" fill="#E04031"/>
<path d="M76.081 99.5166C79.391 96.2066 84.181 95.2766 86.511 95.0266C86.6824 95.0075 86.856 95.0272 87.0187 95.0843C87.1815 95.1414 87.3293 95.2344 87.4513 95.3563C87.5732 95.4783 87.6662 95.6261 87.7232 95.7888C87.7803 95.9516 87.8001 96.1251 87.7811 96.2965C87.5211 98.6165 86.6011 103.407 83.2911 106.727C79.9811 110.047 75.1911 110.967 72.8611 111.217C72.6896 111.236 72.5161 111.216 72.3534 111.159C72.1906 111.102 72.0428 111.009 71.9208 110.887C71.7989 110.765 71.7059 110.617 71.6488 110.454C71.5918 110.291 71.572 110.118 71.591 109.947C71.851 107.617 72.771 102.827 76.081 99.5166Z" fill="#E04031"/>
<path d="M64.1109 99.5264C67.4209 102.836 68.3509 107.626 68.6009 109.956C68.6199 110.128 68.6002 110.301 68.5431 110.464C68.486 110.627 68.3931 110.775 68.2711 110.897C68.1491 111.019 68.0013 111.112 67.8385 111.169C67.6758 111.226 67.5023 111.245 67.3309 111.226C65.0109 110.966 60.2209 110.046 56.9009 106.736C53.5809 103.426 52.6609 98.6364 52.4109 96.3064C52.3918 96.1349 52.4116 95.9614 52.4687 95.7987C52.5258 95.6359 52.6187 95.4881 52.7406 95.3662C52.8626 95.2442 53.0104 95.1512 53.1732 95.0941C53.336 95.037 53.5095 95.0173 53.6809 95.0363C56.0109 95.2863 60.7909 96.2064 64.1109 99.5264Z" fill="#E04031"/>
<path d="M64.1011 125.938C60.7911 129.248 56.0011 130.178 53.6711 130.428C53.4997 130.447 53.3262 130.427 53.1634 130.37C53.0007 130.313 52.8528 130.22 52.7309 130.098C52.6089 129.976 52.516 129.828 52.4589 129.665C52.4018 129.502 52.3821 129.329 52.4011 129.157C52.6611 126.837 53.5811 122.048 56.8911 118.728C60.2011 115.408 64.9911 114.488 67.3211 114.238C67.4925 114.218 67.666 114.238 67.8288 114.295C67.9915 114.352 68.1394 114.445 68.2613 114.567C68.3833 114.689 68.4762 114.837 68.5333 115C68.5904 115.163 68.6102 115.336 68.5911 115.508C68.3411 117.798 67.4211 122.588 64.1011 125.938Z" fill="#E04031"/>
<path d="M76.081 125.938C72.771 122.628 71.841 117.838 71.591 115.508C71.572 115.336 71.5918 115.163 71.6488 115C71.7059 114.837 71.7989 114.689 71.9208 114.567C72.0428 114.445 72.1906 114.352 72.3534 114.295C72.5161 114.238 72.6896 114.218 72.8611 114.238C75.1811 114.498 79.9711 115.418 83.2911 118.728C86.6111 122.038 87.531 126.827 87.781 129.157C87.8001 129.329 87.7803 129.502 87.7232 129.665C87.6662 129.828 87.5732 129.976 87.4513 130.098C87.3293 130.22 87.1815 130.313 87.0187 130.37C86.856 130.427 86.6824 130.447 86.511 130.428C84.181 130.138 79.391 129.218 76.081 125.938Z" fill="#E04031"/>
<path d="M76.081 145.017C79.391 141.707 84.181 140.777 86.511 140.527C86.6824 140.508 86.856 140.527 87.0187 140.584C87.1815 140.642 87.3293 140.734 87.4513 140.856C87.5732 140.978 87.6662 141.126 87.7232 141.289C87.7803 141.452 87.8001 141.625 87.7811 141.797C87.5211 144.117 86.6011 148.907 83.2911 152.227C79.9811 155.547 75.1911 156.467 72.8611 156.717C72.6896 156.736 72.5161 156.716 72.3534 156.659C72.1906 156.602 72.0428 156.509 71.9208 156.387C71.7989 156.265 71.7059 156.117 71.6488 155.954C71.5918 155.792 71.572 155.618 71.591 155.447C71.851 153.117 72.771 148.327 76.081 145.017Z" fill="#E04031"/>
<path d="M64.1109 145.026C67.4209 148.336 68.3509 153.126 68.6009 155.456C68.6199 155.628 68.6002 155.801 68.5431 155.964C68.486 156.127 68.3931 156.275 68.2711 156.397C68.1491 156.519 68.0013 156.611 67.8385 156.669C67.6758 156.726 67.5023 156.745 67.3309 156.726C65.0109 156.466 60.2209 155.546 56.9009 152.236C53.5809 148.926 52.6609 144.136 52.4109 141.806C52.3918 141.635 52.4116 141.461 52.4687 141.299C52.5258 141.136 52.6187 140.988 52.7406 140.866C52.8626 140.744 53.0104 140.651 53.1732 140.594C53.336 140.537 53.5095 140.517 53.6809 140.536C56.0109 140.786 60.7909 141.706 64.1109 145.026Z" fill="#E04031"/>
<path d="M64.1011 171.406C60.7911 174.716 56.0011 175.646 53.6711 175.896C53.4997 175.915 53.3262 175.896 53.1634 175.838C53.0007 175.781 52.8528 175.688 52.7309 175.566C52.6089 175.445 52.516 175.297 52.4589 175.134C52.4018 174.971 52.3821 174.798 52.4011 174.626C52.6611 172.306 53.5811 167.516 56.8911 164.196C60.2011 160.876 64.9911 159.956 67.3211 159.706C67.4925 159.687 67.666 159.707 67.8288 159.764C67.9915 159.821 68.1394 159.914 68.2613 160.036C68.3833 160.158 68.4762 160.306 68.5333 160.469C68.5904 160.631 68.6102 160.805 68.5911 160.976C68.3411 163.306 67.4211 168.086 64.1011 171.406Z" fill="#E04031"/>
<path d="M76.081 171.406C72.771 168.096 71.841 163.306 71.591 160.976C71.572 160.805 71.5918 160.631 71.6488 160.469C71.7059 160.306 71.7989 160.158 71.9208 160.036C72.0428 159.914 72.1906 159.821 72.3534 159.764C72.5161 159.707 72.6896 159.687 72.8611 159.706C75.1811 159.966 79.9711 160.886 83.2911 164.196C86.6111 167.506 87.531 172.296 87.781 174.626C87.8001 174.798 87.7803 174.971 87.7232 175.134C87.6662 175.297 87.5732 175.445 87.4513 175.566C87.3293 175.688 87.1815 175.781 87.0187 175.838C86.856 175.896 86.6824 175.915 86.511 175.896C84.181 175.636 79.391 174.716 76.081 171.406Z" fill="#E04031"/>
<path d="M76.081 190.517C79.391 187.207 84.181 186.277 86.511 186.027C86.6824 186.008 86.856 186.027 87.0187 186.084C87.1815 186.142 87.3293 186.234 87.4513 186.356C87.5732 186.478 87.6662 186.626 87.7232 186.789C87.7803 186.952 87.8001 187.125 87.7811 187.297C87.5211 189.617 86.6011 194.407 83.2911 197.727C79.9811 201.047 75.1911 201.967 72.8611 202.217C72.6896 202.236 72.5161 202.216 72.3534 202.159C72.1906 202.102 72.0428 202.009 71.9208 201.887C71.7989 201.765 71.7059 201.617 71.6488 201.454C71.5918 201.292 71.572 201.118 71.591 200.947C71.851 198.617 72.771 193.827 76.081 190.517Z" fill="#E04031"/>
<path d="M64.1109 190.526C67.4209 193.836 68.3509 198.626 68.6009 200.956C68.6199 201.128 68.6002 201.301 68.5431 201.464C68.486 201.627 68.3931 201.775 68.2711 201.897C68.1491 202.019 68.0013 202.111 67.8385 202.169C67.6758 202.226 67.5023 202.245 67.3309 202.226C65.0109 201.966 60.2209 201.046 56.9009 197.736C53.5809 194.426 52.6609 189.636 52.4109 187.306C52.3918 187.135 52.4116 186.961 52.4687 186.799C52.5258 186.636 52.6187 186.488 52.7406 186.366C52.8626 186.244 53.0104 186.151 53.1732 186.094C53.336 186.037 53.5095 186.017 53.6809 186.036C56.0109 186.286 60.7909 187.216 64.1109 190.526Z" fill="#E04031"/>
<path d="M64.1011 216.937C60.7911 220.247 56.0011 221.177 53.6711 221.427C53.4997 221.447 53.3262 221.427 53.1634 221.37C53.0007 221.313 52.8528 221.22 52.7309 221.098C52.6089 220.976 52.516 220.828 52.4589 220.665C52.4018 220.502 52.3821 220.329 52.4011 220.157C52.6611 217.837 53.5811 213.048 56.8911 209.728C60.2011 206.408 64.9911 205.488 67.3211 205.238C67.4925 205.218 67.666 205.238 67.8288 205.295C67.9915 205.352 68.1394 205.445 68.2613 205.567C68.3833 205.689 68.4762 205.837 68.5333 206C68.5904 206.163 68.6102 206.336 68.5911 206.507C68.3411 208.807 67.4211 213.587 64.1011 216.937Z" fill="#E04031"/>
<path d="M76.081 216.937C72.771 213.627 71.841 208.837 71.591 206.507C71.572 206.336 71.5918 206.163 71.6488 206C71.7059 205.837 71.7989 205.689 71.9208 205.567C72.0428 205.445 72.1906 205.352 72.3534 205.295C72.5161 205.238 72.6896 205.218 72.8611 205.238C75.1811 205.498 79.9711 206.418 83.2911 209.728C86.6111 213.038 87.531 217.827 87.781 220.157C87.8001 220.329 87.7803 220.502 87.7232 220.665C87.6662 220.828 87.5732 220.976 87.4513 221.098C87.3293 221.22 87.1815 221.313 87.0187 221.37C86.856 221.427 86.6824 221.447 86.511 221.427C84.181 221.147 79.391 220.217 76.081 216.937Z" fill="#E04031"/>
<path d="M76.081 236.017C79.391 232.707 84.181 231.777 86.511 231.527C86.6824 231.508 86.856 231.527 87.0187 231.584C87.1815 231.642 87.3293 231.734 87.4513 231.856C87.5732 231.978 87.6662 232.126 87.7232 232.289C87.7803 232.452 87.8001 232.625 87.7811 232.797C87.5211 235.117 86.6011 239.907 83.2911 243.227C79.9811 246.547 75.1911 247.467 72.8611 247.717C72.6896 247.736 72.5161 247.716 72.3534 247.659C72.1906 247.602 72.0428 247.509 71.9208 247.387C71.7989 247.265 71.7059 247.117 71.6488 246.954C71.5918 246.792 71.572 246.618 71.591 246.447C71.851 244.117 72.771 239.337 76.081 236.017Z" fill="#E04031"/>
<path d="M64.1109 236.026C67.4209 239.336 68.3509 244.126 68.6009 246.456C68.6199 246.628 68.6002 246.801 68.5431 246.964C68.486 247.127 68.3931 247.275 68.2711 247.397C68.1491 247.519 68.0013 247.611 67.8385 247.669C67.6758 247.726 67.5023 247.745 67.3309 247.726C65.0109 247.466 60.2209 246.546 56.9009 243.236C53.5809 239.926 52.6609 235.136 52.4109 232.806C52.3918 232.635 52.4116 232.461 52.4687 232.299C52.5258 232.136 52.6187 231.988 52.7406 231.866C52.8626 231.744 53.0104 231.651 53.1732 231.594C53.336 231.537 53.5095 231.517 53.6809 231.536C56.0109 231.796 60.7909 232.716 64.1109 236.026Z" fill="#E04031"/>
<path d="M64.1011 262.406C60.7911 265.716 56.0011 266.646 53.6711 266.896C53.4997 266.915 53.3262 266.896 53.1634 266.838C53.0007 266.781 52.8528 266.688 52.7309 266.566C52.6089 266.445 52.516 266.297 52.4589 266.134C52.4018 265.971 52.3821 265.798 52.4011 265.626C52.6611 263.306 53.5811 258.516 56.8911 255.196C60.2011 251.876 64.9911 250.956 67.3211 250.706C67.4925 250.687 67.666 250.707 67.8288 250.764C67.9915 250.821 68.1394 250.914 68.2613 251.036C68.3833 251.158 68.4762 251.306 68.5333 251.469C68.5904 251.631 68.6102 251.805 68.5911 251.976C68.3411 254.306 67.4211 259.096 64.1011 262.406Z" fill="#E04031"/>
<path d="M76.081 262.406C72.771 259.096 71.841 254.306 71.591 251.976C71.572 251.805 71.5918 251.631 71.6488 251.469C71.7059 251.306 71.7989 251.158 71.9208 251.036C72.0428 250.914 72.1906 250.821 72.3534 250.764C72.5161 250.707 72.6896 250.687 72.8611 250.706C75.1811 250.966 79.9711 251.886 83.2911 255.196C86.6111 258.506 87.531 263.296 87.781 265.626C87.8001 265.798 87.7803 265.971 87.7232 266.134C87.6662 266.297 87.5732 266.445 87.4513 266.566C87.3293 266.688 87.1815 266.781 87.0187 266.838C86.856 266.896 86.6824 266.915 86.511 266.896C84.181 266.646 79.391 265.726 76.081 262.406Z" fill="#E04031"/>
<path d="M76.081 281.526C79.391 278.216 84.181 277.286 86.511 277.036C86.6824 277.017 86.856 277.037 87.0187 277.094C87.1815 277.151 87.3293 277.244 87.4513 277.366C87.5732 277.488 87.6662 277.636 87.7232 277.799C87.7803 277.961 87.8001 278.135 87.7811 278.306C87.5211 280.626 86.6011 285.416 83.2911 288.736C79.9811 292.056 75.1911 292.976 72.8611 293.226C72.6896 293.245 72.5161 293.226 72.3534 293.169C72.1906 293.111 72.0428 293.019 71.9208 292.897C71.7989 292.775 71.7059 292.627 71.6488 292.464C71.5918 292.301 71.572 292.128 71.591 291.956C71.851 289.626 72.771 284.836 76.081 281.526Z" fill="#E04031"/>
<path d="M64.1109 281.536C67.4209 284.846 68.3509 289.636 68.6009 291.966C68.6199 292.138 68.6002 292.311 68.5431 292.474C68.486 292.637 68.3931 292.784 68.2711 292.906C68.1491 293.028 68.0013 293.121 67.8385 293.178C67.6758 293.235 67.5023 293.255 67.3309 293.236C65.0109 292.976 60.2209 292.056 56.9009 288.746C53.5809 285.436 52.6609 280.646 52.4109 278.316C52.3918 278.145 52.4116 277.971 52.4687 277.808C52.5258 277.646 52.6187 277.498 52.7406 277.376C52.8626 277.254 53.0104 277.161 53.1732 277.104C53.336 277.047 53.5095 277.027 53.6809 277.046C56.0109 277.296 60.7909 278.216 64.1109 281.536Z" fill="#E04031"/>
<path d="M64.1011 307.937C60.7911 311.247 56.0011 312.177 53.6711 312.427C53.4997 312.447 53.3262 312.427 53.1634 312.37C53.0007 312.313 52.8528 312.22 52.7309 312.098C52.6089 311.976 52.516 311.828 52.4589 311.665C52.4018 311.502 52.3821 311.329 52.4011 311.157C52.6611 308.837 53.5811 304.048 56.8911 300.728C60.2011 297.408 64.9911 296.488 67.3211 296.238C67.4925 296.218 67.666 296.238 67.8288 296.295C67.9915 296.352 68.1394 296.445 68.2613 296.567C68.3833 296.689 68.4762 296.837 68.5333 297C68.5904 297.163 68.6102 297.336 68.5911 297.507C68.3411 299.807 67.4211 304.597 64.1011 307.937Z" fill="#E04031"/>
<path d="M76.081 307.937C72.771 304.627 71.841 299.837 71.591 297.507C71.572 297.336 71.5918 297.163 71.6488 297C71.7059 296.837 71.7989 296.689 71.9208 296.567C72.0428 296.445 72.1906 296.352 72.3534 296.295C72.5161 296.238 72.6896 296.218 72.8611 296.238C75.1811 296.498 79.9711 297.418 83.2911 300.728C86.6111 304.038 87.531 308.827 87.781 311.157C87.8001 311.329 87.7803 311.502 87.7232 311.665C87.6662 311.828 87.5732 311.976 87.4513 312.098C87.3293 312.22 87.1815 312.313 87.0187 312.37C86.856 312.427 86.6824 312.447 86.511 312.427C84.181 312.147 79.391 311.227 76.081 307.937Z" fill="#E04031"/>
</svg>
