<svg width="24" height="24" viewBox="0 0 24 24" fill="none" xmlns="http://www.w3.org/2000/svg">
<g clip-path="url(#clip0_2802_6565)">
<path d="M7.71596 17.9998V21.4284C7.71596 21.883 7.89657 22.3191 8.21806 22.6405C8.53955 22.962 8.97559 23.1426 9.43025 23.1426H21.4302C21.8849 23.1426 22.3209 22.962 22.6424 22.6405C22.9639 22.3191 23.1445 21.883 23.1445 21.4284V2.57122C23.1445 2.11656 22.9639 1.68053 22.6424 1.35904C22.3209 1.03755 21.8849 0.856934 21.4302 0.856934H9.43025C8.97559 0.856934 8.53955 1.03755 8.21806 1.35904C7.89657 1.68053 7.71596 2.11656 7.71596 2.57122V5.99979M12.8588 11.9998H0.858816M0.858816 11.9998L4.28739 8.57122M0.858816 11.9998L4.28739 15.4284" stroke="#D12F1F" stroke-linecap="round" stroke-linejoin="round"/>
</g>
<defs>
<clipPath id="clip0_2802_6565">
<rect width="24" height="24" fill="white" transform="matrix(-1 0 0 1 24 0)"/>
</clipPath>
</defs>
</svg>
