<svg width="24" height="24" viewBox="0 0 24 24" fill="none" xmlns="http://www.w3.org/2000/svg">
<path fill-rule="evenodd" clip-rule="evenodd" d="M22 12C22 17.5228 17.5228 22 12 22C6.47715 22 2 17.5228 2 12C2 6.47715 6.47715 2 12 2C17.5228 2 22 6.47715 22 12ZM12.3585 9.38254C11.3858 9.7871 9.44188 10.6244 6.52668 11.8945C6.0533 12.0828 5.80532 12.2669 5.78274 12.447C5.74459 12.7513 6.1257 12.8712 6.64466 13.0344C6.71525 13.0566 6.7884 13.0796 6.86338 13.1039C7.37397 13.2699 8.06079 13.4641 8.41784 13.4718C8.74172 13.4788 9.10321 13.3453 9.5023 13.0712C12.2261 11.2326 13.6321 10.3033 13.7204 10.2832C13.7826 10.2691 13.8689 10.2513 13.9274 10.3033C13.9859 10.3553 13.9801 10.4537 13.9739 10.4801C13.9362 10.6411 12.4402 12.0318 11.666 12.7516C11.4247 12.976 11.2535 13.1351 11.2185 13.1715C11.1401 13.2529 11.0602 13.3299 10.9834 13.4039C10.5091 13.8612 10.1534 14.2041 11.0031 14.7641C11.4115 15.0332 11.7382 15.2557 12.0642 15.4777C12.4202 15.7202 12.7753 15.962 13.2348 16.2632C13.3518 16.3399 13.4636 16.4196 13.5725 16.4972C13.9868 16.7926 14.3591 17.0579 14.8189 17.0156C15.0861 16.991 15.3622 16.7398 15.5023 15.9904C15.8336 14.2194 16.4848 10.3821 16.6353 8.80091C16.6485 8.66238 16.6319 8.48508 16.6186 8.40725C16.6052 8.32942 16.5774 8.21852 16.4762 8.13644C16.3564 8.03922 16.1715 8.01871 16.0887 8.02017C15.7126 8.0268 15.1356 8.22745 12.3585 9.38254Z" fill="#E04031"/>
</svg>
