<svg width="30" height="21" viewBox="0 0 30 21" fill="none" xmlns="http://www.w3.org/2000/svg">
<path fill-rule="evenodd" clip-rule="evenodd" d="M4.73398 0.333374C3.56703 0.333374 2.44787 0.796944 1.62271 1.6221C0.797555 2.44726 0.333984 3.56642 0.333984 4.73337V16.4667C0.333984 17.6337 0.797555 18.7528 1.62271 19.578C2.44787 20.4031 3.56703 20.8667 4.73398 20.8667H17.934C19.1009 20.8667 20.2201 20.4031 21.0453 19.578C21.8704 18.7528 22.334 17.6337 22.334 16.4667V14.1406L25.9127 17.7192C27.2972 19.1052 29.6673 18.1226 29.6673 16.1631V5.03697C29.6673 3.07751 27.2972 2.09484 25.9127 3.48231L22.334 7.05804V4.73337C22.334 3.56642 21.8704 2.44726 21.0453 1.6221C20.2201 0.796944 19.1009 0.333374 17.934 0.333374H4.73398Z" fill="#891F16"/>
</svg>
