<svg width="29.33" height="21" viewBox="0 0 30 21" fill="none" xmlns="http://www.w3.org/2000/svg">
<path d="M25.2673 0.333374H4.73398C3.56703 0.333374 2.44787 0.796944 1.62271 1.6221C0.797555 2.44726 0.333984 3.56642 0.333984 4.73337V16.4667C0.333984 17.6337 0.797555 18.7528 1.62271 19.578C2.44787 20.4031 3.56703 20.8667 4.73398 20.8667H25.2673C26.4343 20.8667 27.5534 20.4031 28.3786 19.578C29.2037 18.7528 29.6673 17.6337 29.6673 16.4667V4.73337C29.6673 3.56642 29.2037 2.44726 28.3786 1.6221C27.5534 0.796944 26.4343 0.333374 25.2673 0.333374ZM13.534 15H7.66732C7.27833 15 6.90528 14.8455 6.63023 14.5705C6.35517 14.2954 6.20065 13.9224 6.20065 13.5334C6.20065 13.1444 6.35517 12.7713 6.63023 12.4963C6.90528 12.2212 7.27833 12.0667 7.66732 12.0667H13.534C13.923 12.0667 14.296 12.2212 14.5711 12.4963C14.8461 12.7713 15.0007 13.1444 15.0007 13.5334C15.0007 13.9224 14.8461 14.2954 14.5711 14.5705C14.296 14.8455 13.923 15 13.534 15ZM22.334 15H19.4007C19.0117 15 18.6386 14.8455 18.3636 14.5705C18.0885 14.2954 17.934 13.9224 17.934 13.5334C17.934 13.1444 18.0885 12.7713 18.3636 12.4963C18.6386 12.2212 19.0117 12.0667 19.4007 12.0667H22.334C22.723 12.0667 23.096 12.2212 23.3711 12.4963C23.6461 12.7713 23.8006 13.1444 23.8006 13.5334C23.8006 13.9224 23.6461 14.2954 23.3711 14.5705C23.096 14.8455 22.723 15 22.334 15ZM26.734 6.20004H3.26732V4.73337C3.26732 4.34439 3.42184 3.97134 3.69689 3.69628C3.97195 3.42123 4.345 3.26671 4.73398 3.26671H25.2673C25.6563 3.26671 26.0294 3.42123 26.3044 3.69628C26.5795 3.97134 26.734 4.34439 26.734 4.73337V6.20004Z" fill="#891F16"/>
</svg>
