<svg width="29.33" height="30" viewBox="0 0 21 30" fill="none" xmlns="http://www.w3.org/2000/svg">
<path d="M5.8373 26.3633C5.83788 26.7237 5.94444 27.0766 6.14438 27.3768L7.12348 28.8486C7.29073 29.1002 7.51759 29.3065 7.78387 29.4493C8.05014 29.592 8.34757 29.6667 8.64969 29.6667H12.1851C12.4872 29.6667 12.7846 29.592 13.0509 29.4493C13.3172 29.3065 13.544 29.1002 13.7113 28.8486L14.6904 27.3768C14.8903 27.0766 14.9971 26.724 14.9975 26.3633L14.9998 24.1663H5.83444L5.8373 26.3633ZM0.333984 10.4165C0.333984 12.9585 1.27641 15.2776 2.82956 17.0496C3.77599 18.1296 5.25638 20.3857 5.82069 22.2888C5.82298 22.3037 5.8247 22.3186 5.82699 22.3335H15.0072C15.0095 22.3186 15.0112 22.3043 15.0135 22.2888C15.5778 20.3857 17.0582 18.1296 18.0047 17.0496C19.5578 15.2776 20.5002 12.9585 20.5002 10.4165C20.5002 4.83703 15.9691 0.316236 10.3856 0.333423C4.54139 0.351183 0.333984 5.08681 0.333984 10.4165ZM10.4171 5.83331C7.89002 5.83331 5.83387 7.88946 5.83387 10.4165C5.83387 10.923 5.42367 11.3332 4.91722 11.3332C4.41077 11.3332 4.00057 10.923 4.00057 10.4165C4.00057 6.87828 6.87885 4.00001 10.4171 4.00001C10.9236 4.00001 11.3337 4.41021 11.3337 4.91666C11.3337 5.42311 10.9236 5.83331 10.4171 5.83331Z" fill="#891F16"/>
</svg>
