<svg width="30" height="28" viewBox="0 0 30 28" fill="none" xmlns="http://www.w3.org/2000/svg">
<path d="M25.2673 7.99996H4.73398C2.29932 7.99996 0.333984 9.96529 0.333984 12.4V18.2666C0.333984 19.88 1.65398 21.2 3.26732 21.2H6.20065V24.1333C6.20065 25.7466 7.52065 27.0666 9.13398 27.0666H20.8673C22.4806 27.0666 23.8006 25.7466 23.8006 24.1333V21.2H26.734C28.3473 21.2 29.6673 19.88 29.6673 18.2666V12.4C29.6673 9.96529 27.702 7.99996 25.2673 7.99996ZM19.4007 24.1333H10.6007C9.79398 24.1333 9.13398 23.4733 9.13398 22.6666V16.8H20.8673V22.6666C20.8673 23.4733 20.2073 24.1333 19.4007 24.1333ZM25.2673 13.8666C24.4606 13.8666 23.8006 13.2066 23.8006 12.4C23.8006 11.5933 24.4606 10.9333 25.2673 10.9333C26.074 10.9333 26.734 11.5933 26.734 12.4C26.734 13.2066 26.074 13.8666 25.2673 13.8666ZM22.334 0.666626H7.66732C6.86065 0.666626 6.20065 1.32663 6.20065 2.13329V5.06663C6.20065 5.87329 6.86065 6.53329 7.66732 6.53329H22.334C23.1406 6.53329 23.8006 5.87329 23.8006 5.06663V2.13329C23.8006 1.32663 23.1406 0.666626 22.334 0.666626Z" fill="#891F16"/>
</svg>
