<?xml version="1.0" encoding="UTF-8"?>
<svg xmlns="http://www.w3.org/2000/svg" width="155px" height="155px"
     viewBox="0 0 155 155" version="1.1">
    <g id="surface1">
        <rect x="0" y="0" width="155" height="155" style="fill:rgb(100%,100%,100%);fill-opacity:1;stroke:none;"/>
        <path style=" stroke:none;fill-rule:nonzero;fill:rgb(0%,0%,0%);fill-opacity:1;"
              d="M 51.667969 9.394531 L 56.363281 9.394531 L 56.363281 14.089844 L 51.667969 14.089844 Z M 51.667969 9.394531 "/>
        <path style=" stroke:none;fill-rule:nonzero;fill:rgb(0%,0%,0%);fill-opacity:1;"
              d="M 61.0625 9.394531 L 65.757812 9.394531 L 65.757812 14.089844 L 61.0625 14.089844 Z M 61.0625 9.394531 "/>
        <path style=" stroke:none;fill-rule:nonzero;fill:rgb(0%,0%,0%);fill-opacity:1;"
              d="M 75.152344 9.394531 L 79.847656 9.394531 L 79.847656 14.089844 L 75.152344 14.089844 Z M 75.152344 9.394531 "/>
        <path style=" stroke:none;fill-rule:nonzero;fill:rgb(0%,0%,0%);fill-opacity:1;"
              d="M 89.242188 9.394531 L 93.9375 9.394531 L 93.9375 14.089844 L 89.242188 14.089844 Z M 89.242188 9.394531 "/>
        <path style=" stroke:none;fill-rule:nonzero;fill:rgb(0%,0%,0%);fill-opacity:1;"
              d="M 98.636719 9.394531 L 103.332031 9.394531 L 103.332031 14.089844 L 98.636719 14.089844 Z M 98.636719 9.394531 "/>
        <path style=" stroke:none;fill-rule:nonzero;fill:rgb(0%,0%,0%);fill-opacity:1;"
              d="M 51.667969 14.089844 L 56.363281 14.089844 L 56.363281 18.789062 L 51.667969 18.789062 Z M 51.667969 14.089844 "/>
        <path style=" stroke:none;fill-rule:nonzero;fill:rgb(0%,0%,0%);fill-opacity:1;"
              d="M 84.546875 14.089844 L 89.242188 14.089844 L 89.242188 18.789062 L 84.546875 18.789062 Z M 84.546875 14.089844 "/>
        <path style=" stroke:none;fill-rule:nonzero;fill:rgb(0%,0%,0%);fill-opacity:1;"
              d="M 89.242188 14.089844 L 93.9375 14.089844 L 93.9375 18.789062 L 89.242188 18.789062 Z M 89.242188 14.089844 "/>
        <path style=" stroke:none;fill-rule:nonzero;fill:rgb(0%,0%,0%);fill-opacity:1;"
              d="M 103.332031 14.089844 L 108.03125 14.089844 L 108.03125 18.789062 L 103.332031 18.789062 Z M 103.332031 14.089844 "/>
        <path style=" stroke:none;fill-rule:nonzero;fill:rgb(0%,0%,0%);fill-opacity:1;"
              d="M 51.667969 18.789062 L 56.363281 18.789062 L 56.363281 23.484375 L 51.667969 23.484375 Z M 51.667969 18.789062 "/>
        <path style=" stroke:none;fill-rule:nonzero;fill:rgb(0%,0%,0%);fill-opacity:1;"
              d="M 56.363281 18.789062 L 61.0625 18.789062 L 61.0625 23.484375 L 56.363281 23.484375 Z M 56.363281 18.789062 "/>
        <path style=" stroke:none;fill-rule:nonzero;fill:rgb(0%,0%,0%);fill-opacity:1;"
              d="M 65.757812 18.789062 L 70.453125 18.789062 L 70.453125 23.484375 L 65.757812 23.484375 Z M 65.757812 18.789062 "/>
        <path style=" stroke:none;fill-rule:nonzero;fill:rgb(0%,0%,0%);fill-opacity:1;"
              d="M 75.152344 18.789062 L 79.847656 18.789062 L 79.847656 23.484375 L 75.152344 23.484375 Z M 75.152344 18.789062 "/>
        <path style=" stroke:none;fill-rule:nonzero;fill:rgb(0%,0%,0%);fill-opacity:1;"
              d="M 79.847656 18.789062 L 84.546875 18.789062 L 84.546875 23.484375 L 79.847656 23.484375 Z M 79.847656 18.789062 "/>
        <path style=" stroke:none;fill-rule:nonzero;fill:rgb(0%,0%,0%);fill-opacity:1;"
              d="M 89.242188 18.789062 L 93.9375 18.789062 L 93.9375 23.484375 L 89.242188 23.484375 Z M 89.242188 18.789062 "/>
        <path style=" stroke:none;fill-rule:nonzero;fill:rgb(0%,0%,0%);fill-opacity:1;"
              d="M 51.667969 23.484375 L 56.363281 23.484375 L 56.363281 28.183594 L 51.667969 28.183594 Z M 51.667969 23.484375 "/>
        <path style=" stroke:none;fill-rule:nonzero;fill:rgb(0%,0%,0%);fill-opacity:1;"
              d="M 56.363281 23.484375 L 61.0625 23.484375 L 61.0625 28.183594 L 56.363281 28.183594 Z M 56.363281 23.484375 "/>
        <path style=" stroke:none;fill-rule:nonzero;fill:rgb(0%,0%,0%);fill-opacity:1;"
              d="M 70.453125 23.484375 L 75.152344 23.484375 L 75.152344 28.183594 L 70.453125 28.183594 Z M 70.453125 23.484375 "/>
        <path style=" stroke:none;fill-rule:nonzero;fill:rgb(0%,0%,0%);fill-opacity:1;"
              d="M 84.546875 23.484375 L 89.242188 23.484375 L 89.242188 28.183594 L 84.546875 28.183594 Z M 84.546875 23.484375 "/>
        <path style=" stroke:none;fill-rule:nonzero;fill:rgb(0%,0%,0%);fill-opacity:1;"
              d="M 89.242188 23.484375 L 93.9375 23.484375 L 93.9375 28.183594 L 89.242188 28.183594 Z M 89.242188 23.484375 "/>
        <path style=" stroke:none;fill-rule:nonzero;fill:rgb(0%,0%,0%);fill-opacity:1;"
              d="M 93.9375 23.484375 L 98.636719 23.484375 L 98.636719 28.183594 L 93.9375 28.183594 Z M 93.9375 23.484375 "/>
        <path style=" stroke:none;fill-rule:nonzero;fill:rgb(0%,0%,0%);fill-opacity:1;"
              d="M 65.757812 28.183594 L 70.453125 28.183594 L 70.453125 32.878906 L 65.757812 32.878906 Z M 65.757812 28.183594 "/>
        <path style=" stroke:none;fill-rule:nonzero;fill:rgb(0%,0%,0%);fill-opacity:1;"
              d="M 93.9375 28.183594 L 98.636719 28.183594 L 98.636719 32.878906 L 93.9375 32.878906 Z M 93.9375 28.183594 "/>
        <path style=" stroke:none;fill-rule:nonzero;fill:rgb(0%,0%,0%);fill-opacity:1;"
              d="M 98.636719 28.183594 L 103.332031 28.183594 L 103.332031 32.878906 L 98.636719 32.878906 Z M 98.636719 28.183594 "/>
        <path style=" stroke:none;fill-rule:nonzero;fill:rgb(0%,0%,0%);fill-opacity:1;"
              d="M 46.96875 32.878906 L 51.667969 32.878906 L 51.667969 37.574219 L 46.96875 37.574219 Z M 46.96875 32.878906 "/>
        <path style=" stroke:none;fill-rule:nonzero;fill:rgb(0%,0%,0%);fill-opacity:1;"
              d="M 51.667969 32.878906 L 56.363281 32.878906 L 56.363281 37.574219 L 51.667969 37.574219 Z M 51.667969 32.878906 "/>
        <path style=" stroke:none;fill-rule:nonzero;fill:rgb(0%,0%,0%);fill-opacity:1;"
              d="M 61.0625 32.878906 L 65.757812 32.878906 L 65.757812 37.574219 L 61.0625 37.574219 Z M 61.0625 32.878906 "/>
        <path style=" stroke:none;fill-rule:nonzero;fill:rgb(0%,0%,0%);fill-opacity:1;"
              d="M 65.757812 32.878906 L 70.453125 32.878906 L 70.453125 37.574219 L 65.757812 37.574219 Z M 65.757812 32.878906 "/>
        <path style=" stroke:none;fill-rule:nonzero;fill:rgb(0%,0%,0%);fill-opacity:1;"
              d="M 79.847656 32.878906 L 84.546875 32.878906 L 84.546875 37.574219 L 79.847656 37.574219 Z M 79.847656 32.878906 "/>
        <path style=" stroke:none;fill-rule:nonzero;fill:rgb(0%,0%,0%);fill-opacity:1;"
              d="M 84.546875 32.878906 L 89.242188 32.878906 L 89.242188 37.574219 L 84.546875 37.574219 Z M 84.546875 32.878906 "/>
        <path style=" stroke:none;fill-rule:nonzero;fill:rgb(0%,0%,0%);fill-opacity:1;"
              d="M 98.636719 32.878906 L 103.332031 32.878906 L 103.332031 37.574219 L 98.636719 37.574219 Z M 98.636719 32.878906 "/>
        <path style=" stroke:none;fill-rule:nonzero;fill:rgb(0%,0%,0%);fill-opacity:1;"
              d="M 46.96875 37.574219 L 51.667969 37.574219 L 51.667969 42.273438 L 46.96875 42.273438 Z M 46.96875 37.574219 "/>
        <path style=" stroke:none;fill-rule:nonzero;fill:rgb(0%,0%,0%);fill-opacity:1;"
              d="M 56.363281 37.574219 L 61.0625 37.574219 L 61.0625 42.273438 L 56.363281 42.273438 Z M 56.363281 37.574219 "/>
        <path style=" stroke:none;fill-rule:nonzero;fill:rgb(0%,0%,0%);fill-opacity:1;"
              d="M 65.757812 37.574219 L 70.453125 37.574219 L 70.453125 42.273438 L 65.757812 42.273438 Z M 65.757812 37.574219 "/>
        <path style=" stroke:none;fill-rule:nonzero;fill:rgb(0%,0%,0%);fill-opacity:1;"
              d="M 75.152344 37.574219 L 79.847656 37.574219 L 79.847656 42.273438 L 75.152344 42.273438 Z M 75.152344 37.574219 "/>
        <path style=" stroke:none;fill-rule:nonzero;fill:rgb(0%,0%,0%);fill-opacity:1;"
              d="M 84.546875 37.574219 L 89.242188 37.574219 L 89.242188 42.273438 L 84.546875 42.273438 Z M 84.546875 37.574219 "/>
        <path style=" stroke:none;fill-rule:nonzero;fill:rgb(0%,0%,0%);fill-opacity:1;"
              d="M 93.9375 37.574219 L 98.636719 37.574219 L 98.636719 42.273438 L 93.9375 42.273438 Z M 93.9375 37.574219 "/>
        <path style=" stroke:none;fill-rule:nonzero;fill:rgb(0%,0%,0%);fill-opacity:1;"
              d="M 103.332031 37.574219 L 108.03125 37.574219 L 108.03125 42.273438 L 103.332031 42.273438 Z M 103.332031 37.574219 "/>
        <path style=" stroke:none;fill-rule:nonzero;fill:rgb(0%,0%,0%);fill-opacity:1;"
              d="M 51.667969 42.273438 L 56.363281 42.273438 L 56.363281 46.96875 L 51.667969 46.96875 Z M 51.667969 42.273438 "/>
        <path style=" stroke:none;fill-rule:nonzero;fill:rgb(0%,0%,0%);fill-opacity:1;"
              d="M 61.0625 42.273438 L 65.757812 42.273438 L 65.757812 46.96875 L 61.0625 46.96875 Z M 61.0625 42.273438 "/>
        <path style=" stroke:none;fill-rule:nonzero;fill:rgb(0%,0%,0%);fill-opacity:1;"
              d="M 70.453125 42.273438 L 75.152344 42.273438 L 75.152344 46.96875 L 70.453125 46.96875 Z M 70.453125 42.273438 "/>
        <path style=" stroke:none;fill-rule:nonzero;fill:rgb(0%,0%,0%);fill-opacity:1;"
              d="M 79.847656 42.273438 L 84.546875 42.273438 L 84.546875 46.96875 L 79.847656 46.96875 Z M 79.847656 42.273438 "/>
        <path style=" stroke:none;fill-rule:nonzero;fill:rgb(0%,0%,0%);fill-opacity:1;"
              d="M 84.546875 42.273438 L 89.242188 42.273438 L 89.242188 46.96875 L 84.546875 46.96875 Z M 84.546875 42.273438 "/>
        <path style=" stroke:none;fill-rule:nonzero;fill:rgb(0%,0%,0%);fill-opacity:1;"
              d="M 89.242188 42.273438 L 93.9375 42.273438 L 93.9375 46.96875 L 89.242188 46.96875 Z M 89.242188 42.273438 "/>
        <path style=" stroke:none;fill-rule:nonzero;fill:rgb(0%,0%,0%);fill-opacity:1;"
              d="M 93.9375 42.273438 L 98.636719 42.273438 L 98.636719 46.96875 L 93.9375 46.96875 Z M 93.9375 42.273438 "/>
        <path style=" stroke:none;fill-rule:nonzero;fill:rgb(0%,0%,0%);fill-opacity:1;"
              d="M 98.636719 42.273438 L 103.332031 42.273438 L 103.332031 46.96875 L 98.636719 46.96875 Z M 98.636719 42.273438 "/>
        <path style=" stroke:none;fill-rule:nonzero;fill:rgb(0%,0%,0%);fill-opacity:1;"
              d="M 103.332031 42.273438 L 108.03125 42.273438 L 108.03125 46.96875 L 103.332031 46.96875 Z M 103.332031 42.273438 "/>
        <path style=" stroke:none;fill-rule:nonzero;fill:rgb(0%,0%,0%);fill-opacity:1;"
              d="M 9.394531 46.96875 L 14.089844 46.96875 L 14.089844 51.667969 L 9.394531 51.667969 Z M 9.394531 46.96875 "/>
        <path style=" stroke:none;fill-rule:nonzero;fill:rgb(0%,0%,0%);fill-opacity:1;"
              d="M 23.484375 46.96875 L 28.183594 46.96875 L 28.183594 51.667969 L 23.484375 51.667969 Z M 23.484375 46.96875 "/>
        <path style=" stroke:none;fill-rule:nonzero;fill:rgb(0%,0%,0%);fill-opacity:1;"
              d="M 32.878906 46.96875 L 37.574219 46.96875 L 37.574219 51.667969 L 32.878906 51.667969 Z M 32.878906 46.96875 "/>
        <path style=" stroke:none;fill-rule:nonzero;fill:rgb(0%,0%,0%);fill-opacity:1;"
              d="M 37.574219 46.96875 L 42.273438 46.96875 L 42.273438 51.667969 L 37.574219 51.667969 Z M 37.574219 46.96875 "/>
        <path style=" stroke:none;fill-rule:nonzero;fill:rgb(0%,0%,0%);fill-opacity:1;"
              d="M 46.96875 46.96875 L 51.667969 46.96875 L 51.667969 51.667969 L 46.96875 51.667969 Z M 46.96875 46.96875 "/>
        <path style=" stroke:none;fill-rule:nonzero;fill:rgb(0%,0%,0%);fill-opacity:1;"
              d="M 56.363281 46.96875 L 61.0625 46.96875 L 61.0625 51.667969 L 56.363281 51.667969 Z M 56.363281 46.96875 "/>
        <path style=" stroke:none;fill-rule:nonzero;fill:rgb(0%,0%,0%);fill-opacity:1;"
              d="M 61.0625 46.96875 L 65.757812 46.96875 L 65.757812 51.667969 L 61.0625 51.667969 Z M 61.0625 46.96875 "/>
        <path style=" stroke:none;fill-rule:nonzero;fill:rgb(0%,0%,0%);fill-opacity:1;"
              d="M 75.152344 46.96875 L 79.847656 46.96875 L 79.847656 51.667969 L 75.152344 51.667969 Z M 75.152344 46.96875 "/>
        <path style=" stroke:none;fill-rule:nonzero;fill:rgb(0%,0%,0%);fill-opacity:1;"
              d="M 84.546875 46.96875 L 89.242188 46.96875 L 89.242188 51.667969 L 84.546875 51.667969 Z M 84.546875 46.96875 "/>
        <path style=" stroke:none;fill-rule:nonzero;fill:rgb(0%,0%,0%);fill-opacity:1;"
              d="M 98.636719 46.96875 L 103.332031 46.96875 L 103.332031 51.667969 L 98.636719 51.667969 Z M 98.636719 46.96875 "/>
        <path style=" stroke:none;fill-rule:nonzero;fill:rgb(0%,0%,0%);fill-opacity:1;"
              d="M 108.03125 46.96875 L 112.726562 46.96875 L 112.726562 51.667969 L 108.03125 51.667969 Z M 108.03125 46.96875 "/>
        <path style=" stroke:none;fill-rule:nonzero;fill:rgb(0%,0%,0%);fill-opacity:1;"
              d="M 117.425781 46.96875 L 122.121094 46.96875 L 122.121094 51.667969 L 117.425781 51.667969 Z M 117.425781 46.96875 "/>
        <path style=" stroke:none;fill-rule:nonzero;fill:rgb(0%,0%,0%);fill-opacity:1;"
              d="M 9.394531 51.667969 L 14.089844 51.667969 L 14.089844 56.363281 L 9.394531 56.363281 Z M 9.394531 51.667969 "/>
        <path style=" stroke:none;fill-rule:nonzero;fill:rgb(0%,0%,0%);fill-opacity:1;"
              d="M 14.089844 51.667969 L 18.789062 51.667969 L 18.789062 56.363281 L 14.089844 56.363281 Z M 14.089844 51.667969 "/>
        <path style=" stroke:none;fill-rule:nonzero;fill:rgb(0%,0%,0%);fill-opacity:1;"
              d="M 18.789062 51.667969 L 23.484375 51.667969 L 23.484375 56.363281 L 18.789062 56.363281 Z M 18.789062 51.667969 "/>
        <path style=" stroke:none;fill-rule:nonzero;fill:rgb(0%,0%,0%);fill-opacity:1;"
              d="M 28.183594 51.667969 L 32.878906 51.667969 L 32.878906 56.363281 L 28.183594 56.363281 Z M 28.183594 51.667969 "/>
        <path style=" stroke:none;fill-rule:nonzero;fill:rgb(0%,0%,0%);fill-opacity:1;"
              d="M 42.273438 51.667969 L 46.96875 51.667969 L 46.96875 56.363281 L 42.273438 56.363281 Z M 42.273438 51.667969 "/>
        <path style=" stroke:none;fill-rule:nonzero;fill:rgb(0%,0%,0%);fill-opacity:1;"
              d="M 51.667969 51.667969 L 56.363281 51.667969 L 56.363281 56.363281 L 51.667969 56.363281 Z M 51.667969 51.667969 "/>
        <path style=" stroke:none;fill-rule:nonzero;fill:rgb(0%,0%,0%);fill-opacity:1;"
              d="M 56.363281 51.667969 L 61.0625 51.667969 L 61.0625 56.363281 L 56.363281 56.363281 Z M 56.363281 51.667969 "/>
        <path style=" stroke:none;fill-rule:nonzero;fill:rgb(0%,0%,0%);fill-opacity:1;"
              d="M 61.0625 51.667969 L 65.757812 51.667969 L 65.757812 56.363281 L 61.0625 56.363281 Z M 61.0625 51.667969 "/>
        <path style=" stroke:none;fill-rule:nonzero;fill:rgb(0%,0%,0%);fill-opacity:1;"
              d="M 65.757812 51.667969 L 70.453125 51.667969 L 70.453125 56.363281 L 65.757812 56.363281 Z M 65.757812 51.667969 "/>
        <path style=" stroke:none;fill-rule:nonzero;fill:rgb(0%,0%,0%);fill-opacity:1;"
              d="M 70.453125 51.667969 L 75.152344 51.667969 L 75.152344 56.363281 L 70.453125 56.363281 Z M 70.453125 51.667969 "/>
        <path style=" stroke:none;fill-rule:nonzero;fill:rgb(0%,0%,0%);fill-opacity:1;"
              d="M 79.847656 51.667969 L 84.546875 51.667969 L 84.546875 56.363281 L 79.847656 56.363281 Z M 79.847656 51.667969 "/>
        <path style=" stroke:none;fill-rule:nonzero;fill:rgb(0%,0%,0%);fill-opacity:1;"
              d="M 84.546875 51.667969 L 89.242188 51.667969 L 89.242188 56.363281 L 84.546875 56.363281 Z M 84.546875 51.667969 "/>
        <path style=" stroke:none;fill-rule:nonzero;fill:rgb(0%,0%,0%);fill-opacity:1;"
              d="M 89.242188 51.667969 L 93.9375 51.667969 L 93.9375 56.363281 L 89.242188 56.363281 Z M 89.242188 51.667969 "/>
        <path style=" stroke:none;fill-rule:nonzero;fill:rgb(0%,0%,0%);fill-opacity:1;"
              d="M 108.03125 51.667969 L 112.726562 51.667969 L 112.726562 56.363281 L 108.03125 56.363281 Z M 108.03125 51.667969 "/>
        <path style=" stroke:none;fill-rule:nonzero;fill:rgb(0%,0%,0%);fill-opacity:1;"
              d="M 112.726562 51.667969 L 117.425781 51.667969 L 117.425781 56.363281 L 112.726562 56.363281 Z M 112.726562 51.667969 "/>
        <path style=" stroke:none;fill-rule:nonzero;fill:rgb(0%,0%,0%);fill-opacity:1;"
              d="M 126.816406 51.667969 L 131.515625 51.667969 L 131.515625 56.363281 L 126.816406 56.363281 Z M 126.816406 51.667969 "/>
        <path style=" stroke:none;fill-rule:nonzero;fill:rgb(0%,0%,0%);fill-opacity:1;"
              d="M 140.910156 51.667969 L 145.605469 51.667969 L 145.605469 56.363281 L 140.910156 56.363281 Z M 140.910156 51.667969 "/>
        <path style=" stroke:none;fill-rule:nonzero;fill:rgb(0%,0%,0%);fill-opacity:1;"
              d="M 14.089844 56.363281 L 18.789062 56.363281 L 18.789062 61.0625 L 14.089844 61.0625 Z M 14.089844 56.363281 "/>
        <path style=" stroke:none;fill-rule:nonzero;fill:rgb(0%,0%,0%);fill-opacity:1;"
              d="M 28.183594 56.363281 L 32.878906 56.363281 L 32.878906 61.0625 L 28.183594 61.0625 Z M 28.183594 56.363281 "/>
        <path style=" stroke:none;fill-rule:nonzero;fill:rgb(0%,0%,0%);fill-opacity:1;"
              d="M 32.878906 56.363281 L 37.574219 56.363281 L 37.574219 61.0625 L 32.878906 61.0625 Z M 32.878906 56.363281 "/>
        <path style=" stroke:none;fill-rule:nonzero;fill:rgb(0%,0%,0%);fill-opacity:1;"
              d="M 37.574219 56.363281 L 42.273438 56.363281 L 42.273438 61.0625 L 37.574219 61.0625 Z M 37.574219 56.363281 "/>
        <path style=" stroke:none;fill-rule:nonzero;fill:rgb(0%,0%,0%);fill-opacity:1;"
              d="M 42.273438 56.363281 L 46.96875 56.363281 L 46.96875 61.0625 L 42.273438 61.0625 Z M 42.273438 56.363281 "/>
        <path style=" stroke:none;fill-rule:nonzero;fill:rgb(0%,0%,0%);fill-opacity:1;"
              d="M 51.667969 56.363281 L 56.363281 56.363281 L 56.363281 61.0625 L 51.667969 61.0625 Z M 51.667969 56.363281 "/>
        <path style=" stroke:none;fill-rule:nonzero;fill:rgb(0%,0%,0%);fill-opacity:1;"
              d="M 56.363281 56.363281 L 61.0625 56.363281 L 61.0625 61.0625 L 56.363281 61.0625 Z M 56.363281 56.363281 "/>
        <path style=" stroke:none;fill-rule:nonzero;fill:rgb(0%,0%,0%);fill-opacity:1;"
              d="M 61.0625 56.363281 L 65.757812 56.363281 L 65.757812 61.0625 L 61.0625 61.0625 Z M 61.0625 56.363281 "/>
        <path style=" stroke:none;fill-rule:nonzero;fill:rgb(0%,0%,0%);fill-opacity:1;"
              d="M 70.453125 56.363281 L 75.152344 56.363281 L 75.152344 61.0625 L 70.453125 61.0625 Z M 70.453125 56.363281 "/>
        <path style=" stroke:none;fill-rule:nonzero;fill:rgb(0%,0%,0%);fill-opacity:1;"
              d="M 75.152344 56.363281 L 79.847656 56.363281 L 79.847656 61.0625 L 75.152344 61.0625 Z M 75.152344 56.363281 "/>
        <path style=" stroke:none;fill-rule:nonzero;fill:rgb(0%,0%,0%);fill-opacity:1;"
              d="M 79.847656 56.363281 L 84.546875 56.363281 L 84.546875 61.0625 L 79.847656 61.0625 Z M 79.847656 56.363281 "/>
        <path style=" stroke:none;fill-rule:nonzero;fill:rgb(0%,0%,0%);fill-opacity:1;"
              d="M 98.636719 56.363281 L 103.332031 56.363281 L 103.332031 61.0625 L 98.636719 61.0625 Z M 98.636719 56.363281 "/>
        <path style=" stroke:none;fill-rule:nonzero;fill:rgb(0%,0%,0%);fill-opacity:1;"
              d="M 103.332031 56.363281 L 108.03125 56.363281 L 108.03125 61.0625 L 103.332031 61.0625 Z M 103.332031 56.363281 "/>
        <path style=" stroke:none;fill-rule:nonzero;fill:rgb(0%,0%,0%);fill-opacity:1;"
              d="M 108.03125 56.363281 L 112.726562 56.363281 L 112.726562 61.0625 L 108.03125 61.0625 Z M 108.03125 56.363281 "/>
        <path style=" stroke:none;fill-rule:nonzero;fill:rgb(0%,0%,0%);fill-opacity:1;"
              d="M 112.726562 56.363281 L 117.425781 56.363281 L 117.425781 61.0625 L 112.726562 61.0625 Z M 112.726562 56.363281 "/>
        <path style=" stroke:none;fill-rule:nonzero;fill:rgb(0%,0%,0%);fill-opacity:1;"
              d="M 126.816406 56.363281 L 131.515625 56.363281 L 131.515625 61.0625 L 126.816406 61.0625 Z M 126.816406 56.363281 "/>
        <path style=" stroke:none;fill-rule:nonzero;fill:rgb(0%,0%,0%);fill-opacity:1;"
              d="M 131.515625 56.363281 L 136.210938 56.363281 L 136.210938 61.0625 L 131.515625 61.0625 Z M 131.515625 56.363281 "/>
        <path style=" stroke:none;fill-rule:nonzero;fill:rgb(0%,0%,0%);fill-opacity:1;"
              d="M 136.210938 56.363281 L 140.910156 56.363281 L 140.910156 61.0625 L 136.210938 61.0625 Z M 136.210938 56.363281 "/>
        <path style=" stroke:none;fill-rule:nonzero;fill:rgb(0%,0%,0%);fill-opacity:1;"
              d="M 14.089844 61.0625 L 18.789062 61.0625 L 18.789062 65.757812 L 14.089844 65.757812 Z M 14.089844 61.0625 "/>
        <path style=" stroke:none;fill-rule:nonzero;fill:rgb(0%,0%,0%);fill-opacity:1;"
              d="M 23.484375 61.0625 L 28.183594 61.0625 L 28.183594 65.757812 L 23.484375 65.757812 Z M 23.484375 61.0625 "/>
        <path style=" stroke:none;fill-rule:nonzero;fill:rgb(0%,0%,0%);fill-opacity:1;"
              d="M 42.273438 61.0625 L 46.96875 61.0625 L 46.96875 65.757812 L 42.273438 65.757812 Z M 42.273438 61.0625 "/>
        <path style=" stroke:none;fill-rule:nonzero;fill:rgb(0%,0%,0%);fill-opacity:1;"
              d="M 46.96875 61.0625 L 51.667969 61.0625 L 51.667969 65.757812 L 46.96875 65.757812 Z M 46.96875 61.0625 "/>
        <path style=" stroke:none;fill-rule:nonzero;fill:rgb(0%,0%,0%);fill-opacity:1;"
              d="M 51.667969 61.0625 L 56.363281 61.0625 L 56.363281 65.757812 L 51.667969 65.757812 Z M 51.667969 61.0625 "/>
        <path style=" stroke:none;fill-rule:nonzero;fill:rgb(0%,0%,0%);fill-opacity:1;"
              d="M 61.0625 61.0625 L 65.757812 61.0625 L 65.757812 65.757812 L 61.0625 65.757812 Z M 61.0625 61.0625 "/>
        <path style=" stroke:none;fill-rule:nonzero;fill:rgb(0%,0%,0%);fill-opacity:1;"
              d="M 65.757812 61.0625 L 70.453125 61.0625 L 70.453125 65.757812 L 65.757812 65.757812 Z M 65.757812 61.0625 "/>
        <path style=" stroke:none;fill-rule:nonzero;fill:rgb(0%,0%,0%);fill-opacity:1;"
              d="M 70.453125 61.0625 L 75.152344 61.0625 L 75.152344 65.757812 L 70.453125 65.757812 Z M 70.453125 61.0625 "/>
        <path style=" stroke:none;fill-rule:nonzero;fill:rgb(0%,0%,0%);fill-opacity:1;"
              d="M 84.546875 61.0625 L 89.242188 61.0625 L 89.242188 65.757812 L 84.546875 65.757812 Z M 84.546875 61.0625 "/>
        <path style=" stroke:none;fill-rule:nonzero;fill:rgb(0%,0%,0%);fill-opacity:1;"
              d="M 103.332031 61.0625 L 108.03125 61.0625 L 108.03125 65.757812 L 103.332031 65.757812 Z M 103.332031 61.0625 "/>
        <path style=" stroke:none;fill-rule:nonzero;fill:rgb(0%,0%,0%);fill-opacity:1;"
              d="M 117.425781 61.0625 L 122.121094 61.0625 L 122.121094 65.757812 L 117.425781 65.757812 Z M 117.425781 61.0625 "/>
        <path style=" stroke:none;fill-rule:nonzero;fill:rgb(0%,0%,0%);fill-opacity:1;"
              d="M 122.121094 61.0625 L 126.816406 61.0625 L 126.816406 65.757812 L 122.121094 65.757812 Z M 122.121094 61.0625 "/>
        <path style=" stroke:none;fill-rule:nonzero;fill:rgb(0%,0%,0%);fill-opacity:1;"
              d="M 131.515625 61.0625 L 136.210938 61.0625 L 136.210938 65.757812 L 131.515625 65.757812 Z M 131.515625 61.0625 "/>
        <path style=" stroke:none;fill-rule:nonzero;fill:rgb(0%,0%,0%);fill-opacity:1;"
              d="M 136.210938 61.0625 L 140.910156 61.0625 L 140.910156 65.757812 L 136.210938 65.757812 Z M 136.210938 61.0625 "/>
        <path style=" stroke:none;fill-rule:nonzero;fill:rgb(0%,0%,0%);fill-opacity:1;"
              d="M 14.089844 65.757812 L 18.789062 65.757812 L 18.789062 70.453125 L 14.089844 70.453125 Z M 14.089844 65.757812 "/>
        <path style=" stroke:none;fill-rule:nonzero;fill:rgb(0%,0%,0%);fill-opacity:1;"
              d="M 18.789062 65.757812 L 23.484375 65.757812 L 23.484375 70.453125 L 18.789062 70.453125 Z M 18.789062 65.757812 "/>
        <path style=" stroke:none;fill-rule:nonzero;fill:rgb(0%,0%,0%);fill-opacity:1;"
              d="M 28.183594 65.757812 L 32.878906 65.757812 L 32.878906 70.453125 L 28.183594 70.453125 Z M 28.183594 65.757812 "/>
        <path style=" stroke:none;fill-rule:nonzero;fill:rgb(0%,0%,0%);fill-opacity:1;"
              d="M 37.574219 65.757812 L 42.273438 65.757812 L 42.273438 70.453125 L 37.574219 70.453125 Z M 37.574219 65.757812 "/>
        <path style=" stroke:none;fill-rule:nonzero;fill:rgb(0%,0%,0%);fill-opacity:1;"
              d="M 46.96875 65.757812 L 51.667969 65.757812 L 51.667969 70.453125 L 46.96875 70.453125 Z M 46.96875 65.757812 "/>
        <path style=" stroke:none;fill-rule:nonzero;fill:rgb(0%,0%,0%);fill-opacity:1;"
              d="M 51.667969 65.757812 L 56.363281 65.757812 L 56.363281 70.453125 L 51.667969 70.453125 Z M 51.667969 65.757812 "/>
        <path style=" stroke:none;fill-rule:nonzero;fill:rgb(0%,0%,0%);fill-opacity:1;"
              d="M 56.363281 65.757812 L 61.0625 65.757812 L 61.0625 70.453125 L 56.363281 70.453125 Z M 56.363281 65.757812 "/>
        <path style=" stroke:none;fill-rule:nonzero;fill:rgb(0%,0%,0%);fill-opacity:1;"
              d="M 61.0625 65.757812 L 65.757812 65.757812 L 65.757812 70.453125 L 61.0625 70.453125 Z M 61.0625 65.757812 "/>
        <path style=" stroke:none;fill-rule:nonzero;fill:rgb(0%,0%,0%);fill-opacity:1;"
              d="M 65.757812 65.757812 L 70.453125 65.757812 L 70.453125 70.453125 L 65.757812 70.453125 Z M 65.757812 65.757812 "/>
        <path style=" stroke:none;fill-rule:nonzero;fill:rgb(0%,0%,0%);fill-opacity:1;"
              d="M 75.152344 65.757812 L 79.847656 65.757812 L 79.847656 70.453125 L 75.152344 70.453125 Z M 75.152344 65.757812 "/>
        <path style=" stroke:none;fill-rule:nonzero;fill:rgb(0%,0%,0%);fill-opacity:1;"
              d="M 79.847656 65.757812 L 84.546875 65.757812 L 84.546875 70.453125 L 79.847656 70.453125 Z M 79.847656 65.757812 "/>
        <path style=" stroke:none;fill-rule:nonzero;fill:rgb(0%,0%,0%);fill-opacity:1;"
              d="M 84.546875 65.757812 L 89.242188 65.757812 L 89.242188 70.453125 L 84.546875 70.453125 Z M 84.546875 65.757812 "/>
        <path style=" stroke:none;fill-rule:nonzero;fill:rgb(0%,0%,0%);fill-opacity:1;"
              d="M 89.242188 65.757812 L 93.9375 65.757812 L 93.9375 70.453125 L 89.242188 70.453125 Z M 89.242188 65.757812 "/>
        <path style=" stroke:none;fill-rule:nonzero;fill:rgb(0%,0%,0%);fill-opacity:1;"
              d="M 98.636719 65.757812 L 103.332031 65.757812 L 103.332031 70.453125 L 98.636719 70.453125 Z M 98.636719 65.757812 "/>
        <path style=" stroke:none;fill-rule:nonzero;fill:rgb(0%,0%,0%);fill-opacity:1;"
              d="M 108.03125 65.757812 L 112.726562 65.757812 L 112.726562 70.453125 L 108.03125 70.453125 Z M 108.03125 65.757812 "/>
        <path style=" stroke:none;fill-rule:nonzero;fill:rgb(0%,0%,0%);fill-opacity:1;"
              d="M 112.726562 65.757812 L 117.425781 65.757812 L 117.425781 70.453125 L 112.726562 70.453125 Z M 112.726562 65.757812 "/>
        <path style=" stroke:none;fill-rule:nonzero;fill:rgb(0%,0%,0%);fill-opacity:1;"
              d="M 126.816406 65.757812 L 131.515625 65.757812 L 131.515625 70.453125 L 126.816406 70.453125 Z M 126.816406 65.757812 "/>
        <path style=" stroke:none;fill-rule:nonzero;fill:rgb(0%,0%,0%);fill-opacity:1;"
              d="M 136.210938 65.757812 L 140.910156 65.757812 L 140.910156 70.453125 L 136.210938 70.453125 Z M 136.210938 65.757812 "/>
        <path style=" stroke:none;fill-rule:nonzero;fill:rgb(0%,0%,0%);fill-opacity:1;"
              d="M 140.910156 65.757812 L 145.605469 65.757812 L 145.605469 70.453125 L 140.910156 70.453125 Z M 140.910156 65.757812 "/>
        <path style=" stroke:none;fill-rule:nonzero;fill:rgb(0%,0%,0%);fill-opacity:1;"
              d="M 9.394531 70.453125 L 14.089844 70.453125 L 14.089844 75.152344 L 9.394531 75.152344 Z M 9.394531 70.453125 "/>
        <path style=" stroke:none;fill-rule:nonzero;fill:rgb(0%,0%,0%);fill-opacity:1;"
              d="M 18.789062 70.453125 L 23.484375 70.453125 L 23.484375 75.152344 L 18.789062 75.152344 Z M 18.789062 70.453125 "/>
        <path style=" stroke:none;fill-rule:nonzero;fill:rgb(0%,0%,0%);fill-opacity:1;"
              d="M 28.183594 70.453125 L 32.878906 70.453125 L 32.878906 75.152344 L 28.183594 75.152344 Z M 28.183594 70.453125 "/>
        <path style=" stroke:none;fill-rule:nonzero;fill:rgb(0%,0%,0%);fill-opacity:1;"
              d="M 46.96875 70.453125 L 51.667969 70.453125 L 51.667969 75.152344 L 46.96875 75.152344 Z M 46.96875 70.453125 "/>
        <path style=" stroke:none;fill-rule:nonzero;fill:rgb(0%,0%,0%);fill-opacity:1;"
              d="M 51.667969 70.453125 L 56.363281 70.453125 L 56.363281 75.152344 L 51.667969 75.152344 Z M 51.667969 70.453125 "/>
        <path style=" stroke:none;fill-rule:nonzero;fill:rgb(0%,0%,0%);fill-opacity:1;"
              d="M 56.363281 70.453125 L 61.0625 70.453125 L 61.0625 75.152344 L 56.363281 75.152344 Z M 56.363281 70.453125 "/>
        <path style=" stroke:none;fill-rule:nonzero;fill:rgb(0%,0%,0%);fill-opacity:1;"
              d="M 70.453125 70.453125 L 75.152344 70.453125 L 75.152344 75.152344 L 70.453125 75.152344 Z M 70.453125 70.453125 "/>
        <path style=" stroke:none;fill-rule:nonzero;fill:rgb(0%,0%,0%);fill-opacity:1;"
              d="M 75.152344 70.453125 L 79.847656 70.453125 L 79.847656 75.152344 L 75.152344 75.152344 Z M 75.152344 70.453125 "/>
        <path style=" stroke:none;fill-rule:nonzero;fill:rgb(0%,0%,0%);fill-opacity:1;"
              d="M 79.847656 70.453125 L 84.546875 70.453125 L 84.546875 75.152344 L 79.847656 75.152344 Z M 79.847656 70.453125 "/>
        <path style=" stroke:none;fill-rule:nonzero;fill:rgb(0%,0%,0%);fill-opacity:1;"
              d="M 84.546875 70.453125 L 89.242188 70.453125 L 89.242188 75.152344 L 84.546875 75.152344 Z M 84.546875 70.453125 "/>
        <path style=" stroke:none;fill-rule:nonzero;fill:rgb(0%,0%,0%);fill-opacity:1;"
              d="M 98.636719 70.453125 L 103.332031 70.453125 L 103.332031 75.152344 L 98.636719 75.152344 Z M 98.636719 70.453125 "/>
        <path style=" stroke:none;fill-rule:nonzero;fill:rgb(0%,0%,0%);fill-opacity:1;"
              d="M 103.332031 70.453125 L 108.03125 70.453125 L 108.03125 75.152344 L 103.332031 75.152344 Z M 103.332031 70.453125 "/>
        <path style=" stroke:none;fill-rule:nonzero;fill:rgb(0%,0%,0%);fill-opacity:1;"
              d="M 108.03125 70.453125 L 112.726562 70.453125 L 112.726562 75.152344 L 108.03125 75.152344 Z M 108.03125 70.453125 "/>
        <path style=" stroke:none;fill-rule:nonzero;fill:rgb(0%,0%,0%);fill-opacity:1;"
              d="M 117.425781 70.453125 L 122.121094 70.453125 L 122.121094 75.152344 L 117.425781 75.152344 Z M 117.425781 70.453125 "/>
        <path style=" stroke:none;fill-rule:nonzero;fill:rgb(0%,0%,0%);fill-opacity:1;"
              d="M 14.089844 75.152344 L 18.789062 75.152344 L 18.789062 79.847656 L 14.089844 79.847656 Z M 14.089844 75.152344 "/>
        <path style=" stroke:none;fill-rule:nonzero;fill:rgb(0%,0%,0%);fill-opacity:1;"
              d="M 18.789062 75.152344 L 23.484375 75.152344 L 23.484375 79.847656 L 18.789062 79.847656 Z M 18.789062 75.152344 "/>
        <path style=" stroke:none;fill-rule:nonzero;fill:rgb(0%,0%,0%);fill-opacity:1;"
              d="M 23.484375 75.152344 L 28.183594 75.152344 L 28.183594 79.847656 L 23.484375 79.847656 Z M 23.484375 75.152344 "/>
        <path style=" stroke:none;fill-rule:nonzero;fill:rgb(0%,0%,0%);fill-opacity:1;"
              d="M 32.878906 75.152344 L 37.574219 75.152344 L 37.574219 79.847656 L 32.878906 79.847656 Z M 32.878906 75.152344 "/>
        <path style=" stroke:none;fill-rule:nonzero;fill:rgb(0%,0%,0%);fill-opacity:1;"
              d="M 37.574219 75.152344 L 42.273438 75.152344 L 42.273438 79.847656 L 37.574219 79.847656 Z M 37.574219 75.152344 "/>
        <path style=" stroke:none;fill-rule:nonzero;fill:rgb(0%,0%,0%);fill-opacity:1;"
              d="M 51.667969 75.152344 L 56.363281 75.152344 L 56.363281 79.847656 L 51.667969 79.847656 Z M 51.667969 75.152344 "/>
        <path style=" stroke:none;fill-rule:nonzero;fill:rgb(0%,0%,0%);fill-opacity:1;"
              d="M 61.0625 75.152344 L 65.757812 75.152344 L 65.757812 79.847656 L 61.0625 79.847656 Z M 61.0625 75.152344 "/>
        <path style=" stroke:none;fill-rule:nonzero;fill:rgb(0%,0%,0%);fill-opacity:1;"
              d="M 70.453125 75.152344 L 75.152344 75.152344 L 75.152344 79.847656 L 70.453125 79.847656 Z M 70.453125 75.152344 "/>
        <path style=" stroke:none;fill-rule:nonzero;fill:rgb(0%,0%,0%);fill-opacity:1;"
              d="M 75.152344 75.152344 L 79.847656 75.152344 L 79.847656 79.847656 L 75.152344 79.847656 Z M 75.152344 75.152344 "/>
        <path style=" stroke:none;fill-rule:nonzero;fill:rgb(0%,0%,0%);fill-opacity:1;"
              d="M 84.546875 75.152344 L 89.242188 75.152344 L 89.242188 79.847656 L 84.546875 79.847656 Z M 84.546875 75.152344 "/>
        <path style=" stroke:none;fill-rule:nonzero;fill:rgb(0%,0%,0%);fill-opacity:1;"
              d="M 103.332031 75.152344 L 108.03125 75.152344 L 108.03125 79.847656 L 103.332031 79.847656 Z M 103.332031 75.152344 "/>
        <path style=" stroke:none;fill-rule:nonzero;fill:rgb(0%,0%,0%);fill-opacity:1;"
              d="M 112.726562 75.152344 L 117.425781 75.152344 L 117.425781 79.847656 L 112.726562 79.847656 Z M 112.726562 75.152344 "/>
        <path style=" stroke:none;fill-rule:nonzero;fill:rgb(0%,0%,0%);fill-opacity:1;"
              d="M 122.121094 75.152344 L 126.816406 75.152344 L 126.816406 79.847656 L 122.121094 79.847656 Z M 122.121094 75.152344 "/>
        <path style=" stroke:none;fill-rule:nonzero;fill:rgb(0%,0%,0%);fill-opacity:1;"
              d="M 126.816406 75.152344 L 131.515625 75.152344 L 131.515625 79.847656 L 126.816406 79.847656 Z M 126.816406 75.152344 "/>
        <path style=" stroke:none;fill-rule:nonzero;fill:rgb(0%,0%,0%);fill-opacity:1;"
              d="M 131.515625 75.152344 L 136.210938 75.152344 L 136.210938 79.847656 L 131.515625 79.847656 Z M 131.515625 75.152344 "/>
        <path style=" stroke:none;fill-rule:nonzero;fill:rgb(0%,0%,0%);fill-opacity:1;"
              d="M 136.210938 75.152344 L 140.910156 75.152344 L 140.910156 79.847656 L 136.210938 79.847656 Z M 136.210938 75.152344 "/>
        <path style=" stroke:none;fill-rule:nonzero;fill:rgb(0%,0%,0%);fill-opacity:1;"
              d="M 140.910156 75.152344 L 145.605469 75.152344 L 145.605469 79.847656 L 140.910156 79.847656 Z M 140.910156 75.152344 "/>
        <path style=" stroke:none;fill-rule:nonzero;fill:rgb(0%,0%,0%);fill-opacity:1;"
              d="M 9.394531 79.847656 L 14.089844 79.847656 L 14.089844 84.546875 L 9.394531 84.546875 Z M 9.394531 79.847656 "/>
        <path style=" stroke:none;fill-rule:nonzero;fill:rgb(0%,0%,0%);fill-opacity:1;"
              d="M 14.089844 79.847656 L 18.789062 79.847656 L 18.789062 84.546875 L 14.089844 84.546875 Z M 14.089844 79.847656 "/>
        <path style=" stroke:none;fill-rule:nonzero;fill:rgb(0%,0%,0%);fill-opacity:1;"
              d="M 18.789062 79.847656 L 23.484375 79.847656 L 23.484375 84.546875 L 18.789062 84.546875 Z M 18.789062 79.847656 "/>
        <path style=" stroke:none;fill-rule:nonzero;fill:rgb(0%,0%,0%);fill-opacity:1;"
              d="M 42.273438 79.847656 L 46.96875 79.847656 L 46.96875 84.546875 L 42.273438 84.546875 Z M 42.273438 79.847656 "/>
        <path style=" stroke:none;fill-rule:nonzero;fill:rgb(0%,0%,0%);fill-opacity:1;"
              d="M 46.96875 79.847656 L 51.667969 79.847656 L 51.667969 84.546875 L 46.96875 84.546875 Z M 46.96875 79.847656 "/>
        <path style=" stroke:none;fill-rule:nonzero;fill:rgb(0%,0%,0%);fill-opacity:1;"
              d="M 51.667969 79.847656 L 56.363281 79.847656 L 56.363281 84.546875 L 51.667969 84.546875 Z M 51.667969 79.847656 "/>
        <path style=" stroke:none;fill-rule:nonzero;fill:rgb(0%,0%,0%);fill-opacity:1;"
              d="M 65.757812 79.847656 L 70.453125 79.847656 L 70.453125 84.546875 L 65.757812 84.546875 Z M 65.757812 79.847656 "/>
        <path style=" stroke:none;fill-rule:nonzero;fill:rgb(0%,0%,0%);fill-opacity:1;"
              d="M 84.546875 79.847656 L 89.242188 79.847656 L 89.242188 84.546875 L 84.546875 84.546875 Z M 84.546875 79.847656 "/>
        <path style=" stroke:none;fill-rule:nonzero;fill:rgb(0%,0%,0%);fill-opacity:1;"
              d="M 89.242188 79.847656 L 93.9375 79.847656 L 93.9375 84.546875 L 89.242188 84.546875 Z M 89.242188 79.847656 "/>
        <path style=" stroke:none;fill-rule:nonzero;fill:rgb(0%,0%,0%);fill-opacity:1;"
              d="M 98.636719 79.847656 L 103.332031 79.847656 L 103.332031 84.546875 L 98.636719 84.546875 Z M 98.636719 79.847656 "/>
        <path style=" stroke:none;fill-rule:nonzero;fill:rgb(0%,0%,0%);fill-opacity:1;"
              d="M 108.03125 79.847656 L 112.726562 79.847656 L 112.726562 84.546875 L 108.03125 84.546875 Z M 108.03125 79.847656 "/>
        <path style=" stroke:none;fill-rule:nonzero;fill:rgb(0%,0%,0%);fill-opacity:1;"
              d="M 112.726562 79.847656 L 117.425781 79.847656 L 117.425781 84.546875 L 112.726562 84.546875 Z M 112.726562 79.847656 "/>
        <path style=" stroke:none;fill-rule:nonzero;fill:rgb(0%,0%,0%);fill-opacity:1;"
              d="M 117.425781 79.847656 L 122.121094 79.847656 L 122.121094 84.546875 L 117.425781 84.546875 Z M 117.425781 79.847656 "/>
        <path style=" stroke:none;fill-rule:nonzero;fill:rgb(0%,0%,0%);fill-opacity:1;"
              d="M 122.121094 79.847656 L 126.816406 79.847656 L 126.816406 84.546875 L 122.121094 84.546875 Z M 122.121094 79.847656 "/>
        <path style=" stroke:none;fill-rule:nonzero;fill:rgb(0%,0%,0%);fill-opacity:1;"
              d="M 126.816406 79.847656 L 131.515625 79.847656 L 131.515625 84.546875 L 126.816406 84.546875 Z M 126.816406 79.847656 "/>
        <path style=" stroke:none;fill-rule:nonzero;fill:rgb(0%,0%,0%);fill-opacity:1;"
              d="M 136.210938 79.847656 L 140.910156 79.847656 L 140.910156 84.546875 L 136.210938 84.546875 Z M 136.210938 79.847656 "/>
        <path style=" stroke:none;fill-rule:nonzero;fill:rgb(0%,0%,0%);fill-opacity:1;"
              d="M 9.394531 84.546875 L 14.089844 84.546875 L 14.089844 89.242188 L 9.394531 89.242188 Z M 9.394531 84.546875 "/>
        <path style=" stroke:none;fill-rule:nonzero;fill:rgb(0%,0%,0%);fill-opacity:1;"
              d="M 14.089844 84.546875 L 18.789062 84.546875 L 18.789062 89.242188 L 14.089844 89.242188 Z M 14.089844 84.546875 "/>
        <path style=" stroke:none;fill-rule:nonzero;fill:rgb(0%,0%,0%);fill-opacity:1;"
              d="M 18.789062 84.546875 L 23.484375 84.546875 L 23.484375 89.242188 L 18.789062 89.242188 Z M 18.789062 84.546875 "/>
        <path style=" stroke:none;fill-rule:nonzero;fill:rgb(0%,0%,0%);fill-opacity:1;"
              d="M 37.574219 84.546875 L 42.273438 84.546875 L 42.273438 89.242188 L 37.574219 89.242188 Z M 37.574219 84.546875 "/>
        <path style=" stroke:none;fill-rule:nonzero;fill:rgb(0%,0%,0%);fill-opacity:1;"
              d="M 42.273438 84.546875 L 46.96875 84.546875 L 46.96875 89.242188 L 42.273438 89.242188 Z M 42.273438 84.546875 "/>
        <path style=" stroke:none;fill-rule:nonzero;fill:rgb(0%,0%,0%);fill-opacity:1;"
              d="M 46.96875 84.546875 L 51.667969 84.546875 L 51.667969 89.242188 L 46.96875 89.242188 Z M 46.96875 84.546875 "/>
        <path style=" stroke:none;fill-rule:nonzero;fill:rgb(0%,0%,0%);fill-opacity:1;"
              d="M 51.667969 84.546875 L 56.363281 84.546875 L 56.363281 89.242188 L 51.667969 89.242188 Z M 51.667969 84.546875 "/>
        <path style=" stroke:none;fill-rule:nonzero;fill:rgb(0%,0%,0%);fill-opacity:1;"
              d="M 56.363281 84.546875 L 61.0625 84.546875 L 61.0625 89.242188 L 56.363281 89.242188 Z M 56.363281 84.546875 "/>
        <path style=" stroke:none;fill-rule:nonzero;fill:rgb(0%,0%,0%);fill-opacity:1;"
              d="M 70.453125 84.546875 L 75.152344 84.546875 L 75.152344 89.242188 L 70.453125 89.242188 Z M 70.453125 84.546875 "/>
        <path style=" stroke:none;fill-rule:nonzero;fill:rgb(0%,0%,0%);fill-opacity:1;"
              d="M 79.847656 84.546875 L 84.546875 84.546875 L 84.546875 89.242188 L 79.847656 89.242188 Z M 79.847656 84.546875 "/>
        <path style=" stroke:none;fill-rule:nonzero;fill:rgb(0%,0%,0%);fill-opacity:1;"
              d="M 89.242188 84.546875 L 93.9375 84.546875 L 93.9375 89.242188 L 89.242188 89.242188 Z M 89.242188 84.546875 "/>
        <path style=" stroke:none;fill-rule:nonzero;fill:rgb(0%,0%,0%);fill-opacity:1;"
              d="M 93.9375 84.546875 L 98.636719 84.546875 L 98.636719 89.242188 L 93.9375 89.242188 Z M 93.9375 84.546875 "/>
        <path style=" stroke:none;fill-rule:nonzero;fill:rgb(0%,0%,0%);fill-opacity:1;"
              d="M 103.332031 84.546875 L 108.03125 84.546875 L 108.03125 89.242188 L 103.332031 89.242188 Z M 103.332031 84.546875 "/>
        <path style=" stroke:none;fill-rule:nonzero;fill:rgb(0%,0%,0%);fill-opacity:1;"
              d="M 108.03125 84.546875 L 112.726562 84.546875 L 112.726562 89.242188 L 108.03125 89.242188 Z M 108.03125 84.546875 "/>
        <path style=" stroke:none;fill-rule:nonzero;fill:rgb(0%,0%,0%);fill-opacity:1;"
              d="M 117.425781 84.546875 L 122.121094 84.546875 L 122.121094 89.242188 L 117.425781 89.242188 Z M 117.425781 84.546875 "/>
        <path style=" stroke:none;fill-rule:nonzero;fill:rgb(0%,0%,0%);fill-opacity:1;"
              d="M 136.210938 84.546875 L 140.910156 84.546875 L 140.910156 89.242188 L 136.210938 89.242188 Z M 136.210938 84.546875 "/>
        <path style=" stroke:none;fill-rule:nonzero;fill:rgb(0%,0%,0%);fill-opacity:1;"
              d="M 18.789062 89.242188 L 23.484375 89.242188 L 23.484375 93.9375 L 18.789062 93.9375 Z M 18.789062 89.242188 "/>
        <path style=" stroke:none;fill-rule:nonzero;fill:rgb(0%,0%,0%);fill-opacity:1;"
              d="M 32.878906 89.242188 L 37.574219 89.242188 L 37.574219 93.9375 L 32.878906 93.9375 Z M 32.878906 89.242188 "/>
        <path style=" stroke:none;fill-rule:nonzero;fill:rgb(0%,0%,0%);fill-opacity:1;"
              d="M 46.96875 89.242188 L 51.667969 89.242188 L 51.667969 93.9375 L 46.96875 93.9375 Z M 46.96875 89.242188 "/>
        <path style=" stroke:none;fill-rule:nonzero;fill:rgb(0%,0%,0%);fill-opacity:1;"
              d="M 51.667969 89.242188 L 56.363281 89.242188 L 56.363281 93.9375 L 51.667969 93.9375 Z M 51.667969 89.242188 "/>
        <path style=" stroke:none;fill-rule:nonzero;fill:rgb(0%,0%,0%);fill-opacity:1;"
              d="M 56.363281 89.242188 L 61.0625 89.242188 L 61.0625 93.9375 L 56.363281 93.9375 Z M 56.363281 89.242188 "/>
        <path style=" stroke:none;fill-rule:nonzero;fill:rgb(0%,0%,0%);fill-opacity:1;"
              d="M 61.0625 89.242188 L 65.757812 89.242188 L 65.757812 93.9375 L 61.0625 93.9375 Z M 61.0625 89.242188 "/>
        <path style=" stroke:none;fill-rule:nonzero;fill:rgb(0%,0%,0%);fill-opacity:1;"
              d="M 65.757812 89.242188 L 70.453125 89.242188 L 70.453125 93.9375 L 65.757812 93.9375 Z M 65.757812 89.242188 "/>
        <path style=" stroke:none;fill-rule:nonzero;fill:rgb(0%,0%,0%);fill-opacity:1;"
              d="M 70.453125 89.242188 L 75.152344 89.242188 L 75.152344 93.9375 L 70.453125 93.9375 Z M 70.453125 89.242188 "/>
        <path style=" stroke:none;fill-rule:nonzero;fill:rgb(0%,0%,0%);fill-opacity:1;"
              d="M 75.152344 89.242188 L 79.847656 89.242188 L 79.847656 93.9375 L 75.152344 93.9375 Z M 75.152344 89.242188 "/>
        <path style=" stroke:none;fill-rule:nonzero;fill:rgb(0%,0%,0%);fill-opacity:1;"
              d="M 79.847656 89.242188 L 84.546875 89.242188 L 84.546875 93.9375 L 79.847656 93.9375 Z M 79.847656 89.242188 "/>
        <path style=" stroke:none;fill-rule:nonzero;fill:rgb(0%,0%,0%);fill-opacity:1;"
              d="M 84.546875 89.242188 L 89.242188 89.242188 L 89.242188 93.9375 L 84.546875 93.9375 Z M 84.546875 89.242188 "/>
        <path style=" stroke:none;fill-rule:nonzero;fill:rgb(0%,0%,0%);fill-opacity:1;"
              d="M 93.9375 89.242188 L 98.636719 89.242188 L 98.636719 93.9375 L 93.9375 93.9375 Z M 93.9375 89.242188 "/>
        <path style=" stroke:none;fill-rule:nonzero;fill:rgb(0%,0%,0%);fill-opacity:1;"
              d="M 108.03125 89.242188 L 112.726562 89.242188 L 112.726562 93.9375 L 108.03125 93.9375 Z M 108.03125 89.242188 "/>
        <path style=" stroke:none;fill-rule:nonzero;fill:rgb(0%,0%,0%);fill-opacity:1;"
              d="M 112.726562 89.242188 L 117.425781 89.242188 L 117.425781 93.9375 L 112.726562 93.9375 Z M 112.726562 89.242188 "/>
        <path style=" stroke:none;fill-rule:nonzero;fill:rgb(0%,0%,0%);fill-opacity:1;"
              d="M 117.425781 89.242188 L 122.121094 89.242188 L 122.121094 93.9375 L 117.425781 93.9375 Z M 117.425781 89.242188 "/>
        <path style=" stroke:none;fill-rule:nonzero;fill:rgb(0%,0%,0%);fill-opacity:1;"
              d="M 126.816406 89.242188 L 131.515625 89.242188 L 131.515625 93.9375 L 126.816406 93.9375 Z M 126.816406 89.242188 "/>
        <path style=" stroke:none;fill-rule:nonzero;fill:rgb(0%,0%,0%);fill-opacity:1;"
              d="M 140.910156 89.242188 L 145.605469 89.242188 L 145.605469 93.9375 L 140.910156 93.9375 Z M 140.910156 89.242188 "/>
        <path style=" stroke:none;fill-rule:nonzero;fill:rgb(0%,0%,0%);fill-opacity:1;"
              d="M 9.394531 93.9375 L 14.089844 93.9375 L 14.089844 98.636719 L 9.394531 98.636719 Z M 9.394531 93.9375 "/>
        <path style=" stroke:none;fill-rule:nonzero;fill:rgb(0%,0%,0%);fill-opacity:1;"
              d="M 18.789062 93.9375 L 23.484375 93.9375 L 23.484375 98.636719 L 18.789062 98.636719 Z M 18.789062 93.9375 "/>
        <path style=" stroke:none;fill-rule:nonzero;fill:rgb(0%,0%,0%);fill-opacity:1;"
              d="M 23.484375 93.9375 L 28.183594 93.9375 L 28.183594 98.636719 L 23.484375 98.636719 Z M 23.484375 93.9375 "/>
        <path style=" stroke:none;fill-rule:nonzero;fill:rgb(0%,0%,0%);fill-opacity:1;"
              d="M 28.183594 93.9375 L 32.878906 93.9375 L 32.878906 98.636719 L 28.183594 98.636719 Z M 28.183594 93.9375 "/>
        <path style=" stroke:none;fill-rule:nonzero;fill:rgb(0%,0%,0%);fill-opacity:1;"
              d="M 32.878906 93.9375 L 37.574219 93.9375 L 37.574219 98.636719 L 32.878906 98.636719 Z M 32.878906 93.9375 "/>
        <path style=" stroke:none;fill-rule:nonzero;fill:rgb(0%,0%,0%);fill-opacity:1;"
              d="M 37.574219 93.9375 L 42.273438 93.9375 L 42.273438 98.636719 L 37.574219 98.636719 Z M 37.574219 93.9375 "/>
        <path style=" stroke:none;fill-rule:nonzero;fill:rgb(0%,0%,0%);fill-opacity:1;"
              d="M 51.667969 93.9375 L 56.363281 93.9375 L 56.363281 98.636719 L 51.667969 98.636719 Z M 51.667969 93.9375 "/>
        <path style=" stroke:none;fill-rule:nonzero;fill:rgb(0%,0%,0%);fill-opacity:1;"
              d="M 61.0625 93.9375 L 65.757812 93.9375 L 65.757812 98.636719 L 61.0625 98.636719 Z M 61.0625 93.9375 "/>
        <path style=" stroke:none;fill-rule:nonzero;fill:rgb(0%,0%,0%);fill-opacity:1;"
              d="M 65.757812 93.9375 L 70.453125 93.9375 L 70.453125 98.636719 L 65.757812 98.636719 Z M 65.757812 93.9375 "/>
        <path style=" stroke:none;fill-rule:nonzero;fill:rgb(0%,0%,0%);fill-opacity:1;"
              d="M 75.152344 93.9375 L 79.847656 93.9375 L 79.847656 98.636719 L 75.152344 98.636719 Z M 75.152344 93.9375 "/>
        <path style=" stroke:none;fill-rule:nonzero;fill:rgb(0%,0%,0%);fill-opacity:1;"
              d="M 84.546875 93.9375 L 89.242188 93.9375 L 89.242188 98.636719 L 84.546875 98.636719 Z M 84.546875 93.9375 "/>
        <path style=" stroke:none;fill-rule:nonzero;fill:rgb(0%,0%,0%);fill-opacity:1;"
              d="M 103.332031 93.9375 L 108.03125 93.9375 L 108.03125 98.636719 L 103.332031 98.636719 Z M 103.332031 93.9375 "/>
        <path style=" stroke:none;fill-rule:nonzero;fill:rgb(0%,0%,0%);fill-opacity:1;"
              d="M 108.03125 93.9375 L 112.726562 93.9375 L 112.726562 98.636719 L 108.03125 98.636719 Z M 108.03125 93.9375 "/>
        <path style=" stroke:none;fill-rule:nonzero;fill:rgb(0%,0%,0%);fill-opacity:1;"
              d="M 117.425781 93.9375 L 122.121094 93.9375 L 122.121094 98.636719 L 117.425781 98.636719 Z M 117.425781 93.9375 "/>
        <path style=" stroke:none;fill-rule:nonzero;fill:rgb(0%,0%,0%);fill-opacity:1;"
              d="M 122.121094 93.9375 L 126.816406 93.9375 L 126.816406 98.636719 L 122.121094 98.636719 Z M 122.121094 93.9375 "/>
        <path style=" stroke:none;fill-rule:nonzero;fill:rgb(0%,0%,0%);fill-opacity:1;"
              d="M 136.210938 93.9375 L 140.910156 93.9375 L 140.910156 98.636719 L 136.210938 98.636719 Z M 136.210938 93.9375 "/>
        <path style=" stroke:none;fill-rule:nonzero;fill:rgb(0%,0%,0%);fill-opacity:1;"
              d="M 140.910156 93.9375 L 145.605469 93.9375 L 145.605469 98.636719 L 140.910156 98.636719 Z M 140.910156 93.9375 "/>
        <path style=" stroke:none;fill-rule:nonzero;fill:rgb(0%,0%,0%);fill-opacity:1;"
              d="M 32.878906 98.636719 L 37.574219 98.636719 L 37.574219 103.332031 L 32.878906 103.332031 Z M 32.878906 98.636719 "/>
        <path style=" stroke:none;fill-rule:nonzero;fill:rgb(0%,0%,0%);fill-opacity:1;"
              d="M 61.0625 98.636719 L 65.757812 98.636719 L 65.757812 103.332031 L 61.0625 103.332031 Z M 61.0625 98.636719 "/>
        <path style=" stroke:none;fill-rule:nonzero;fill:rgb(0%,0%,0%);fill-opacity:1;"
              d="M 75.152344 98.636719 L 79.847656 98.636719 L 79.847656 103.332031 L 75.152344 103.332031 Z M 75.152344 98.636719 "/>
        <path style=" stroke:none;fill-rule:nonzero;fill:rgb(0%,0%,0%);fill-opacity:1;"
              d="M 84.546875 98.636719 L 89.242188 98.636719 L 89.242188 103.332031 L 84.546875 103.332031 Z M 84.546875 98.636719 "/>
        <path style=" stroke:none;fill-rule:nonzero;fill:rgb(0%,0%,0%);fill-opacity:1;"
              d="M 89.242188 98.636719 L 93.9375 98.636719 L 93.9375 103.332031 L 89.242188 103.332031 Z M 89.242188 98.636719 "/>
        <path style=" stroke:none;fill-rule:nonzero;fill:rgb(0%,0%,0%);fill-opacity:1;"
              d="M 93.9375 98.636719 L 98.636719 98.636719 L 98.636719 103.332031 L 93.9375 103.332031 Z M 93.9375 98.636719 "/>
        <path style=" stroke:none;fill-rule:nonzero;fill:rgb(0%,0%,0%);fill-opacity:1;"
              d="M 98.636719 98.636719 L 103.332031 98.636719 L 103.332031 103.332031 L 98.636719 103.332031 Z M 98.636719 98.636719 "/>
        <path style=" stroke:none;fill-rule:nonzero;fill:rgb(0%,0%,0%);fill-opacity:1;"
              d="M 108.03125 98.636719 L 112.726562 98.636719 L 112.726562 103.332031 L 108.03125 103.332031 Z M 108.03125 98.636719 "/>
        <path style=" stroke:none;fill-rule:nonzero;fill:rgb(0%,0%,0%);fill-opacity:1;"
              d="M 117.425781 98.636719 L 122.121094 98.636719 L 122.121094 103.332031 L 117.425781 103.332031 Z M 117.425781 98.636719 "/>
        <path style=" stroke:none;fill-rule:nonzero;fill:rgb(0%,0%,0%);fill-opacity:1;"
              d="M 136.210938 98.636719 L 140.910156 98.636719 L 140.910156 103.332031 L 136.210938 103.332031 Z M 136.210938 98.636719 "/>
        <path style=" stroke:none;fill-rule:nonzero;fill:rgb(0%,0%,0%);fill-opacity:1;"
              d="M 140.910156 98.636719 L 145.605469 98.636719 L 145.605469 103.332031 L 140.910156 103.332031 Z M 140.910156 98.636719 "/>
        <path style=" stroke:none;fill-rule:nonzero;fill:rgb(0%,0%,0%);fill-opacity:1;"
              d="M 9.394531 103.332031 L 14.089844 103.332031 L 14.089844 108.03125 L 9.394531 108.03125 Z M 9.394531 103.332031 "/>
        <path style=" stroke:none;fill-rule:nonzero;fill:rgb(0%,0%,0%);fill-opacity:1;"
              d="M 18.789062 103.332031 L 23.484375 103.332031 L 23.484375 108.03125 L 18.789062 108.03125 Z M 18.789062 103.332031 "/>
        <path style=" stroke:none;fill-rule:nonzero;fill:rgb(0%,0%,0%);fill-opacity:1;"
              d="M 23.484375 103.332031 L 28.183594 103.332031 L 28.183594 108.03125 L 23.484375 108.03125 Z M 23.484375 103.332031 "/>
        <path style=" stroke:none;fill-rule:nonzero;fill:rgb(0%,0%,0%);fill-opacity:1;"
              d="M 28.183594 103.332031 L 32.878906 103.332031 L 32.878906 108.03125 L 28.183594 108.03125 Z M 28.183594 103.332031 "/>
        <path style=" stroke:none;fill-rule:nonzero;fill:rgb(0%,0%,0%);fill-opacity:1;"
              d="M 32.878906 103.332031 L 37.574219 103.332031 L 37.574219 108.03125 L 32.878906 108.03125 Z M 32.878906 103.332031 "/>
        <path style=" stroke:none;fill-rule:nonzero;fill:rgb(0%,0%,0%);fill-opacity:1;"
              d="M 37.574219 103.332031 L 42.273438 103.332031 L 42.273438 108.03125 L 37.574219 108.03125 Z M 37.574219 103.332031 "/>
        <path style=" stroke:none;fill-rule:nonzero;fill:rgb(0%,0%,0%);fill-opacity:1;"
              d="M 42.273438 103.332031 L 46.96875 103.332031 L 46.96875 108.03125 L 42.273438 108.03125 Z M 42.273438 103.332031 "/>
        <path style=" stroke:none;fill-rule:nonzero;fill:rgb(0%,0%,0%);fill-opacity:1;"
              d="M 46.96875 103.332031 L 51.667969 103.332031 L 51.667969 108.03125 L 46.96875 108.03125 Z M 46.96875 103.332031 "/>
        <path style=" stroke:none;fill-rule:nonzero;fill:rgb(0%,0%,0%);fill-opacity:1;"
              d="M 51.667969 103.332031 L 56.363281 103.332031 L 56.363281 108.03125 L 51.667969 108.03125 Z M 51.667969 103.332031 "/>
        <path style=" stroke:none;fill-rule:nonzero;fill:rgb(0%,0%,0%);fill-opacity:1;"
              d="M 56.363281 103.332031 L 61.0625 103.332031 L 61.0625 108.03125 L 56.363281 108.03125 Z M 56.363281 103.332031 "/>
        <path style=" stroke:none;fill-rule:nonzero;fill:rgb(0%,0%,0%);fill-opacity:1;"
              d="M 84.546875 103.332031 L 89.242188 103.332031 L 89.242188 108.03125 L 84.546875 108.03125 Z M 84.546875 103.332031 "/>
        <path style=" stroke:none;fill-rule:nonzero;fill:rgb(0%,0%,0%);fill-opacity:1;"
              d="M 93.9375 103.332031 L 98.636719 103.332031 L 98.636719 108.03125 L 93.9375 108.03125 Z M 93.9375 103.332031 "/>
        <path style=" stroke:none;fill-rule:nonzero;fill:rgb(0%,0%,0%);fill-opacity:1;"
              d="M 103.332031 103.332031 L 108.03125 103.332031 L 108.03125 108.03125 L 103.332031 108.03125 Z M 103.332031 103.332031 "/>
        <path style=" stroke:none;fill-rule:nonzero;fill:rgb(0%,0%,0%);fill-opacity:1;"
              d="M 108.03125 103.332031 L 112.726562 103.332031 L 112.726562 108.03125 L 108.03125 108.03125 Z M 108.03125 103.332031 "/>
        <path style=" stroke:none;fill-rule:nonzero;fill:rgb(0%,0%,0%);fill-opacity:1;"
              d="M 112.726562 103.332031 L 117.425781 103.332031 L 117.425781 108.03125 L 112.726562 108.03125 Z M 112.726562 103.332031 "/>
        <path style=" stroke:none;fill-rule:nonzero;fill:rgb(0%,0%,0%);fill-opacity:1;"
              d="M 117.425781 103.332031 L 122.121094 103.332031 L 122.121094 108.03125 L 117.425781 108.03125 Z M 117.425781 103.332031 "/>
        <path style=" stroke:none;fill-rule:nonzero;fill:rgb(0%,0%,0%);fill-opacity:1;"
              d="M 122.121094 103.332031 L 126.816406 103.332031 L 126.816406 108.03125 L 122.121094 108.03125 Z M 122.121094 103.332031 "/>
        <path style=" stroke:none;fill-rule:nonzero;fill:rgb(0%,0%,0%);fill-opacity:1;"
              d="M 131.515625 103.332031 L 136.210938 103.332031 L 136.210938 108.03125 L 131.515625 108.03125 Z M 131.515625 103.332031 "/>
        <path style=" stroke:none;fill-rule:nonzero;fill:rgb(0%,0%,0%);fill-opacity:1;"
              d="M 46.96875 108.03125 L 51.667969 108.03125 L 51.667969 112.726562 L 46.96875 112.726562 Z M 46.96875 108.03125 "/>
        <path style=" stroke:none;fill-rule:nonzero;fill:rgb(0%,0%,0%);fill-opacity:1;"
              d="M 56.363281 108.03125 L 61.0625 108.03125 L 61.0625 112.726562 L 56.363281 112.726562 Z M 56.363281 108.03125 "/>
        <path style=" stroke:none;fill-rule:nonzero;fill:rgb(0%,0%,0%);fill-opacity:1;"
              d="M 75.152344 108.03125 L 79.847656 108.03125 L 79.847656 112.726562 L 75.152344 112.726562 Z M 75.152344 108.03125 "/>
        <path style=" stroke:none;fill-rule:nonzero;fill:rgb(0%,0%,0%);fill-opacity:1;"
              d="M 84.546875 108.03125 L 89.242188 108.03125 L 89.242188 112.726562 L 84.546875 112.726562 Z M 84.546875 108.03125 "/>
        <path style=" stroke:none;fill-rule:nonzero;fill:rgb(0%,0%,0%);fill-opacity:1;"
              d="M 89.242188 108.03125 L 93.9375 108.03125 L 93.9375 112.726562 L 89.242188 112.726562 Z M 89.242188 108.03125 "/>
        <path style=" stroke:none;fill-rule:nonzero;fill:rgb(0%,0%,0%);fill-opacity:1;"
              d="M 93.9375 108.03125 L 98.636719 108.03125 L 98.636719 112.726562 L 93.9375 112.726562 Z M 93.9375 108.03125 "/>
        <path style=" stroke:none;fill-rule:nonzero;fill:rgb(0%,0%,0%);fill-opacity:1;"
              d="M 98.636719 108.03125 L 103.332031 108.03125 L 103.332031 112.726562 L 98.636719 112.726562 Z M 98.636719 108.03125 "/>
        <path style=" stroke:none;fill-rule:nonzero;fill:rgb(0%,0%,0%);fill-opacity:1;"
              d="M 103.332031 108.03125 L 108.03125 108.03125 L 108.03125 112.726562 L 103.332031 112.726562 Z M 103.332031 108.03125 "/>
        <path style=" stroke:none;fill-rule:nonzero;fill:rgb(0%,0%,0%);fill-opacity:1;"
              d="M 122.121094 108.03125 L 126.816406 108.03125 L 126.816406 112.726562 L 122.121094 112.726562 Z M 122.121094 108.03125 "/>
        <path style=" stroke:none;fill-rule:nonzero;fill:rgb(0%,0%,0%);fill-opacity:1;"
              d="M 131.515625 108.03125 L 136.210938 108.03125 L 136.210938 112.726562 L 131.515625 112.726562 Z M 131.515625 108.03125 "/>
        <path style=" stroke:none;fill-rule:nonzero;fill:rgb(0%,0%,0%);fill-opacity:1;"
              d="M 136.210938 108.03125 L 140.910156 108.03125 L 140.910156 112.726562 L 136.210938 112.726562 Z M 136.210938 108.03125 "/>
        <path style=" stroke:none;fill-rule:nonzero;fill:rgb(0%,0%,0%);fill-opacity:1;"
              d="M 140.910156 108.03125 L 145.605469 108.03125 L 145.605469 112.726562 L 140.910156 112.726562 Z M 140.910156 108.03125 "/>
        <path style=" stroke:none;fill-rule:nonzero;fill:rgb(0%,0%,0%);fill-opacity:1;"
              d="M 56.363281 112.726562 L 61.0625 112.726562 L 61.0625 117.425781 L 56.363281 117.425781 Z M 56.363281 112.726562 "/>
        <path style=" stroke:none;fill-rule:nonzero;fill:rgb(0%,0%,0%);fill-opacity:1;"
              d="M 61.0625 112.726562 L 65.757812 112.726562 L 65.757812 117.425781 L 61.0625 117.425781 Z M 61.0625 112.726562 "/>
        <path style=" stroke:none;fill-rule:nonzero;fill:rgb(0%,0%,0%);fill-opacity:1;"
              d="M 65.757812 112.726562 L 70.453125 112.726562 L 70.453125 117.425781 L 65.757812 117.425781 Z M 65.757812 112.726562 "/>
        <path style=" stroke:none;fill-rule:nonzero;fill:rgb(0%,0%,0%);fill-opacity:1;"
              d="M 89.242188 112.726562 L 93.9375 112.726562 L 93.9375 117.425781 L 89.242188 117.425781 Z M 89.242188 112.726562 "/>
        <path style=" stroke:none;fill-rule:nonzero;fill:rgb(0%,0%,0%);fill-opacity:1;"
              d="M 93.9375 112.726562 L 98.636719 112.726562 L 98.636719 117.425781 L 93.9375 117.425781 Z M 93.9375 112.726562 "/>
        <path style=" stroke:none;fill-rule:nonzero;fill:rgb(0%,0%,0%);fill-opacity:1;"
              d="M 103.332031 112.726562 L 108.03125 112.726562 L 108.03125 117.425781 L 103.332031 117.425781 Z M 103.332031 112.726562 "/>
        <path style=" stroke:none;fill-rule:nonzero;fill:rgb(0%,0%,0%);fill-opacity:1;"
              d="M 112.726562 112.726562 L 117.425781 112.726562 L 117.425781 117.425781 L 112.726562 117.425781 Z M 112.726562 112.726562 "/>
        <path style=" stroke:none;fill-rule:nonzero;fill:rgb(0%,0%,0%);fill-opacity:1;"
              d="M 122.121094 112.726562 L 126.816406 112.726562 L 126.816406 117.425781 L 122.121094 117.425781 Z M 122.121094 112.726562 "/>
        <path style=" stroke:none;fill-rule:nonzero;fill:rgb(0%,0%,0%);fill-opacity:1;"
              d="M 136.210938 112.726562 L 140.910156 112.726562 L 140.910156 117.425781 L 136.210938 117.425781 Z M 136.210938 112.726562 "/>
        <path style=" stroke:none;fill-rule:nonzero;fill:rgb(0%,0%,0%);fill-opacity:1;"
              d="M 46.96875 117.425781 L 51.667969 117.425781 L 51.667969 122.121094 L 46.96875 122.121094 Z M 46.96875 117.425781 "/>
        <path style=" stroke:none;fill-rule:nonzero;fill:rgb(0%,0%,0%);fill-opacity:1;"
              d="M 51.667969 117.425781 L 56.363281 117.425781 L 56.363281 122.121094 L 51.667969 122.121094 Z M 51.667969 117.425781 "/>
        <path style=" stroke:none;fill-rule:nonzero;fill:rgb(0%,0%,0%);fill-opacity:1;"
              d="M 56.363281 117.425781 L 61.0625 117.425781 L 61.0625 122.121094 L 56.363281 122.121094 Z M 56.363281 117.425781 "/>
        <path style=" stroke:none;fill-rule:nonzero;fill:rgb(0%,0%,0%);fill-opacity:1;"
              d="M 61.0625 117.425781 L 65.757812 117.425781 L 65.757812 122.121094 L 61.0625 122.121094 Z M 61.0625 117.425781 "/>
        <path style=" stroke:none;fill-rule:nonzero;fill:rgb(0%,0%,0%);fill-opacity:1;"
              d="M 75.152344 117.425781 L 79.847656 117.425781 L 79.847656 122.121094 L 75.152344 122.121094 Z M 75.152344 117.425781 "/>
        <path style=" stroke:none;fill-rule:nonzero;fill:rgb(0%,0%,0%);fill-opacity:1;"
              d="M 93.9375 117.425781 L 98.636719 117.425781 L 98.636719 122.121094 L 93.9375 122.121094 Z M 93.9375 117.425781 "/>
        <path style=" stroke:none;fill-rule:nonzero;fill:rgb(0%,0%,0%);fill-opacity:1;"
              d="M 103.332031 117.425781 L 108.03125 117.425781 L 108.03125 122.121094 L 103.332031 122.121094 Z M 103.332031 117.425781 "/>
        <path style=" stroke:none;fill-rule:nonzero;fill:rgb(0%,0%,0%);fill-opacity:1;"
              d="M 122.121094 117.425781 L 126.816406 117.425781 L 126.816406 122.121094 L 122.121094 122.121094 Z M 122.121094 117.425781 "/>
        <path style=" stroke:none;fill-rule:nonzero;fill:rgb(0%,0%,0%);fill-opacity:1;"
              d="M 126.816406 117.425781 L 131.515625 117.425781 L 131.515625 122.121094 L 126.816406 122.121094 Z M 126.816406 117.425781 "/>
        <path style=" stroke:none;fill-rule:nonzero;fill:rgb(0%,0%,0%);fill-opacity:1;"
              d="M 131.515625 117.425781 L 136.210938 117.425781 L 136.210938 122.121094 L 131.515625 122.121094 Z M 131.515625 117.425781 "/>
        <path style=" stroke:none;fill-rule:nonzero;fill:rgb(0%,0%,0%);fill-opacity:1;"
              d="M 56.363281 122.121094 L 61.0625 122.121094 L 61.0625 126.816406 L 56.363281 126.816406 Z M 56.363281 122.121094 "/>
        <path style=" stroke:none;fill-rule:nonzero;fill:rgb(0%,0%,0%);fill-opacity:1;"
              d="M 61.0625 122.121094 L 65.757812 122.121094 L 65.757812 126.816406 L 61.0625 126.816406 Z M 61.0625 122.121094 "/>
        <path style=" stroke:none;fill-rule:nonzero;fill:rgb(0%,0%,0%);fill-opacity:1;"
              d="M 79.847656 122.121094 L 84.546875 122.121094 L 84.546875 126.816406 L 79.847656 126.816406 Z M 79.847656 122.121094 "/>
        <path style=" stroke:none;fill-rule:nonzero;fill:rgb(0%,0%,0%);fill-opacity:1;"
              d="M 84.546875 122.121094 L 89.242188 122.121094 L 89.242188 126.816406 L 84.546875 126.816406 Z M 84.546875 122.121094 "/>
        <path style=" stroke:none;fill-rule:nonzero;fill:rgb(0%,0%,0%);fill-opacity:1;"
              d="M 89.242188 122.121094 L 93.9375 122.121094 L 93.9375 126.816406 L 89.242188 126.816406 Z M 89.242188 122.121094 "/>
        <path style=" stroke:none;fill-rule:nonzero;fill:rgb(0%,0%,0%);fill-opacity:1;"
              d="M 103.332031 122.121094 L 108.03125 122.121094 L 108.03125 126.816406 L 103.332031 126.816406 Z M 103.332031 122.121094 "/>
        <path style=" stroke:none;fill-rule:nonzero;fill:rgb(0%,0%,0%);fill-opacity:1;"
              d="M 108.03125 122.121094 L 112.726562 122.121094 L 112.726562 126.816406 L 108.03125 126.816406 Z M 108.03125 122.121094 "/>
        <path style=" stroke:none;fill-rule:nonzero;fill:rgb(0%,0%,0%);fill-opacity:1;"
              d="M 112.726562 122.121094 L 117.425781 122.121094 L 117.425781 126.816406 L 112.726562 126.816406 Z M 112.726562 122.121094 "/>
        <path style=" stroke:none;fill-rule:nonzero;fill:rgb(0%,0%,0%);fill-opacity:1;"
              d="M 117.425781 122.121094 L 122.121094 122.121094 L 122.121094 126.816406 L 117.425781 126.816406 Z M 117.425781 122.121094 "/>
        <path style=" stroke:none;fill-rule:nonzero;fill:rgb(0%,0%,0%);fill-opacity:1;"
              d="M 122.121094 122.121094 L 126.816406 122.121094 L 126.816406 126.816406 L 122.121094 126.816406 Z M 122.121094 122.121094 "/>
        <path style=" stroke:none;fill-rule:nonzero;fill:rgb(0%,0%,0%);fill-opacity:1;"
              d="M 140.910156 122.121094 L 145.605469 122.121094 L 145.605469 126.816406 L 140.910156 126.816406 Z M 140.910156 122.121094 "/>
        <path style=" stroke:none;fill-rule:nonzero;fill:rgb(0%,0%,0%);fill-opacity:1;"
              d="M 46.96875 126.816406 L 51.667969 126.816406 L 51.667969 131.515625 L 46.96875 131.515625 Z M 46.96875 126.816406 "/>
        <path style=" stroke:none;fill-rule:nonzero;fill:rgb(0%,0%,0%);fill-opacity:1;"
              d="M 51.667969 126.816406 L 56.363281 126.816406 L 56.363281 131.515625 L 51.667969 131.515625 Z M 51.667969 126.816406 "/>
        <path style=" stroke:none;fill-rule:nonzero;fill:rgb(0%,0%,0%);fill-opacity:1;"
              d="M 61.0625 126.816406 L 65.757812 126.816406 L 65.757812 131.515625 L 61.0625 131.515625 Z M 61.0625 126.816406 "/>
        <path style=" stroke:none;fill-rule:nonzero;fill:rgb(0%,0%,0%);fill-opacity:1;"
              d="M 65.757812 126.816406 L 70.453125 126.816406 L 70.453125 131.515625 L 65.757812 131.515625 Z M 65.757812 126.816406 "/>
        <path style=" stroke:none;fill-rule:nonzero;fill:rgb(0%,0%,0%);fill-opacity:1;"
              d="M 89.242188 126.816406 L 93.9375 126.816406 L 93.9375 131.515625 L 89.242188 131.515625 Z M 89.242188 126.816406 "/>
        <path style=" stroke:none;fill-rule:nonzero;fill:rgb(0%,0%,0%);fill-opacity:1;"
              d="M 93.9375 126.816406 L 98.636719 126.816406 L 98.636719 131.515625 L 93.9375 131.515625 Z M 93.9375 126.816406 "/>
        <path style=" stroke:none;fill-rule:nonzero;fill:rgb(0%,0%,0%);fill-opacity:1;"
              d="M 103.332031 126.816406 L 108.03125 126.816406 L 108.03125 131.515625 L 103.332031 131.515625 Z M 103.332031 126.816406 "/>
        <path style=" stroke:none;fill-rule:nonzero;fill:rgb(0%,0%,0%);fill-opacity:1;"
              d="M 112.726562 126.816406 L 117.425781 126.816406 L 117.425781 131.515625 L 112.726562 131.515625 Z M 112.726562 126.816406 "/>
        <path style=" stroke:none;fill-rule:nonzero;fill:rgb(0%,0%,0%);fill-opacity:1;"
              d="M 117.425781 126.816406 L 122.121094 126.816406 L 122.121094 131.515625 L 117.425781 131.515625 Z M 117.425781 126.816406 "/>
        <path style=" stroke:none;fill-rule:nonzero;fill:rgb(0%,0%,0%);fill-opacity:1;"
              d="M 122.121094 126.816406 L 126.816406 126.816406 L 126.816406 131.515625 L 122.121094 131.515625 Z M 122.121094 126.816406 "/>
        <path style=" stroke:none;fill-rule:nonzero;fill:rgb(0%,0%,0%);fill-opacity:1;"
              d="M 126.816406 126.816406 L 131.515625 126.816406 L 131.515625 131.515625 L 126.816406 131.515625 Z M 126.816406 126.816406 "/>
        <path style=" stroke:none;fill-rule:nonzero;fill:rgb(0%,0%,0%);fill-opacity:1;"
              d="M 131.515625 126.816406 L 136.210938 126.816406 L 136.210938 131.515625 L 131.515625 131.515625 Z M 131.515625 126.816406 "/>
        <path style=" stroke:none;fill-rule:nonzero;fill:rgb(0%,0%,0%);fill-opacity:1;"
              d="M 136.210938 126.816406 L 140.910156 126.816406 L 140.910156 131.515625 L 136.210938 131.515625 Z M 136.210938 126.816406 "/>
        <path style=" stroke:none;fill-rule:nonzero;fill:rgb(0%,0%,0%);fill-opacity:1;"
              d="M 51.667969 131.515625 L 56.363281 131.515625 L 56.363281 136.210938 L 51.667969 136.210938 Z M 51.667969 131.515625 "/>
        <path style=" stroke:none;fill-rule:nonzero;fill:rgb(0%,0%,0%);fill-opacity:1;"
              d="M 56.363281 131.515625 L 61.0625 131.515625 L 61.0625 136.210938 L 56.363281 136.210938 Z M 56.363281 131.515625 "/>
        <path style=" stroke:none;fill-rule:nonzero;fill:rgb(0%,0%,0%);fill-opacity:1;"
              d="M 65.757812 131.515625 L 70.453125 131.515625 L 70.453125 136.210938 L 65.757812 136.210938 Z M 65.757812 131.515625 "/>
        <path style=" stroke:none;fill-rule:nonzero;fill:rgb(0%,0%,0%);fill-opacity:1;"
              d="M 75.152344 131.515625 L 79.847656 131.515625 L 79.847656 136.210938 L 75.152344 136.210938 Z M 75.152344 131.515625 "/>
        <path style=" stroke:none;fill-rule:nonzero;fill:rgb(0%,0%,0%);fill-opacity:1;"
              d="M 84.546875 131.515625 L 89.242188 131.515625 L 89.242188 136.210938 L 84.546875 136.210938 Z M 84.546875 131.515625 "/>
        <path style=" stroke:none;fill-rule:nonzero;fill:rgb(0%,0%,0%);fill-opacity:1;"
              d="M 98.636719 131.515625 L 103.332031 131.515625 L 103.332031 136.210938 L 98.636719 136.210938 Z M 98.636719 131.515625 "/>
        <path style=" stroke:none;fill-rule:nonzero;fill:rgb(0%,0%,0%);fill-opacity:1;"
              d="M 103.332031 131.515625 L 108.03125 131.515625 L 108.03125 136.210938 L 103.332031 136.210938 Z M 103.332031 131.515625 "/>
        <path style=" stroke:none;fill-rule:nonzero;fill:rgb(0%,0%,0%);fill-opacity:1;"
              d="M 122.121094 131.515625 L 126.816406 131.515625 L 126.816406 136.210938 L 122.121094 136.210938 Z M 122.121094 131.515625 "/>
        <path style=" stroke:none;fill-rule:nonzero;fill:rgb(0%,0%,0%);fill-opacity:1;"
              d="M 126.816406 131.515625 L 131.515625 131.515625 L 131.515625 136.210938 L 126.816406 136.210938 Z M 126.816406 131.515625 "/>
        <path style=" stroke:none;fill-rule:nonzero;fill:rgb(0%,0%,0%);fill-opacity:1;"
              d="M 131.515625 131.515625 L 136.210938 131.515625 L 136.210938 136.210938 L 131.515625 136.210938 Z M 131.515625 131.515625 "/>
        <path style=" stroke:none;fill-rule:nonzero;fill:rgb(0%,0%,0%);fill-opacity:1;"
              d="M 140.910156 131.515625 L 145.605469 131.515625 L 145.605469 136.210938 L 140.910156 136.210938 Z M 140.910156 131.515625 "/>
        <path style=" stroke:none;fill-rule:nonzero;fill:rgb(0%,0%,0%);fill-opacity:1;"
              d="M 56.363281 136.210938 L 61.0625 136.210938 L 61.0625 140.910156 L 56.363281 140.910156 Z M 56.363281 136.210938 "/>
        <path style=" stroke:none;fill-rule:nonzero;fill:rgb(0%,0%,0%);fill-opacity:1;"
              d="M 65.757812 136.210938 L 70.453125 136.210938 L 70.453125 140.910156 L 65.757812 140.910156 Z M 65.757812 136.210938 "/>
        <path style=" stroke:none;fill-rule:nonzero;fill:rgb(0%,0%,0%);fill-opacity:1;"
              d="M 70.453125 136.210938 L 75.152344 136.210938 L 75.152344 140.910156 L 70.453125 140.910156 Z M 70.453125 136.210938 "/>
        <path style=" stroke:none;fill-rule:nonzero;fill:rgb(0%,0%,0%);fill-opacity:1;"
              d="M 79.847656 136.210938 L 84.546875 136.210938 L 84.546875 140.910156 L 79.847656 140.910156 Z M 79.847656 136.210938 "/>
        <path style=" stroke:none;fill-rule:nonzero;fill:rgb(0%,0%,0%);fill-opacity:1;"
              d="M 84.546875 136.210938 L 89.242188 136.210938 L 89.242188 140.910156 L 84.546875 140.910156 Z M 84.546875 136.210938 "/>
        <path style=" stroke:none;fill-rule:nonzero;fill:rgb(0%,0%,0%);fill-opacity:1;"
              d="M 89.242188 136.210938 L 93.9375 136.210938 L 93.9375 140.910156 L 89.242188 140.910156 Z M 89.242188 136.210938 "/>
        <path style=" stroke:none;fill-rule:nonzero;fill:rgb(0%,0%,0%);fill-opacity:1;"
              d="M 93.9375 136.210938 L 98.636719 136.210938 L 98.636719 140.910156 L 93.9375 140.910156 Z M 93.9375 136.210938 "/>
        <path style=" stroke:none;fill-rule:nonzero;fill:rgb(0%,0%,0%);fill-opacity:1;"
              d="M 98.636719 136.210938 L 103.332031 136.210938 L 103.332031 140.910156 L 98.636719 140.910156 Z M 98.636719 136.210938 "/>
        <path style=" stroke:none;fill-rule:nonzero;fill:rgb(0%,0%,0%);fill-opacity:1;"
              d="M 103.332031 136.210938 L 108.03125 136.210938 L 108.03125 140.910156 L 103.332031 140.910156 Z M 103.332031 136.210938 "/>
        <path style=" stroke:none;fill-rule:nonzero;fill:rgb(0%,0%,0%);fill-opacity:1;"
              d="M 108.03125 136.210938 L 112.726562 136.210938 L 112.726562 140.910156 L 108.03125 140.910156 Z M 108.03125 136.210938 "/>
        <path style=" stroke:none;fill-rule:nonzero;fill:rgb(0%,0%,0%);fill-opacity:1;"
              d="M 112.726562 136.210938 L 117.425781 136.210938 L 117.425781 140.910156 L 112.726562 140.910156 Z M 112.726562 136.210938 "/>
        <path style=" stroke:none;fill-rule:nonzero;fill:rgb(0%,0%,0%);fill-opacity:1;"
              d="M 117.425781 136.210938 L 122.121094 136.210938 L 122.121094 140.910156 L 117.425781 140.910156 Z M 117.425781 136.210938 "/>
        <path style=" stroke:none;fill-rule:nonzero;fill:rgb(0%,0%,0%);fill-opacity:1;"
              d="M 136.210938 136.210938 L 140.910156 136.210938 L 140.910156 140.910156 L 136.210938 140.910156 Z M 136.210938 136.210938 "/>
        <path style=" stroke:none;fill-rule:nonzero;fill:rgb(0%,0%,0%);fill-opacity:1;"
              d="M 46.96875 140.910156 L 51.667969 140.910156 L 51.667969 145.605469 L 46.96875 145.605469 Z M 46.96875 140.910156 "/>
        <path style=" stroke:none;fill-rule:nonzero;fill:rgb(0%,0%,0%);fill-opacity:1;"
              d="M 56.363281 140.910156 L 61.0625 140.910156 L 61.0625 145.605469 L 56.363281 145.605469 Z M 56.363281 140.910156 "/>
        <path style=" stroke:none;fill-rule:nonzero;fill:rgb(0%,0%,0%);fill-opacity:1;"
              d="M 61.0625 140.910156 L 65.757812 140.910156 L 65.757812 145.605469 L 61.0625 145.605469 Z M 61.0625 140.910156 "/>
        <path style=" stroke:none;fill-rule:nonzero;fill:rgb(0%,0%,0%);fill-opacity:1;"
              d="M 70.453125 140.910156 L 75.152344 140.910156 L 75.152344 145.605469 L 70.453125 145.605469 Z M 70.453125 140.910156 "/>
        <path style=" stroke:none;fill-rule:nonzero;fill:rgb(0%,0%,0%);fill-opacity:1;"
              d="M 75.152344 140.910156 L 79.847656 140.910156 L 79.847656 145.605469 L 75.152344 145.605469 Z M 75.152344 140.910156 "/>
        <path style=" stroke:none;fill-rule:nonzero;fill:rgb(0%,0%,0%);fill-opacity:1;"
              d="M 79.847656 140.910156 L 84.546875 140.910156 L 84.546875 145.605469 L 79.847656 145.605469 Z M 79.847656 140.910156 "/>
        <path style=" stroke:none;fill-rule:nonzero;fill:rgb(0%,0%,0%);fill-opacity:1;"
              d="M 89.242188 140.910156 L 93.9375 140.910156 L 93.9375 145.605469 L 89.242188 145.605469 Z M 89.242188 140.910156 "/>
        <path style=" stroke:none;fill-rule:nonzero;fill:rgb(0%,0%,0%);fill-opacity:1;"
              d="M 98.636719 140.910156 L 103.332031 140.910156 L 103.332031 145.605469 L 98.636719 145.605469 Z M 98.636719 140.910156 "/>
        <path style=" stroke:none;fill-rule:nonzero;fill:rgb(0%,0%,0%);fill-opacity:1;"
              d="M 103.332031 140.910156 L 108.03125 140.910156 L 108.03125 145.605469 L 103.332031 145.605469 Z M 103.332031 140.910156 "/>
        <path style=" stroke:none;fill-rule:nonzero;fill:rgb(0%,0%,0%);fill-opacity:1;"
              d="M 108.03125 140.910156 L 112.726562 140.910156 L 112.726562 145.605469 L 108.03125 145.605469 Z M 108.03125 140.910156 "/>
        <path style=" stroke:none;fill-rule:nonzero;fill:rgb(0%,0%,0%);fill-opacity:1;"
              d="M 112.726562 140.910156 L 117.425781 140.910156 L 117.425781 145.605469 L 112.726562 145.605469 Z M 112.726562 140.910156 "/>
        <path style=" stroke:none;fill-rule:nonzero;fill:rgb(0%,0%,0%);fill-opacity:1;"
              d="M 122.121094 140.910156 L 126.816406 140.910156 L 126.816406 145.605469 L 122.121094 145.605469 Z M 122.121094 140.910156 "/>
        <path style=" stroke:none;fill-rule:nonzero;fill:rgb(0%,0%,0%);fill-opacity:1;"
              d="M 136.210938 140.910156 L 140.910156 140.910156 L 140.910156 145.605469 L 136.210938 145.605469 Z M 136.210938 140.910156 "/>
        <path style=" stroke:none;fill-rule:nonzero;fill:rgb(0%,0%,0%);fill-opacity:1;"
              d="M 37.339844 9.394531 L 9.394531 9.394531 L 9.394531 42.273438 L 42.273438 42.273438 L 42.273438 9.394531 Z M 37.339844 37.339844 L 14.324219 37.339844 L 14.324219 14.324219 L 37.339844 14.324219 Z M 37.339844 37.339844 "/>
        <path style=" stroke:none;fill-rule:nonzero;fill:rgb(0%,0%,0%);fill-opacity:1;"
              d="M 140.675781 9.394531 L 112.726562 9.394531 L 112.726562 42.273438 L 145.605469 42.273438 L 145.605469 9.394531 Z M 140.675781 37.339844 L 117.660156 37.339844 L 117.660156 14.324219 L 140.675781 14.324219 Z M 140.675781 37.339844 "/>
        <path style=" stroke:none;fill-rule:nonzero;fill:rgb(0%,0%,0%);fill-opacity:1;"
              d="M 37.339844 112.726562 L 9.394531 112.726562 L 9.394531 145.605469 L 42.273438 145.605469 L 42.273438 112.726562 Z M 37.339844 140.675781 L 14.324219 140.675781 L 14.324219 117.660156 L 37.339844 117.660156 Z M 37.339844 140.675781 "/>
        <path style=" stroke:none;fill-rule:nonzero;fill:rgb(0%,0%,0%);fill-opacity:1;"
              d="M 18.789062 18.789062 L 32.878906 18.789062 L 32.878906 32.878906 L 18.789062 32.878906 Z M 18.789062 18.789062 "/>
        <path style=" stroke:none;fill-rule:nonzero;fill:rgb(0%,0%,0%);fill-opacity:1;"
              d="M 122.121094 18.789062 L 136.210938 18.789062 L 136.210938 32.878906 L 122.121094 32.878906 Z M 122.121094 18.789062 "/>
        <path style=" stroke:none;fill-rule:nonzero;fill:rgb(0%,0%,0%);fill-opacity:1;"
              d="M 18.789062 122.121094 L 32.878906 122.121094 L 32.878906 136.210938 L 18.789062 136.210938 Z M 18.789062 122.121094 "/>
    </g>
</svg>
