<svg width="160" height="160" viewBox="0 0 160 160" fill="none" xmlns="http://www.w3.org/2000/svg">
<mask id="mask0_0_1" style="mask-type:luminance" maskUnits="userSpaceOnUse" x="0" y="0" width="160" height="160">
<path d="M49.9971 0.467834H44.3477V6.11723H49.9971V0.467834Z" fill="white"/>
<path d="M60.9658 0.467834H55.3164V6.11723H60.9658V0.467834Z" fill="white"/>
<path d="M93.8779 0.467834H88.2285V6.11723H93.8779V0.467834Z" fill="white"/>
<path d="M99.3603 0.467834H93.7109V6.11723H99.3603V0.467834Z" fill="white"/>
<path d="M104.847 0.467834H99.1973V6.11723H104.847V0.467834Z" fill="white"/>
<path d="M115.817 0.467834H110.168V6.11723H115.817V0.467834Z" fill="white"/>
<path d="M49.9971 5.95319H44.3477V11.6026H49.9971V5.95319Z" fill="white"/>
<path d="M55.4853 5.95319H49.8359V11.6026H55.4853V5.95319Z" fill="white"/>
<path d="M60.9658 5.95319H55.3164V11.6026H60.9658V5.95319Z" fill="white"/>
<path d="M71.9404 5.95319H66.291V11.6026H71.9404V5.95319Z" fill="white"/>
<path d="M82.9092 5.95312H77.2598V11.6025H82.9092V5.95312Z" fill="white"/>
<path d="M88.3935 5.95319H82.7441V11.6026H88.3935V5.95319Z" fill="white"/>
<path d="M93.8779 5.95319H88.2285V11.6026H93.8779V5.95319Z" fill="white"/>
<path d="M99.3603 5.95319H93.7109V11.6026H99.3603V5.95319Z" fill="white"/>
<path d="M110.331 5.95312H104.682V11.6025H110.331V5.95312Z" fill="white"/>
<path d="M49.9971 11.4366H44.3477V17.086H49.9971V11.4366Z" fill="white"/>
<path d="M66.4541 11.4366H60.8047V17.086H66.4541V11.4366Z" fill="white"/>
<path d="M71.9404 11.4366H66.291V17.086H71.9404V11.4366Z" fill="white"/>
<path d="M88.3935 11.4366H82.7441V17.086H88.3935V11.4366Z" fill="white"/>
<path d="M93.8779 11.4366H88.2285V17.086H93.8779V11.4366Z" fill="white"/>
<path d="M104.847 11.4366H99.1973V17.086H104.847V11.4366Z" fill="white"/>
<path d="M110.331 11.4366H104.682V17.086H110.331V11.4366Z" fill="white"/>
<path d="M115.817 11.4366H110.168V17.086H115.817V11.4366Z" fill="white"/>
<path d="M60.9658 16.9219H55.3164V22.5713H60.9658V16.9219Z" fill="white"/>
<path d="M66.4541 16.9219H60.8047V22.5713H66.4541V16.9219Z" fill="white"/>
<path d="M77.4228 16.9219H71.7734V22.5713H77.4228V16.9219Z" fill="white"/>
<path d="M82.9092 16.9219H77.2598V22.5713H82.9092V16.9219Z" fill="white"/>
<path d="M88.3935 16.9219H82.7441V22.5713H88.3935V16.9219Z" fill="white"/>
<path d="M93.8779 16.9219H88.2285V22.5713H93.8779V16.9219Z" fill="white"/>
<path d="M99.3603 16.9219H93.7109V22.5713H99.3603V16.9219Z" fill="white"/>
<path d="M110.331 16.9219H104.682V22.5713H110.331V16.9219Z" fill="white"/>
<path d="M55.4853 22.4063H49.8359V28.0557H55.4853V22.4063Z" fill="white"/>
<path d="M60.9658 22.4063H55.3164V28.0557H60.9658V22.4063Z" fill="white"/>
<path d="M66.4541 22.4063H60.8047V28.0557H66.4541V22.4063Z" fill="white"/>
<path d="M71.9404 22.4063H66.291V28.0557H71.9404V22.4063Z" fill="white"/>
<path d="M77.4228 22.4063H71.7734V28.0557H77.4228V22.4063Z" fill="white"/>
<path d="M93.8779 22.4063H88.2285V28.0557H93.8779V22.4063Z" fill="white"/>
<path d="M104.847 22.4063H99.1973V28.0557H104.847V22.4063Z" fill="white"/>
<path d="M110.331 22.4063H104.682V28.0557H110.331V22.4063Z" fill="white"/>
<path d="M49.9971 27.8918H44.3477V33.5412H49.9971V27.8918Z" fill="white"/>
<path d="M71.9404 27.8917H66.291V33.5411H71.9404V27.8917Z" fill="white"/>
<path d="M77.4228 27.8917H71.7734V33.5411H77.4228V27.8917Z" fill="white"/>
<path d="M88.3935 27.8917H82.7441V33.5411H88.3935V27.8917Z" fill="white"/>
<path d="M93.8779 27.8917H88.2285V33.5411H93.8779V27.8917Z" fill="white"/>
<path d="M104.847 27.8917H99.1973V33.5411H104.847V27.8917Z" fill="white"/>
<path d="M49.9971 33.3782H44.3477V39.0276H49.9971V33.3782Z" fill="white"/>
<path d="M60.9658 33.378H55.3164V39.0274H60.9658V33.378Z" fill="white"/>
<path d="M71.9404 33.378H66.291V39.0274H71.9404V33.378Z" fill="white"/>
<path d="M82.9092 33.378H77.2598V39.0274H82.9092V33.378Z" fill="white"/>
<path d="M93.8779 33.378H88.2285V39.0274H93.8779V33.378Z" fill="white"/>
<path d="M104.847 33.378H99.1973V39.0274H104.847V33.378Z" fill="white"/>
<path d="M115.817 33.378H110.168V39.0274H115.817V33.378Z" fill="white"/>
<path d="M49.9971 38.8625H44.3477V44.5119H49.9971V38.8625Z" fill="white"/>
<path d="M55.4853 38.8624H49.8359V44.5118H55.4853V38.8624Z" fill="white"/>
<path d="M66.4541 38.8624H60.8047V44.5118H66.4541V38.8624Z" fill="white"/>
<path d="M71.9404 38.8624H66.291V44.5118H71.9404V38.8624Z" fill="white"/>
<path d="M77.4228 38.8624H71.7734V44.5118H77.4228V38.8624Z" fill="white"/>
<path d="M88.3935 38.8624H82.7441V44.5118H88.3935V38.8624Z" fill="white"/>
<path d="M93.8779 38.8624H88.2285V44.5118H93.8779V38.8624Z" fill="white"/>
<path d="M110.331 38.8624H104.682V44.5118H110.331V38.8624Z" fill="white"/>
<path d="M17.0888 44.347H11.4395V49.9964H17.0888V44.347Z" fill="white"/>
<path d="M22.5771 44.3467H16.9277V49.9961H22.5771V44.3467Z" fill="white"/>
<path d="M28.0596 44.347H22.4102V49.9964H28.0596V44.347Z" fill="white"/>
<path d="M39.0263 44.347H33.377V49.9964H39.0263V44.347Z" fill="white"/>
<path d="M49.9971 44.347H44.3477V49.9964H49.9971V44.347Z" fill="white"/>
<path d="M55.4853 44.3467H49.8359V49.9961H55.4853V44.3467Z" fill="white"/>
<path d="M60.9658 44.3467H55.3164V49.9961H60.9658V44.3467Z" fill="white"/>
<path d="M88.3935 44.3467H82.7441V49.9961H88.3935V44.3467Z" fill="white"/>
<path d="M93.8779 44.3467H88.2285V49.9961H93.8779V44.3467Z" fill="white"/>
<path d="M104.847 44.3467H99.1973V49.9961H104.847V44.3467Z" fill="white"/>
<path d="M121.3 44.3467H115.65V49.9961H121.3V44.3467Z" fill="white"/>
<path d="M126.786 44.3467H121.137V49.9961H126.786V44.3467Z" fill="white"/>
<path d="M132.274 44.3467H126.625V49.9961H132.274V44.3467Z" fill="white"/>
<path d="M148.726 44.3467H143.076V49.9961H148.726V44.3467Z" fill="white"/>
<path d="M154.212 44.347H148.562V49.9964H154.212V44.347Z" fill="white"/>
<path d="M159.692 44.3467H154.043V49.9961H159.692V44.3467Z" fill="white"/>
<path d="M17.0888 49.8311H11.4395V55.4805H17.0888V49.8311Z" fill="white"/>
<path d="M33.5459 49.8311H27.8965V55.4805H33.5459V49.8311Z" fill="white"/>
<path d="M44.5146 49.8311H38.8652V55.4805H44.5146V49.8311Z" fill="white"/>
<path d="M49.9971 49.8311H44.3477V55.4805H49.9971V49.8311Z" fill="white"/>
<path d="M55.4853 49.8311H49.8359V55.4805H55.4853V49.8311Z" fill="white"/>
<path d="M60.9658 49.8311H55.3164V55.4805H60.9658V49.8311Z" fill="white"/>
<path d="M71.9404 49.8311H66.291V55.4805H71.9404V49.8311Z" fill="white"/>
<path d="M82.9092 49.8311H77.2598V55.4805H82.9092V49.8311Z" fill="white"/>
<path d="M88.3935 49.8311H82.7441V55.4805H88.3935V49.8311Z" fill="white"/>
<path d="M93.8779 49.8311H88.2285V55.4805H93.8779V49.8311Z" fill="white"/>
<path d="M99.3603 49.8311H93.7109V55.4805H99.3603V49.8311Z" fill="white"/>
<path d="M121.3 49.8311H115.65V55.4805H121.3V49.8311Z" fill="white"/>
<path d="M126.786 49.8311H121.137V55.4805H126.786V49.8311Z" fill="white"/>
<path d="M132.274 49.8311H126.625V55.4805H132.274V49.8311Z" fill="white"/>
<path d="M137.755 49.8311H132.105V55.4805H137.755V49.8311Z" fill="white"/>
<path d="M143.243 49.8311H137.594V55.4805H143.243V49.8311Z" fill="white"/>
<path d="M148.726 49.8311H143.076V55.4805H148.726V49.8311Z" fill="white"/>
<path d="M159.694 49.8311H154.045V55.4805H159.694V49.8311Z" fill="white"/>
<path d="M11.6084 55.3165H5.95898V60.9659H11.6084V55.3165Z" fill="white"/>
<path d="M17.0888 55.3165H11.4395V60.9659H17.0888V55.3165Z" fill="white"/>
<path d="M28.0596 55.3165H22.4102V60.9659H28.0596V55.3165Z" fill="white"/>
<path d="M33.5459 55.3165H27.8965V60.9659H33.5459V55.3165Z" fill="white"/>
<path d="M39.0263 55.3165H33.377V60.9659H39.0263V55.3165Z" fill="white"/>
<path d="M44.5127 55.3165H38.8633V60.9659H44.5127V55.3165Z" fill="white"/>
<path d="M60.9658 55.3165H55.3164V60.9659H60.9658V55.3165Z" fill="white"/>
<path d="M66.4541 55.3165H60.8047V60.9659H66.4541V55.3165Z" fill="white"/>
<path d="M77.4228 55.3165H71.7734V60.9659H77.4228V55.3165Z" fill="white"/>
<path d="M82.9092 55.3165H77.2598V60.9659H82.9092V55.3165Z" fill="white"/>
<path d="M88.3935 55.3165H82.7441V60.9659H88.3935V55.3165Z" fill="white"/>
<path d="M93.8779 55.3165H88.2285V60.9659H93.8779V55.3165Z" fill="white"/>
<path d="M115.817 55.3165H110.168V60.9659H115.817V55.3165Z" fill="white"/>
<path d="M121.3 55.3165H115.65V60.9659H121.3V55.3165Z" fill="white"/>
<path d="M126.786 55.3165H121.137V60.9659H126.786V55.3165Z" fill="white"/>
<path d="M132.274 55.3165H126.625V60.9659H132.274V55.3165Z" fill="white"/>
<path d="M148.728 55.3165H143.078V60.9659H148.728V55.3165Z" fill="white"/>
<path d="M17.0888 60.8008H11.4395V66.4502H17.0888V60.8008Z" fill="white"/>
<path d="M44.5146 60.8008H38.8652V66.4502H44.5146V60.8008Z" fill="white"/>
<path d="M49.9971 60.8008H44.3477V66.4502H49.9971V60.8008Z" fill="white"/>
<path d="M55.4853 60.8008H49.8359V66.4502H55.4853V60.8008Z" fill="white"/>
<path d="M60.9658 60.8008H55.3164V66.4502H60.9658V60.8008Z" fill="white"/>
<path d="M66.4541 60.8008H60.8047V66.4502H66.4541V60.8008Z" fill="white"/>
<path d="M99.3603 60.8008H93.7109V66.4502H99.3603V60.8008Z" fill="white"/>
<path d="M121.3 60.8008H115.65V66.4502H121.3V60.8008Z" fill="white"/>
<path d="M126.786 60.8008H121.137V66.4502H126.786V60.8008Z" fill="white"/>
<path d="M132.274 60.8008H126.625V66.4502H132.274V60.8008Z" fill="white"/>
<path d="M137.755 60.8008H132.105V66.4502H137.755V60.8008Z" fill="white"/>
<path d="M143.243 60.8008H137.594V66.4502H143.243V60.8008Z" fill="white"/>
<path d="M154.212 60.8008H148.562V66.4502H154.212V60.8008Z" fill="white"/>
<path d="M11.6084 66.2862H5.95898V71.9356H11.6084V66.2862Z" fill="white"/>
<path d="M22.5752 66.2862H16.9258V71.9356H22.5752V66.2862Z" fill="white"/>
<path d="M28.0596 66.2862H22.4102V71.9356H28.0596V66.2862Z" fill="white"/>
<path d="M33.5459 66.2862H27.8965V71.9356H33.5459V66.2862Z" fill="white"/>
<path d="M39.0263 66.2862H33.377V71.9356H39.0263V66.2862Z" fill="white"/>
<path d="M44.5127 66.2862H38.8633V71.9356H44.5127V66.2862Z" fill="white"/>
<path d="M49.9971 66.2862H44.3477V71.9356H49.9971V66.2862Z" fill="white"/>
<path d="M66.4541 66.2862H60.8047V71.9356H66.4541V66.2862Z" fill="white"/>
<path d="M77.4228 66.2862H71.7734V71.9356H77.4228V66.2862Z" fill="white"/>
<path d="M82.9092 66.2862H77.2598V71.9356H82.9092V66.2862Z" fill="white"/>
<path d="M88.3935 66.2862H82.7441V71.9356H88.3935V66.2862Z" fill="white"/>
<path d="M93.8779 66.2862H88.2285V71.9356H93.8779V66.2862Z" fill="white"/>
<path d="M115.817 66.2862H110.168V71.9356H115.817V66.2862Z" fill="white"/>
<path d="M121.3 66.2862H115.65V71.9356H121.3V66.2862Z" fill="white"/>
<path d="M132.274 66.2862H126.625V71.9356H132.274V66.2862Z" fill="white"/>
<path d="M148.728 66.2862H143.078V71.9356H148.728V66.2862Z" fill="white"/>
<path d="M154.212 66.2862H148.562V71.9356H154.212V66.2862Z" fill="white"/>
<path d="M159.694 66.2862H154.045V71.9356H159.694V66.2862Z" fill="white"/>
<path d="M17.0888 71.7696H11.4395V77.419H17.0888V71.7696Z" fill="white"/>
<path d="M22.5771 71.7696H16.9277V77.419H22.5771V71.7696Z" fill="white"/>
<path d="M33.5459 71.7696H27.8965V77.419H33.5459V71.7696Z" fill="white"/>
<path d="M44.5146 71.7696H38.8652V77.419H44.5146V71.7696Z" fill="white"/>
<path d="M60.9658 71.7696H55.3164V77.419H60.9658V71.7696Z" fill="white"/>
<path d="M71.9404 71.7696H66.291V77.419H71.9404V71.7696Z" fill="white"/>
<path d="M77.4228 71.7696H71.7734V77.419H77.4228V71.7696Z" fill="white"/>
<path d="M88.3935 71.7696H82.7441V77.419H88.3935V71.7696Z" fill="white"/>
<path d="M99.3603 71.7696H93.7109V77.419H99.3603V71.7696Z" fill="white"/>
<path d="M104.847 71.7696H99.1973V77.419H104.847V71.7696Z" fill="white"/>
<path d="M110.331 71.7696H104.682V77.419H110.331V71.7696Z" fill="white"/>
<path d="M115.817 71.7696H110.168V77.419H115.817V71.7696Z" fill="white"/>
<path d="M121.3 71.7696H115.65V77.419H121.3V71.7696Z" fill="white"/>
<path d="M126.786 71.7696H121.137V77.419H126.786V71.7696Z" fill="white"/>
<path d="M137.755 71.7696H132.105V77.419H137.755V71.7696Z" fill="white"/>
<path d="M143.243 71.7696H137.594V77.419H143.243V71.7696Z" fill="white"/>
<path d="M154.212 71.7696H148.562V77.419H154.212V71.7696Z" fill="white"/>
<path d="M159.694 71.7696H154.045V77.419H159.694V71.7696Z" fill="white"/>
<path d="M6.1201 77.2549H0.470703V82.9043H6.1201V77.2549Z" fill="white"/>
<path d="M28.0596 77.2549H22.4102V82.9043H28.0596V77.2549Z" fill="white"/>
<path d="M39.0263 77.2559H33.377V82.9053H39.0263V77.2559Z" fill="white"/>
<path d="M49.9971 77.2549H44.3477V82.9043H49.9971V77.2549Z" fill="white"/>
<path d="M55.4853 77.2559H49.8359V82.9053H55.4853V77.2559Z" fill="white"/>
<path d="M71.9404 77.2549H66.291V82.9043H71.9404V77.2549Z" fill="white"/>
<path d="M77.4228 77.2559H71.7734V82.9053H77.4228V77.2559Z" fill="white"/>
<path d="M82.9092 77.2549H77.2598V82.9043H82.9092V77.2549Z" fill="white"/>
<path d="M104.847 77.2549H99.1973V82.9043H104.847V77.2549Z" fill="white"/>
<path d="M115.817 77.2559H110.168V82.9053H115.817V77.2559Z" fill="white"/>
<path d="M121.3 77.2549H115.65V82.9043H121.3V77.2549Z" fill="white"/>
<path d="M126.786 77.2549H121.137V82.9043H126.786V77.2549Z" fill="white"/>
<path d="M132.274 77.2549H126.625V82.9043H132.274V77.2549Z" fill="white"/>
<path d="M6.1201 82.7393H0.470703V88.3887H6.1201V82.7393Z" fill="white"/>
<path d="M11.6084 82.7393H5.95898V88.3887H11.6084V82.7393Z" fill="white"/>
<path d="M17.0888 82.7403H11.4395V88.3897H17.0888V82.7403Z" fill="white"/>
<path d="M28.0596 82.7393H22.4102V88.3887H28.0596V82.7393Z" fill="white"/>
<path d="M44.5146 82.7393H38.8652V88.3887H44.5146V82.7393Z" fill="white"/>
<path d="M49.9971 82.7393H44.3477V88.3887H49.9971V82.7393Z" fill="white"/>
<path d="M71.9404 82.7393H66.291V88.3887H71.9404V82.7393Z" fill="white"/>
<path d="M77.4228 82.7403H71.7734V88.3897H77.4228V82.7403Z" fill="white"/>
<path d="M88.3935 82.7393H82.7441V88.3887H88.3935V82.7393Z" fill="white"/>
<path d="M99.3603 82.7403H93.7109V88.3897H99.3603V82.7403Z" fill="white"/>
<path d="M104.847 82.7393H99.1973V88.3887H104.847V82.7393Z" fill="white"/>
<path d="M121.3 82.7393H115.65V88.3887H121.3V82.7393Z" fill="white"/>
<path d="M137.755 82.7403H132.105V88.3897H137.755V82.7403Z" fill="white"/>
<path d="M143.243 82.7393H137.594V88.3887H143.243V82.7393Z" fill="white"/>
<path d="M6.1201 88.2247H0.470703V93.8741H6.1201V88.2247Z" fill="white"/>
<path d="M17.0888 88.2247H11.4395V93.8741H17.0888V88.2247Z" fill="white"/>
<path d="M39.0263 88.2247H33.377V93.8741H39.0263V88.2247Z" fill="white"/>
<path d="M44.5146 88.2247H38.8652V93.8741H44.5146V88.2247Z" fill="white"/>
<path d="M55.4853 88.2247H49.8359V93.8741H55.4853V88.2247Z" fill="white"/>
<path d="M60.9658 88.2247H55.3164V93.8741H60.9658V88.2247Z" fill="white"/>
<path d="M66.4541 88.2247H60.8047V93.8741H66.4541V88.2247Z" fill="white"/>
<path d="M77.4228 88.2247H71.7734V93.8741H77.4228V88.2247Z" fill="white"/>
<path d="M104.847 88.2247H99.1973V93.8741H104.847V88.2247Z" fill="white"/>
<path d="M137.755 88.2247H132.105V93.8741H137.755V88.2247Z" fill="white"/>
<path d="M143.243 88.2247H137.594V93.8741H143.243V88.2247Z" fill="white"/>
<path d="M148.726 88.2247H143.076V93.8741H148.726V88.2247Z" fill="white"/>
<path d="M154.212 88.2247H148.562V93.8741H154.212V88.2247Z" fill="white"/>
<path d="M159.692 88.2247H154.043V93.8741H159.692V88.2247Z" fill="white"/>
<path d="M6.1201 93.712H0.470703V99.3614H6.1201V93.712Z" fill="white"/>
<path d="M17.0888 93.712H11.4395V99.3614H17.0888V93.712Z" fill="white"/>
<path d="M28.0596 93.712H22.4102V99.3614H28.0596V93.712Z" fill="white"/>
<path d="M33.5459 93.712H27.8965V99.3614H33.5459V93.712Z" fill="white"/>
<path d="M49.9971 93.712H44.3477V99.3614H49.9971V93.712Z" fill="white"/>
<path d="M60.9658 93.712H55.3164V99.3614H60.9658V93.712Z" fill="white"/>
<path d="M66.4541 93.712H60.8047V99.3614H66.4541V93.712Z" fill="white"/>
<path d="M71.9404 93.712H66.291V99.3614H71.9404V93.712Z" fill="white"/>
<path d="M104.847 93.712H99.1973V99.3614H104.847V93.712Z" fill="white"/>
<path d="M115.817 93.712H110.168V99.3614H115.817V93.712Z" fill="white"/>
<path d="M121.3 93.712H115.65V99.3614H121.3V93.712Z" fill="white"/>
<path d="M132.274 93.712H126.625V99.3614H132.274V93.712Z" fill="white"/>
<path d="M137.755 93.712H132.105V99.3614H137.755V93.712Z" fill="white"/>
<path d="M148.726 93.712H143.076V99.3614H148.726V93.712Z" fill="white"/>
<path d="M154.212 93.712H148.562V99.3614H154.212V93.712Z" fill="white"/>
<path d="M159.692 93.712H154.043V99.3614H159.692V93.712Z" fill="white"/>
<path d="M6.1201 99.1964H0.470703V104.846H6.1201V99.1964Z" fill="white"/>
<path d="M17.0888 99.1954H11.4395V104.845H17.0888V99.1954Z" fill="white"/>
<path d="M22.5771 99.1964H16.9277V104.846H22.5771V99.1964Z" fill="white"/>
<path d="M28.0596 99.1964H22.4102V104.846H28.0596V99.1964Z" fill="white"/>
<path d="M33.5459 99.1964H27.8965V104.846H33.5459V99.1964Z" fill="white"/>
<path d="M39.0263 99.1954H33.377V104.845H39.0263V99.1954Z" fill="white"/>
<path d="M55.4853 99.1964H49.8359V104.846H55.4853V99.1964Z" fill="white"/>
<path d="M71.9404 99.1964H66.291V104.846H71.9404V99.1964Z" fill="white"/>
<path d="M77.4228 99.1954H71.7734V104.845H77.4228V99.1954Z" fill="white"/>
<path d="M93.8779 99.1964H88.2285V104.846H93.8779V99.1964Z" fill="white"/>
<path d="M104.847 99.1964H99.1973V104.846H104.847V99.1964Z" fill="white"/>
<path d="M126.786 99.1964H121.137V104.846H126.786V99.1964Z" fill="white"/>
<path d="M143.243 99.1964H137.594V104.846H143.243V99.1964Z" fill="white"/>
<path d="M148.726 99.1964H143.076V104.846H148.726V99.1964Z" fill="white"/>
<path d="M6.1201 104.681H0.470703V110.33H6.1201V104.681Z" fill="white"/>
<path d="M17.0888 104.681H11.4395V110.33H17.0888V104.681Z" fill="white"/>
<path d="M22.5771 104.681H16.9277V110.33H22.5771V104.681Z" fill="white"/>
<path d="M28.0596 104.681H22.4102V110.33H28.0596V104.681Z" fill="white"/>
<path d="M60.9658 104.681H55.3164V110.33H60.9658V104.681Z" fill="white"/>
<path d="M77.4228 104.681H71.7734V110.33H77.4228V104.681Z" fill="white"/>
<path d="M82.9092 104.681H77.2598V110.33H82.9092V104.681Z" fill="white"/>
<path d="M88.3935 104.681H82.7441V110.33H88.3935V104.681Z" fill="white"/>
<path d="M110.331 104.681H104.682V110.33H110.331V104.681Z" fill="white"/>
<path d="M115.817 104.681H110.168V110.33H115.817V104.681Z" fill="white"/>
<path d="M126.786 104.681H121.137V110.33H126.786V104.681Z" fill="white"/>
<path d="M132.274 104.681H126.625V110.33H132.274V104.681Z" fill="white"/>
<path d="M137.755 104.681H132.105V110.33H137.755V104.681Z" fill="white"/>
<path d="M154.212 104.681H148.562V110.33H154.212V104.681Z" fill="white"/>
<path d="M159.692 104.681H154.043V110.33H159.692V104.681Z" fill="white"/>
<path d="M6.1201 110.164H0.470703V115.814H6.1201V110.164Z" fill="white"/>
<path d="M17.0888 110.164H11.4395V115.814H17.0888V110.164Z" fill="white"/>
<path d="M22.5771 110.165H16.9277V115.814H22.5771V110.165Z" fill="white"/>
<path d="M33.5459 110.165H27.8965V115.814H33.5459V110.165Z" fill="white"/>
<path d="M39.0263 110.164H33.377V115.814H39.0263V110.164Z" fill="white"/>
<path d="M44.5146 110.165H38.8652V115.814H44.5146V110.165Z" fill="white"/>
<path d="M49.9971 110.165H44.3477V115.814H49.9971V110.165Z" fill="white"/>
<path d="M71.9404 110.165H66.291V115.814H71.9404V110.165Z" fill="white"/>
<path d="M82.9092 110.165H77.2598V115.814H82.9092V110.165Z" fill="white"/>
<path d="M88.3935 110.165H82.7441V115.814H88.3935V110.165Z" fill="white"/>
<path d="M93.8779 110.165H88.2285V115.814H93.8779V110.165Z" fill="white"/>
<path d="M110.331 110.165H104.682V115.814H110.331V110.165Z" fill="white"/>
<path d="M115.817 110.164H110.168V115.814H115.817V110.164Z" fill="white"/>
<path d="M121.3 110.165H115.65V115.814H121.3V110.165Z" fill="white"/>
<path d="M126.786 110.164H121.137V115.814H126.786V110.164Z" fill="white"/>
<path d="M132.274 110.165H126.625V115.814H132.274V110.165Z" fill="white"/>
<path d="M137.755 110.164H132.105V115.814H137.755V110.164Z" fill="white"/>
<path d="M148.726 110.165H143.076V115.814H148.726V110.165Z" fill="white"/>
<path d="M49.9971 115.649H44.3477V121.299H49.9971V115.649Z" fill="white"/>
<path d="M55.4853 115.65H49.8359V121.3H55.4853V115.65Z" fill="white"/>
<path d="M60.9658 115.65H55.3164V121.3H60.9658V115.65Z" fill="white"/>
<path d="M66.4541 115.649H60.8047V121.299H66.4541V115.649Z" fill="white"/>
<path d="M71.9404 115.65H66.291V121.3H71.9404V115.65Z" fill="white"/>
<path d="M77.4228 115.65H71.7734V121.3H77.4228V115.65Z" fill="white"/>
<path d="M82.9092 115.649H77.2598V121.299H82.9092V115.649Z" fill="white"/>
<path d="M88.3935 115.649H82.7441V121.299H88.3935V115.649Z" fill="white"/>
<path d="M99.3603 115.65H93.7109V121.3H99.3603V115.65Z" fill="white"/>
<path d="M104.847 115.649H99.1973V121.299H104.847V115.649Z" fill="white"/>
<path d="M110.331 115.649H104.682V121.299H110.331V115.649Z" fill="white"/>
<path d="M115.817 115.65H110.168V121.3H115.817V115.65Z" fill="white"/>
<path d="M137.755 115.65H132.105V121.3H137.755V115.65Z" fill="white"/>
<path d="M143.243 115.649H137.594V121.299H143.243V115.649Z" fill="white"/>
<path d="M154.212 115.65H148.562V121.3H154.212V115.65Z" fill="white"/>
<path d="M159.694 115.65H154.045V121.3H159.694V115.65Z" fill="white"/>
<path d="M55.4853 121.135H49.8359V126.784H55.4853V121.135Z" fill="white"/>
<path d="M66.4541 121.135H60.8047V126.784H66.4541V121.135Z" fill="white"/>
<path d="M77.4228 121.135H71.7734V126.784H77.4228V121.135Z" fill="white"/>
<path d="M88.3935 121.135H82.7441V126.784H88.3935V121.135Z" fill="white"/>
<path d="M99.3603 121.135H93.7109V126.784H99.3603V121.135Z" fill="white"/>
<path d="M110.331 121.135H104.682V126.784H110.331V121.135Z" fill="white"/>
<path d="M115.817 121.135H110.168V126.784H115.817V121.135Z" fill="white"/>
<path d="M126.786 121.135H121.137V126.784H126.786V121.135Z" fill="white"/>
<path d="M137.755 121.135H132.105V126.784H137.755V121.135Z" fill="white"/>
<path d="M60.9658 126.62H55.3164V132.27H60.9658V126.62Z" fill="white"/>
<path d="M82.9092 126.62H77.2598V132.27H82.9092V126.62Z" fill="white"/>
<path d="M88.3935 126.62H82.7441V132.27H88.3935V126.62Z" fill="white"/>
<path d="M104.847 126.62H99.1973V132.27H104.847V126.62Z" fill="white"/>
<path d="M110.331 126.62H104.682V132.27H110.331V126.62Z" fill="white"/>
<path d="M115.817 126.62H110.168V132.27H115.817V126.62Z" fill="white"/>
<path d="M137.755 126.62H132.105V132.27H137.755V126.62Z" fill="white"/>
<path d="M143.243 126.62H137.594V132.27H143.243V126.62Z" fill="white"/>
<path d="M154.212 126.62H148.562V132.27H154.212V126.62Z" fill="white"/>
<path d="M49.9971 132.104H44.3477V137.753H49.9971V132.104Z" fill="white"/>
<path d="M71.9404 132.104H66.291V137.753H71.9404V132.104Z" fill="white"/>
<path d="M77.4228 132.104H71.7734V137.753H77.4228V132.104Z" fill="white"/>
<path d="M82.9092 132.104H77.2598V137.753H82.9092V132.104Z" fill="white"/>
<path d="M88.3935 132.104H82.7441V137.753H88.3935V132.104Z" fill="white"/>
<path d="M93.8779 132.104H88.2285V137.753H93.8779V132.104Z" fill="white"/>
<path d="M99.3603 132.104H93.7109V137.753H99.3603V132.104Z" fill="white"/>
<path d="M104.847 132.104H99.1973V137.753H104.847V132.104Z" fill="white"/>
<path d="M115.817 132.104H110.168V137.753H115.817V132.104Z" fill="white"/>
<path d="M121.3 132.104H115.65V137.753H121.3V132.104Z" fill="white"/>
<path d="M126.786 132.104H121.137V137.753H126.786V132.104Z" fill="white"/>
<path d="M132.274 132.104H126.625V137.753H132.274V132.104Z" fill="white"/>
<path d="M137.755 132.104H132.105V137.753H137.755V132.104Z" fill="white"/>
<path d="M143.243 132.104H137.594V137.753H143.243V132.104Z" fill="white"/>
<path d="M148.726 132.104H143.076V137.753H148.726V132.104Z" fill="white"/>
<path d="M159.694 132.104H154.045V137.753H159.694V132.104Z" fill="white"/>
<path d="M49.9971 137.589H44.3477V143.238H49.9971V137.589Z" fill="white"/>
<path d="M55.4853 137.589H49.8359V143.238H55.4853V137.589Z" fill="white"/>
<path d="M66.4541 137.589H60.8047V143.238H66.4541V137.589Z" fill="white"/>
<path d="M71.9404 137.589H66.291V143.238H71.9404V137.589Z" fill="white"/>
<path d="M88.3935 137.589H82.7441V143.238H88.3935V137.589Z" fill="white"/>
<path d="M110.331 137.589H104.682V143.238H110.331V137.589Z" fill="white"/>
<path d="M115.817 137.589H110.168V143.238H115.817V137.589Z" fill="white"/>
<path d="M121.3 137.589H115.65V143.238H121.3V137.589Z" fill="white"/>
<path d="M132.274 137.589H126.625V143.238H132.274V137.589Z" fill="white"/>
<path d="M143.243 137.589H137.594V143.238H143.243V137.589Z" fill="white"/>
<path d="M148.728 137.589H143.078V143.238H148.728V137.589Z" fill="white"/>
<path d="M49.9971 143.073H44.3477V148.723H49.9971V143.073Z" fill="white"/>
<path d="M55.4853 143.073H49.8359V148.723H55.4853V143.073Z" fill="white"/>
<path d="M71.9404 143.073H66.291V148.723H71.9404V143.073Z" fill="white"/>
<path d="M82.9092 143.073H77.2598V148.723H82.9092V143.073Z" fill="white"/>
<path d="M88.3935 143.073H82.7441V148.723H88.3935V143.073Z" fill="white"/>
<path d="M93.8779 143.073H88.2285V148.723H93.8779V143.073Z" fill="white"/>
<path d="M104.847 143.073H99.1973V148.723H104.847V143.073Z" fill="white"/>
<path d="M110.331 143.073H104.682V148.723H110.331V143.073Z" fill="white"/>
<path d="M115.817 143.073H110.168V148.723H115.817V143.073Z" fill="white"/>
<path d="M121.3 143.073H115.65V148.723H121.3V143.073Z" fill="white"/>
<path d="M126.786 143.073H121.137V148.723H126.786V143.073Z" fill="white"/>
<path d="M132.274 143.073H126.625V148.723H132.274V143.073Z" fill="white"/>
<path d="M137.755 143.073H132.105V148.723H137.755V143.073Z" fill="white"/>
<path d="M143.243 143.073H137.594V148.723H143.243V143.073Z" fill="white"/>
<path d="M148.726 143.073H143.076V148.723H148.726V143.073Z" fill="white"/>
<path d="M154.212 143.073H148.562V148.723H154.212V143.073Z" fill="white"/>
<path d="M60.9658 148.559H55.3164V154.208H60.9658V148.559Z" fill="white"/>
<path d="M66.4541 148.559H60.8047V154.208H66.4541V148.559Z" fill="white"/>
<path d="M77.4228 148.559H71.7734V154.208H77.4228V148.559Z" fill="white"/>
<path d="M82.9092 148.559H77.2598V154.208H82.9092V148.559Z" fill="white"/>
<path d="M88.3935 148.559H82.7441V154.208H88.3935V148.559Z" fill="white"/>
<path d="M115.817 148.559H110.168V154.208H115.817V148.559Z" fill="white"/>
<path d="M137.755 148.559H132.105V154.208H137.755V148.559Z" fill="white"/>
<path d="M143.243 148.558H137.594V154.208H143.243V148.558Z" fill="white"/>
<path d="M154.212 148.558H148.562V154.208H154.212V148.558Z" fill="white"/>
<path d="M60.9658 154.045H55.3164V159.694H60.9658V154.045Z" fill="white"/>
<path d="M66.4541 154.045H60.8047V159.694H66.4541V154.045Z" fill="white"/>
<path d="M93.8779 154.045H88.2285V159.694H93.8779V154.045Z" fill="white"/>
<path d="M99.3603 154.045H93.7109V159.694H99.3603V154.045Z" fill="white"/>
<path d="M110.331 154.045H104.682V159.694H110.331V154.045Z" fill="white"/>
<path d="M137.755 154.045H132.105V159.694H137.755V154.045Z" fill="white"/>
<path d="M143.243 154.045H137.594V159.694H143.243V154.045Z" fill="white"/>
<path d="M148.726 154.045H143.076V159.694H148.726V154.045Z" fill="white"/>
</mask>
<g mask="url(#mask0_0_1)">
<path d="M170.5 -10.501H-10.5V170.499H170.5V-10.501Z" fill="black"/>
</g>
<path d="M0.470703 0.468811V38.8627H38.8646V0.468811H0.470703ZM33.3798 33.3779H5.95555V5.95366H33.3798V33.3779Z" fill="black"/>
<path d="M27.894 11.4376H11.4395V27.8922H27.894V11.4376Z" fill="black"/>
<path d="M121.137 0.468811V38.8627H159.531V0.468811H121.137ZM154.046 33.3779H126.622V5.95366H154.046V33.3779Z" fill="black"/>
<path d="M148.56 11.4376H132.105V27.8921H148.56V11.4376Z" fill="black"/>
<path d="M0.470703 121.136V159.53H38.8646V121.136H0.470703ZM33.3798 154.045H5.95555V126.621H33.3798V154.045Z" fill="black"/>
<path d="M27.894 132.105H11.4395V148.559H27.894V132.105Z" fill="black"/>
</svg>
