<svg width="156" height="155" viewBox="0 0 156 155" fill="none" xmlns="http://www.w3.org/2000/svg">
<g clip-path="url(#clip0_5657_11322)">
<path d="M155.5 0H0.5V155H155.5V0Z" fill="white"/>
<mask id="mask0_5657_11322" style="mask-type:luminance" maskUnits="userSpaceOnUse" x="9" y="9" width="138" height="137">
<path d="M52.3066 9.39258H47.4688V14.2305H52.3066V9.39258Z" fill="white"/>
<path d="M61.6992 9.39258H56.8613V14.2305H61.6992V9.39258Z" fill="white"/>
<path d="M89.8848 9.39258H85.0469V14.2305H89.8848V9.39258Z" fill="white"/>
<path d="M94.5781 9.39258H89.7402V14.2305H94.5781V9.39258Z" fill="white"/>
<path d="M99.2773 9.39258H94.4395V14.2305H99.2773V9.39258Z" fill="white"/>
<path d="M108.672 9.39258H103.834V14.2305H108.672V9.39258Z" fill="white"/>
<path d="M52.3066 14.0898H47.4688V18.9277H52.3066V14.0898Z" fill="white"/>
<path d="M57.0058 14.0898H52.168V18.9277H57.0058V14.0898Z" fill="white"/>
<path d="M61.6992 14.0898H56.8613V18.9277H61.6992V14.0898Z" fill="white"/>
<path d="M71.0976 14.0898H66.2598V18.9277H71.0976V14.0898Z" fill="white"/>
<path d="M80.4902 14.0898H75.6523V18.9277H80.4902V14.0898Z" fill="white"/>
<path d="M85.1875 14.09H80.3496V18.9278H85.1875V14.09Z" fill="white"/>
<path d="M89.8848 14.09H85.0469V18.9278H89.8848V14.09Z" fill="white"/>
<path d="M94.5781 14.0898H89.7402V18.9277H94.5781V14.0898Z" fill="white"/>
<path d="M103.975 14.0898H99.1367V18.9277H103.975V14.0898Z" fill="white"/>
<path d="M52.3066 18.7861H47.4688V23.624H52.3066V18.7861Z" fill="white"/>
<path d="M66.3984 18.7861H61.5605V23.624H66.3984V18.7861Z" fill="white"/>
<path d="M71.0976 18.7861H66.2598V23.624H71.0976V18.7861Z" fill="white"/>
<path d="M85.1875 18.7861H80.3496V23.624H85.1875V18.7861Z" fill="white"/>
<path d="M89.8848 18.7861H85.0469V23.624H89.8848V18.7861Z" fill="white"/>
<path d="M99.2773 18.7861H94.4395V23.624H99.2773V18.7861Z" fill="white"/>
<path d="M103.973 18.7861H99.1348V23.624H103.973V18.7861Z" fill="white"/>
<path d="M108.672 18.7861H103.834V23.624H108.672V18.7861Z" fill="white"/>
<path d="M61.6992 23.4834H56.8613V28.3213H61.6992V23.4834Z" fill="white"/>
<path d="M66.3984 23.4834H61.5605V28.3213H66.3984V23.4834Z" fill="white"/>
<path d="M75.793 23.4834H70.9551V28.3213H75.793V23.4834Z" fill="white"/>
<path d="M80.4902 23.4834H75.6523V28.3213H80.4902V23.4834Z" fill="white"/>
<path d="M85.1875 23.4834H80.3496V28.3213H85.1875V23.4834Z" fill="white"/>
<path d="M89.8848 23.4832H85.0469V28.321H89.8848V23.4832Z" fill="white"/>
<path d="M94.5781 23.4834H89.7402V28.3213H94.5781V23.4834Z" fill="white"/>
<path d="M103.975 23.4834H99.1367V28.3213H103.975V23.4834Z" fill="white"/>
<path d="M57.0058 28.1797H52.168V33.0176H57.0058V28.1797Z" fill="white"/>
<path d="M61.6992 28.1797H56.8613V33.0176H61.6992V28.1797Z" fill="white"/>
<path d="M66.3984 28.1797H61.5605V33.0176H66.3984V28.1797Z" fill="white"/>
<path d="M71.0976 28.1797H66.2598V33.0176H71.0976V28.1797Z" fill="white"/>
<path d="M75.793 28.1797H70.9551V33.0176H75.793V28.1797Z" fill="white"/>
<path d="M89.8848 28.1798H85.0469V33.0177H89.8848V28.1798Z" fill="white"/>
<path d="M99.2773 28.1797H94.4395V33.0176H99.2773V28.1797Z" fill="white"/>
<path d="M103.973 28.1797H99.1348V33.0176H103.973V28.1797Z" fill="white"/>
<path d="M52.3066 32.877H47.4688V37.7148H52.3066V32.877Z" fill="white"/>
<path d="M71.0976 32.877H66.2598V37.7148H71.0976V32.877Z" fill="white"/>
<path d="M75.793 32.877H70.9551V37.7148H75.793V32.877Z" fill="white"/>
<path d="M85.1875 32.877H80.3496V37.7148H85.1875V32.877Z" fill="white"/>
<path d="M89.8848 32.877H85.0469V37.7148H89.8848V32.877Z" fill="white"/>
<path d="M99.2773 32.877H94.4395V37.7148H99.2773V32.877Z" fill="white"/>
<path d="M52.3066 37.5752H47.4688V42.4131H52.3066V37.5752Z" fill="white"/>
<path d="M61.6992 37.5752H56.8613V42.4131H61.6992V37.5752Z" fill="white"/>
<path d="M71.0976 37.5752H66.2598V42.4131H71.0976V37.5752Z" fill="white"/>
<path d="M80.4922 37.5752H75.6543V42.4131H80.4922V37.5752Z" fill="white"/>
<path d="M89.8848 37.5752H85.0469V42.4131H89.8848V37.5752Z" fill="white"/>
<path d="M99.2773 37.5752H94.4395V42.4131H99.2773V37.5752Z" fill="white"/>
<path d="M108.672 37.5752H103.834V42.4131H108.672V37.5752Z" fill="white"/>
<path d="M52.3066 42.2725H47.4688V47.1103H52.3066V42.2725Z" fill="white"/>
<path d="M57.0058 42.2725H52.168V47.1103H57.0058V42.2725Z" fill="white"/>
<path d="M66.3984 42.2725H61.5605V47.1103H66.3984V42.2725Z" fill="white"/>
<path d="M71.0976 42.2725H66.2598V47.1103H71.0976V42.2725Z" fill="white"/>
<path d="M75.793 42.2715H70.9551V47.1094H75.793V42.2715Z" fill="white"/>
<path d="M85.1875 42.2725H80.3496V47.1103H85.1875V42.2725Z" fill="white"/>
<path d="M89.8848 42.2725H85.0469V47.1103H89.8848V42.2725Z" fill="white"/>
<path d="M103.973 42.2725H99.1348V47.1103H103.973V42.2725Z" fill="white"/>
<path d="M24.125 46.9688H19.2871V51.8066H24.125V46.9688Z" fill="white"/>
<path d="M28.8242 46.9688H23.9863V51.8066H28.8242V46.9688Z" fill="white"/>
<path d="M33.5195 46.9688H28.6816V51.8066H33.5195V46.9688Z" fill="white"/>
<path d="M42.9121 46.9686H38.0742V51.8065H42.9121V46.9686Z" fill="white"/>
<path d="M52.3066 46.9686H47.4688V51.8065H52.3066V46.9686Z" fill="white"/>
<path d="M57.0058 46.9686H52.168V51.8065H57.0058V46.9686Z" fill="white"/>
<path d="M61.6992 46.9688H56.8613V51.8066H61.6992V46.9688Z" fill="white"/>
<path d="M85.1875 46.9688H80.3496V51.8066H85.1875V46.9688Z" fill="white"/>
<path d="M89.8848 46.9686H85.0469V51.8065H89.8848V46.9686Z" fill="white"/>
<path d="M99.2773 46.9688H94.4395V51.8066H99.2773V46.9688Z" fill="white"/>
<path d="M113.367 46.9688H108.529V51.8066H113.367V46.9688Z" fill="white"/>
<path d="M118.066 46.9688H113.229V51.8066H118.066V46.9688Z" fill="white"/>
<path d="M122.766 46.9688H117.928V51.8066H122.766V46.9688Z" fill="white"/>
<path d="M136.854 46.9688H132.016V51.8066H136.854V46.9688Z" fill="white"/>
<path d="M141.551 46.9688H136.713V51.8066H141.551V46.9688Z" fill="white"/>
<path d="M146.246 46.9688H141.408V51.8066H146.246V46.9688Z" fill="white"/>
<path d="M24.125 51.665H19.2871V56.5029H24.125V51.665Z" fill="white"/>
<path d="M38.2187 51.665H33.3809V56.5029H38.2187V51.665Z" fill="white"/>
<path d="M47.6113 51.665H42.7734V56.5029H47.6113V51.665Z" fill="white"/>
<path d="M52.3066 51.6653H47.4688V56.5032H52.3066V51.6653Z" fill="white"/>
<path d="M57.0058 51.665H52.168V56.5029H57.0058V51.665Z" fill="white"/>
<path d="M61.6992 51.665H56.8613V56.5029H61.6992V51.665Z" fill="white"/>
<path d="M71.0976 51.665H66.2598V56.5029H71.0976V51.665Z" fill="white"/>
<path d="M80.4922 51.665H75.6543V56.5029H80.4922V51.665Z" fill="white"/>
<path d="M85.1875 51.665H80.3496V56.5029H85.1875V51.665Z" fill="white"/>
<path d="M89.8848 51.6653H85.0469V56.5032H89.8848V51.6653Z" fill="white"/>
<path d="M94.5781 51.665H89.7402V56.5029H94.5781V51.665Z" fill="white"/>
<path d="M113.367 51.665H108.529V56.5029H113.367V51.665Z" fill="white"/>
<path d="M118.066 51.665H113.229V56.5029H118.066V51.665Z" fill="white"/>
<path d="M122.766 51.665H117.928V56.5029H122.766V51.665Z" fill="white"/>
<path d="M127.459 51.665H122.621V56.5029H127.459V51.665Z" fill="white"/>
<path d="M132.158 51.6653H127.32V56.5032H132.158V51.6653Z" fill="white"/>
<path d="M136.854 51.665H132.016V56.5029H136.854V51.665Z" fill="white"/>
<path d="M146.246 51.665H141.408V56.5029H146.246V51.665Z" fill="white"/>
<path d="M19.4316 56.3623H14.5938V61.2002H19.4316V56.3623Z" fill="white"/>
<path d="M24.125 56.3623H19.2871V61.2002H24.125V56.3623Z" fill="white"/>
<path d="M33.5215 56.3623H28.6836V61.2002H33.5215V56.3623Z" fill="white"/>
<path d="M38.2187 56.3623H33.3809V61.2002H38.2187V56.3623Z" fill="white"/>
<path d="M42.9121 56.3623H38.0742V61.2002H42.9121V56.3623Z" fill="white"/>
<path d="M47.6113 56.3623H42.7734V61.2002H47.6113V56.3623Z" fill="white"/>
<path d="M61.6992 56.3623H56.8613V61.2002H61.6992V56.3623Z" fill="white"/>
<path d="M66.3984 56.3623H61.5605V61.2002H66.3984V56.3623Z" fill="white"/>
<path d="M75.793 56.3623H70.9551V61.2002H75.793V56.3623Z" fill="white"/>
<path d="M80.4902 56.3623H75.6523V61.2002H80.4902V56.3623Z" fill="white"/>
<path d="M85.1875 56.3624H80.3496V61.2003H85.1875V56.3624Z" fill="white"/>
<path d="M89.8848 56.3623H85.0469V61.2002H89.8848V56.3623Z" fill="white"/>
<path d="M108.672 56.3623H103.834V61.2002H108.672V56.3623Z" fill="white"/>
<path d="M113.367 56.3623H108.529V61.2002H113.367V56.3623Z" fill="white"/>
<path d="M118.066 56.3623H113.229V61.2002H118.066V56.3623Z" fill="white"/>
<path d="M122.766 56.3623H117.928V61.2002H122.766V56.3623Z" fill="white"/>
<path d="M136.854 56.3623H132.016V61.2002H136.854V56.3623Z" fill="white"/>
<path d="M24.125 61.0596H19.2871V65.8974H24.125V61.0596Z" fill="white"/>
<path d="M47.6113 61.0596H42.7734V65.8974H47.6113V61.0596Z" fill="white"/>
<path d="M52.3066 61.0596H47.4688V65.8974H52.3066V61.0596Z" fill="white"/>
<path d="M57.0058 61.0596H52.168V65.8974H57.0058V61.0596Z" fill="white"/>
<path d="M61.6992 61.0596H56.8613V65.8974H61.6992V61.0596Z" fill="white"/>
<path d="M66.3984 61.0596H61.5605V65.8974H66.3984V61.0596Z" fill="white"/>
<path d="M94.5781 61.0596H89.7402V65.8974H94.5781V61.0596Z" fill="white"/>
<path d="M113.367 61.0596H108.529V65.8974H113.367V61.0596Z" fill="white"/>
<path d="M118.066 61.0596H113.229V65.8974H118.066V61.0596Z" fill="white"/>
<path d="M122.766 61.0596H117.928V65.8974H122.766V61.0596Z" fill="white"/>
<path d="M127.459 61.0596H122.621V65.8974H127.459V61.0596Z" fill="white"/>
<path d="M132.158 61.0596H127.32V65.8974H132.158V61.0596Z" fill="white"/>
<path d="M141.551 61.0596H136.713V65.8974H141.551V61.0596Z" fill="white"/>
<path d="M19.4316 65.7567H14.5938V70.5946H19.4316V65.7567Z" fill="white"/>
<path d="M28.8242 65.7568H23.9863V70.5947H28.8242V65.7568Z" fill="white"/>
<path d="M33.5215 65.7568H28.6836V70.5947H33.5215V65.7568Z" fill="white"/>
<path d="M38.2187 65.7568H33.3809V70.5947H38.2187V65.7568Z" fill="white"/>
<path d="M42.9121 65.7567H38.0742V70.5946H42.9121V65.7567Z" fill="white"/>
<path d="M47.6113 65.7568H42.7734V70.5947H47.6113V65.7568Z" fill="white"/>
<path d="M52.3066 65.7568H47.4688V70.5947H52.3066V65.7568Z" fill="white"/>
<path d="M66.3984 65.7568H61.5605V70.5947H66.3984V65.7568Z" fill="white"/>
<path d="M75.793 65.7568H70.9551V70.5947H75.793V65.7568Z" fill="white"/>
<path d="M80.4902 65.7568H75.6523V70.5947H80.4902V65.7568Z" fill="white"/>
<path d="M85.1875 65.7568H80.3496V70.5947H85.1875V65.7568Z" fill="white"/>
<path d="M89.8848 65.7567H85.0469V70.5946H89.8848V65.7567Z" fill="white"/>
<path d="M108.672 65.7568H103.834V70.5947H108.672V65.7568Z" fill="white"/>
<path d="M113.367 65.7568H108.529V70.5947H113.367V65.7568Z" fill="white"/>
<path d="M122.766 65.7568H117.928V70.5947H122.766V65.7568Z" fill="white"/>
<path d="M136.854 65.7568H132.016V70.5947H136.854V65.7568Z" fill="white"/>
<path d="M141.551 65.7568H136.713V70.5947H141.551V65.7568Z" fill="white"/>
<path d="M146.246 65.7568H141.408V70.5947H146.246V65.7568Z" fill="white"/>
<path d="M24.125 70.4521H19.2871V75.29H24.125V70.4521Z" fill="white"/>
<path d="M28.8242 70.4521H23.9863V75.29H28.8242V70.4521Z" fill="white"/>
<path d="M38.2187 70.4521H33.3809V75.29H38.2187V70.4521Z" fill="white"/>
<path d="M47.6113 70.4521H42.7734V75.29H47.6113V70.4521Z" fill="white"/>
<path d="M61.6992 70.4521H56.8613V75.29H61.6992V70.4521Z" fill="white"/>
<path d="M71.0976 70.4521H66.2598V75.29H71.0976V70.4521Z" fill="white"/>
<path d="M75.793 70.4521H70.9551V75.29H75.793V70.4521Z" fill="white"/>
<path d="M85.1875 70.4521H80.3496V75.29H85.1875V70.4521Z" fill="white"/>
<path d="M94.5781 70.4521H89.7402V75.29H94.5781V70.4521Z" fill="white"/>
<path d="M99.2773 70.4521H94.4395V75.29H99.2773V70.4521Z" fill="white"/>
<path d="M103.973 70.4521H99.1348V75.29H103.973V70.4521Z" fill="white"/>
<path d="M108.672 70.4521H103.834V75.29H108.672V70.4521Z" fill="white"/>
<path d="M113.367 70.4521H108.529V75.29H113.367V70.4521Z" fill="white"/>
<path d="M118.066 70.4521H113.229V75.29H118.066V70.4521Z" fill="white"/>
<path d="M127.459 70.4521H122.621V75.29H127.459V70.4521Z" fill="white"/>
<path d="M132.158 70.4521H127.32V75.29H132.158V70.4521Z" fill="white"/>
<path d="M141.551 70.4521H136.713V75.29H141.551V70.4521Z" fill="white"/>
<path d="M146.246 70.4521H141.408V75.29H146.246V70.4521Z" fill="white"/>
<path d="M14.7324 75.1494H9.89453V79.9873H14.7324V75.1494Z" fill="white"/>
<path d="M33.5215 75.1494H28.6836V79.9873H33.5215V75.1494Z" fill="white"/>
<path d="M42.9121 75.1504H38.0742V79.9883H42.9121V75.1504Z" fill="white"/>
<path d="M52.3066 75.1494H47.4688V79.9873H52.3066V75.1494Z" fill="white"/>
<path d="M57.0058 75.1504H52.168V79.9883H57.0058V75.1504Z" fill="white"/>
<path d="M71.0976 75.1494H66.2598V79.9873H71.0976V75.1494Z" fill="white"/>
<path d="M75.793 75.1504H70.9551V79.9883H75.793V75.1504Z" fill="white"/>
<path d="M80.4902 75.1494H75.6523V79.9873H80.4902V75.1494Z" fill="white"/>
<path d="M99.2773 75.1494H94.4395V79.9873H99.2773V75.1494Z" fill="white"/>
<path d="M108.672 75.1504H103.834V79.9883H108.672V75.1504Z" fill="white"/>
<path d="M113.367 75.1494H108.529V79.9873H113.367V75.1494Z" fill="white"/>
<path d="M118.066 75.1494H113.229V79.9873H118.066V75.1494Z" fill="white"/>
<path d="M122.766 75.1494H117.928V79.9873H122.766V75.1494Z" fill="white"/>
<path d="M14.7324 79.8467H9.89453V84.6846H14.7324V79.8467Z" fill="white"/>
<path d="M19.4316 79.8467H14.5938V84.6846H19.4316V79.8467Z" fill="white"/>
<path d="M24.125 79.8467H19.2871V84.6846H24.125V79.8467Z" fill="white"/>
<path d="M33.5195 79.8467H28.6816V84.6846H33.5195V79.8467Z" fill="white"/>
<path d="M47.6113 79.8467H42.7734V84.6846H47.6113V79.8467Z" fill="white"/>
<path d="M52.3066 79.8467H47.4688V84.6846H52.3066V79.8467Z" fill="white"/>
<path d="M71.0976 79.8467H66.2598V84.6846H71.0976V79.8467Z" fill="white"/>
<path d="M75.793 79.8467H70.9551V84.6846H75.793V79.8467Z" fill="white"/>
<path d="M85.1875 79.8467H80.3496V84.6846H85.1875V79.8467Z" fill="white"/>
<path d="M94.5781 79.8467H89.7402V84.6846H94.5781V79.8467Z" fill="white"/>
<path d="M99.2773 79.8467H94.4395V84.6846H99.2773V79.8467Z" fill="white"/>
<path d="M113.367 79.8467H108.529V84.6846H113.367V79.8467Z" fill="white"/>
<path d="M127.459 79.8467H122.621V84.6846H127.459V79.8467Z" fill="white"/>
<path d="M132.158 79.8467H127.32V84.6846H132.158V79.8467Z" fill="white"/>
<path d="M14.7324 84.5438H9.89453V89.3817H14.7324V84.5438Z" fill="white"/>
<path d="M24.125 84.5439H19.2871V89.3818H24.125V84.5439Z" fill="white"/>
<path d="M42.9121 84.5438H38.0742V89.3817H42.9121V84.5438Z" fill="white"/>
<path d="M47.6113 84.5439H42.7734V89.3818H47.6113V84.5439Z" fill="white"/>
<path d="M57.0058 84.5438H52.168V89.3817H57.0058V84.5438Z" fill="white"/>
<path d="M61.6992 84.5439H56.8613V89.3818H61.6992V84.5439Z" fill="white"/>
<path d="M66.3984 84.5439H61.5605V89.3818H66.3984V84.5439Z" fill="white"/>
<path d="M75.793 84.5439H70.9551V89.3818H75.793V84.5439Z" fill="white"/>
<path d="M99.2773 84.5439H94.4395V89.3818H99.2773V84.5439Z" fill="white"/>
<path d="M127.459 84.5438H122.621V89.3817H127.459V84.5438Z" fill="white"/>
<path d="M132.158 84.5438H127.32V89.3817H132.158V84.5438Z" fill="white"/>
<path d="M136.854 84.5439H132.016V89.3818H136.854V84.5439Z" fill="white"/>
<path d="M141.551 84.5439H136.713V89.3818H141.551V84.5439Z" fill="white"/>
<path d="M146.246 84.5439H141.408V89.3818H146.246V84.5439Z" fill="white"/>
<path d="M14.7324 89.2422H9.89453V94.0801H14.7324V89.2422Z" fill="white"/>
<path d="M24.125 89.2422H19.2871V94.0801H24.125V89.2422Z" fill="white"/>
<path d="M33.5195 89.2422H28.6816V94.0801H33.5195V89.2422Z" fill="white"/>
<path d="M38.2187 89.2422H33.3809V94.0801H38.2187V89.2422Z" fill="white"/>
<path d="M52.3066 89.2422H47.4688V94.0801H52.3066V89.2422Z" fill="white"/>
<path d="M61.6992 89.2422H56.8613V94.0801H61.6992V89.2422Z" fill="white"/>
<path d="M66.3984 89.2422H61.5605V94.0801H66.3984V89.2422Z" fill="white"/>
<path d="M71.0976 89.2422H66.2598V94.0801H71.0976V89.2422Z" fill="white"/>
<path d="M99.2773 89.2422H94.4395V94.0801H99.2773V89.2422Z" fill="white"/>
<path d="M108.672 89.2422H103.834V94.0801H108.672V89.2422Z" fill="white"/>
<path d="M113.367 89.2422H108.529V94.0801H113.367V89.2422Z" fill="white"/>
<path d="M122.766 89.2422H117.928V94.0801H122.766V89.2422Z" fill="white"/>
<path d="M127.459 89.2422H122.621V94.0801H127.459V89.2422Z" fill="white"/>
<path d="M136.854 89.2422H132.016V94.0801H136.854V89.2422Z" fill="white"/>
<path d="M141.551 89.2422H136.713V94.0801H141.551V89.2422Z" fill="white"/>
<path d="M146.246 89.2422H141.408V94.0801H146.246V89.2422Z" fill="white"/>
<path d="M14.7324 93.9385H9.89453V98.7764H14.7324V93.9385Z" fill="white"/>
<path d="M24.125 93.9385H19.2871V98.7764H24.125V93.9385Z" fill="white"/>
<path d="M28.8242 93.9385H23.9863V98.7764H28.8242V93.9385Z" fill="white"/>
<path d="M33.5195 93.9385H28.6816V98.7764H33.5195V93.9385Z" fill="white"/>
<path d="M38.2187 93.9385H33.3809V98.7764H38.2187V93.9385Z" fill="white"/>
<path d="M42.9121 93.9385H38.0742V98.7764H42.9121V93.9385Z" fill="white"/>
<path d="M57.0058 93.9385H52.168V98.7764H57.0058V93.9385Z" fill="white"/>
<path d="M71.0976 93.9385H66.2598V98.7764H71.0976V93.9385Z" fill="white"/>
<path d="M75.793 93.9385H70.9551V98.7764H75.793V93.9385Z" fill="white"/>
<path d="M89.8848 93.9385H85.0469V98.7764H89.8848V93.9385Z" fill="white"/>
<path d="M99.2773 93.9385H94.4395V98.7764H99.2773V93.9385Z" fill="white"/>
<path d="M118.066 93.9385H113.229V98.7764H118.066V93.9385Z" fill="white"/>
<path d="M132.158 93.9385H127.32V98.7764H132.158V93.9385Z" fill="white"/>
<path d="M136.854 93.9385H132.016V98.7764H136.854V93.9385Z" fill="white"/>
<path d="M14.7324 98.6357H9.89453V103.474H14.7324V98.6357Z" fill="white"/>
<path d="M24.125 98.6357H19.2871V103.474H24.125V98.6357Z" fill="white"/>
<path d="M28.8242 98.6357H23.9863V103.474H28.8242V98.6357Z" fill="white"/>
<path d="M33.5195 98.6357H28.6816V103.474H33.5195V98.6357Z" fill="white"/>
<path d="M61.6992 98.6357H56.8613V103.474H61.6992V98.6357Z" fill="white"/>
<path d="M75.793 98.6357H70.9551V103.474H75.793V98.6357Z" fill="white"/>
<path d="M80.4922 98.6357H75.6543V103.474H80.4922V98.6357Z" fill="white"/>
<path d="M85.1875 98.6357H80.3496V103.474H85.1875V98.6357Z" fill="white"/>
<path d="M103.973 98.6357H99.1348V103.474H103.973V98.6357Z" fill="white"/>
<path d="M108.672 98.6357H103.834V103.474H108.672V98.6357Z" fill="white"/>
<path d="M118.066 98.6357H113.229V103.474H118.066V98.6357Z" fill="white"/>
<path d="M122.766 98.6357H117.928V103.474H122.766V98.6357Z" fill="white"/>
<path d="M127.459 98.6357H122.621V103.474H127.459V98.6357Z" fill="white"/>
<path d="M141.551 98.6357H136.713V103.474H141.551V98.6357Z" fill="white"/>
<path d="M146.246 98.6357H141.408V103.474H146.246V98.6357Z" fill="white"/>
<path d="M14.7324 103.332H9.89453V108.17H14.7324V103.332Z" fill="white"/>
<path d="M24.125 103.332H19.2871V108.17H24.125V103.332Z" fill="white"/>
<path d="M28.8242 103.332H23.9863V108.17H28.8242V103.332Z" fill="white"/>
<path d="M38.2187 103.332H33.3809V108.17H38.2187V103.332Z" fill="white"/>
<path d="M42.9121 103.332H38.0742V108.17H42.9121V103.332Z" fill="white"/>
<path d="M47.6113 103.332H42.7734V108.17H47.6113V103.332Z" fill="white"/>
<path d="M52.3066 103.332H47.4688V108.17H52.3066V103.332Z" fill="white"/>
<path d="M71.0976 103.332H66.2598V108.17H71.0976V103.332Z" fill="white"/>
<path d="M80.4922 103.332H75.6543V108.17H80.4922V103.332Z" fill="white"/>
<path d="M85.1875 103.332H80.3496V108.17H85.1875V103.332Z" fill="white"/>
<path d="M89.8848 103.332H85.0469V108.17H89.8848V103.332Z" fill="white"/>
<path d="M103.973 103.332H99.1348V108.17H103.973V103.332Z" fill="white"/>
<path d="M108.672 103.332H103.834V108.17H108.672V103.332Z" fill="white"/>
<path d="M113.367 103.332H108.529V108.17H113.367V103.332Z" fill="white"/>
<path d="M118.066 103.332H113.229V108.17H118.066V103.332Z" fill="white"/>
<path d="M122.766 103.332H117.928V108.17H122.766V103.332Z" fill="white"/>
<path d="M127.459 103.332H122.621V108.17H127.459V103.332Z" fill="white"/>
<path d="M136.854 103.332H132.016V108.17H136.854V103.332Z" fill="white"/>
<path d="M52.3066 108.029H47.4688V112.867H52.3066V108.029Z" fill="white"/>
<path d="M57.0058 108.029H52.168V112.867H57.0058V108.029Z" fill="white"/>
<path d="M61.6992 108.029H56.8613V112.867H61.6992V108.029Z" fill="white"/>
<path d="M66.3984 108.029H61.5605V112.867H66.3984V108.029Z" fill="white"/>
<path d="M71.0976 108.029H66.2598V112.867H71.0976V108.029Z" fill="white"/>
<path d="M75.793 108.029H70.9551V112.867H75.793V108.029Z" fill="white"/>
<path d="M80.4902 108.029H75.6523V112.867H80.4902V108.029Z" fill="white"/>
<path d="M85.1875 108.029H80.3496V112.867H85.1875V108.029Z" fill="white"/>
<path d="M94.5781 108.029H89.7402V112.867H94.5781V108.029Z" fill="white"/>
<path d="M99.2773 108.029H94.4395V112.867H99.2773V108.029Z" fill="white"/>
<path d="M103.975 108.029H99.1367V112.867H103.975V108.029Z" fill="white"/>
<path d="M108.672 108.029H103.834V112.867H108.672V108.029Z" fill="white"/>
<path d="M127.459 108.029H122.621V112.867H127.459V108.029Z" fill="white"/>
<path d="M132.158 108.029H127.32V112.867H132.158V108.029Z" fill="white"/>
<path d="M141.551 108.029H136.713V112.867H141.551V108.029Z" fill="white"/>
<path d="M146.246 108.029H141.408V112.867H146.246V108.029Z" fill="white"/>
<path d="M57.0058 112.726H52.168V117.563H57.0058V112.726Z" fill="white"/>
<path d="M66.3984 112.726H61.5605V117.563H66.3984V112.726Z" fill="white"/>
<path d="M75.793 112.726H70.9551V117.563H75.793V112.726Z" fill="white"/>
<path d="M85.1875 112.726H80.3496V117.563H85.1875V112.726Z" fill="white"/>
<path d="M94.5781 112.726H89.7402V117.563H94.5781V112.726Z" fill="white"/>
<path d="M103.973 112.726H99.1348V117.563H103.973V112.726Z" fill="white"/>
<path d="M108.672 112.726H103.834V117.563H108.672V112.726Z" fill="white"/>
<path d="M118.066 112.726H113.229V117.563H118.066V112.726Z" fill="white"/>
<path d="M127.459 112.726H122.621V117.563H127.459V112.726Z" fill="white"/>
<path d="M61.6992 117.424H56.8613V122.262H61.6992V117.424Z" fill="white"/>
<path d="M80.4902 117.423H75.6523V122.261H80.4902V117.423Z" fill="white"/>
<path d="M85.1875 117.423H80.3496V122.261H85.1875V117.423Z" fill="white"/>
<path d="M99.2773 117.423H94.4395V122.261H99.2773V117.423Z" fill="white"/>
<path d="M103.975 117.423H99.1367V122.261H103.975V117.423Z" fill="white"/>
<path d="M108.672 117.424H103.834V122.262H108.672V117.424Z" fill="white"/>
<path d="M127.459 117.424H122.621V122.262H127.459V117.424Z" fill="white"/>
<path d="M132.158 117.423H127.32V122.261H132.158V117.423Z" fill="white"/>
<path d="M141.551 117.424H136.713V122.262H141.551V117.424Z" fill="white"/>
<path d="M52.3066 122.119H47.4688V126.957H52.3066V122.119Z" fill="white"/>
<path d="M71.0976 122.119H66.2598V126.957H71.0976V122.119Z" fill="white"/>
<path d="M75.793 122.119H70.9551V126.957H75.793V122.119Z" fill="white"/>
<path d="M80.4922 122.119H75.6543V126.957H80.4922V122.119Z" fill="white"/>
<path d="M85.1875 122.119H80.3496V126.957H85.1875V122.119Z" fill="white"/>
<path d="M89.8848 122.119H85.0469V126.957H89.8848V122.119Z" fill="white"/>
<path d="M94.5781 122.119H89.7402V126.957H94.5781V122.119Z" fill="white"/>
<path d="M99.2773 122.119H94.4395V126.957H99.2773V122.119Z" fill="white"/>
<path d="M108.672 122.119H103.834V126.957H108.672V122.119Z" fill="white"/>
<path d="M113.367 122.119H108.529V126.957H113.367V122.119Z" fill="white"/>
<path d="M118.066 122.119H113.229V126.957H118.066V122.119Z" fill="white"/>
<path d="M122.766 122.119H117.928V126.957H122.766V122.119Z" fill="white"/>
<path d="M127.459 122.119H122.621V126.957H127.459V122.119Z" fill="white"/>
<path d="M132.158 122.119H127.32V126.957H132.158V122.119Z" fill="white"/>
<path d="M136.854 122.119H132.016V126.957H136.854V122.119Z" fill="white"/>
<path d="M146.246 122.119H141.408V126.957H146.246V122.119Z" fill="white"/>
<path d="M52.3066 126.816H47.4688V131.654H52.3066V126.816Z" fill="white"/>
<path d="M57.0058 126.817H52.168V131.655H57.0058V126.817Z" fill="white"/>
<path d="M66.3984 126.816H61.5605V131.654H66.3984V126.816Z" fill="white"/>
<path d="M71.0976 126.816H66.2598V131.654H71.0976V126.816Z" fill="white"/>
<path d="M85.1875 126.816H80.3496V131.654H85.1875V126.816Z" fill="white"/>
<path d="M103.975 126.816H99.1367V131.654H103.975V126.816Z" fill="white"/>
<path d="M108.672 126.816H103.834V131.654H108.672V126.816Z" fill="white"/>
<path d="M113.367 126.816H108.529V131.654H113.367V126.816Z" fill="white"/>
<path d="M122.766 126.816H117.928V131.654H122.766V126.816Z" fill="white"/>
<path d="M132.158 126.816H127.32V131.654H132.158V126.816Z" fill="white"/>
<path d="M136.854 126.816H132.016V131.654H136.854V126.816Z" fill="white"/>
<path d="M52.3066 131.513H47.4688V136.351H52.3066V131.513Z" fill="white"/>
<path d="M57.0058 131.514H52.168V136.352H57.0058V131.514Z" fill="white"/>
<path d="M71.0976 131.513H66.2598V136.351H71.0976V131.513Z" fill="white"/>
<path d="M80.4922 131.513H75.6543V136.351H80.4922V131.513Z" fill="white"/>
<path d="M85.1875 131.513H80.3496V136.351H85.1875V131.513Z" fill="white"/>
<path d="M89.8848 131.513H85.0469V136.351H89.8848V131.513Z" fill="white"/>
<path d="M99.2773 131.513H94.4395V136.351H99.2773V131.513Z" fill="white"/>
<path d="M103.973 131.513H99.1348V136.351H103.973V131.513Z" fill="white"/>
<path d="M108.672 131.514H103.834V136.352H108.672V131.514Z" fill="white"/>
<path d="M113.367 131.513H108.529V136.351H113.367V131.513Z" fill="white"/>
<path d="M118.066 131.513H113.229V136.351H118.066V131.513Z" fill="white"/>
<path d="M122.766 131.513H117.928V136.351H122.766V131.513Z" fill="white"/>
<path d="M127.459 131.514H122.621V136.352H127.459V131.514Z" fill="white"/>
<path d="M132.158 131.513H127.32V136.351H132.158V131.513Z" fill="white"/>
<path d="M136.854 131.513H132.016V136.351H136.854V131.513Z" fill="white"/>
<path d="M141.551 131.513H136.713V136.351H141.551V131.513Z" fill="white"/>
<path d="M61.6992 136.211H56.8613V141.049H61.6992V136.211Z" fill="white"/>
<path d="M66.3984 136.211H61.5605V141.049H66.3984V136.211Z" fill="white"/>
<path d="M75.793 136.211H70.9551V141.049H75.793V136.211Z" fill="white"/>
<path d="M80.4922 136.211H75.6543V141.049H80.4922V136.211Z" fill="white"/>
<path d="M85.1875 136.211H80.3496V141.049H85.1875V136.211Z" fill="white"/>
<path d="M108.672 136.211H103.834V141.049H108.672V136.211Z" fill="white"/>
<path d="M127.459 136.211H122.621V141.049H127.459V136.211Z" fill="white"/>
<path d="M132.158 136.211H127.32V141.049H132.158V136.211Z" fill="white"/>
<path d="M141.551 136.211H136.713V141.049H141.551V136.211Z" fill="white"/>
<path d="M61.6992 140.909H56.8613V145.747H61.6992V140.909Z" fill="white"/>
<path d="M66.3984 140.909H61.5605V145.747H66.3984V140.909Z" fill="white"/>
<path d="M89.8848 140.909H85.0469V145.747H89.8848V140.909Z" fill="white"/>
<path d="M94.5781 140.909H89.7402V145.747H94.5781V140.909Z" fill="white"/>
<path d="M103.973 140.909H99.1348V145.747H103.973V140.909Z" fill="white"/>
<path d="M127.459 140.909H122.621V145.747H127.459V140.909Z" fill="white"/>
<path d="M132.158 140.909H127.32V145.747H132.158V140.909Z" fill="white"/>
<path d="M136.854 140.909H132.016V145.747H136.854V140.909Z" fill="white"/>
</mask>
<g mask="url(#mask0_5657_11322)">
<path d="M155.5 -0.000976562H0.5V154.999H155.5V-0.000976562Z" fill="black"/>
</g>
<path d="M9.89453 9.39355V42.2723H42.7733V9.39355H9.89453ZM38.0763 37.5754H14.5915V14.0905H38.0763V37.5754Z" fill="black"/>
<path d="M33.378 18.7871H19.2871V32.878H33.378V18.7871Z" fill="black"/>
<path d="M113.229 9.39355V42.2723H146.107V9.39355H113.229ZM141.41 37.5754H117.925V14.0905H141.41V37.5754Z" fill="black"/>
<path d="M136.712 18.7871H122.621V32.878H136.712V18.7871Z" fill="black"/>
<path d="M9.89453 112.727V145.605H42.7733V112.727H9.89453ZM38.0763 140.908H14.5915V117.424H38.0763V140.908Z" fill="black"/>
<path d="M33.378 122.12H19.2871V136.211H33.378V122.12Z" fill="black"/>
</g>
<defs>
<clipPath id="clip0_5657_11322">
<rect width="155" height="155" fill="white" transform="translate(0.5)"/>
</clipPath>
</defs>
</svg>
