<svg width="30" height="30" viewBox="0 0 30 30" fill="none" xmlns="http://www.w3.org/2000/svg">
<path d="M24.1673 18.6667H18.6673C17.659 18.6667 16.834 17.8417 16.834 16.8334C16.834 15.825 17.659 15 18.6673 15H24.1673C24.1673 15 29.6673 8.86983 29.6673 5.83337C29.6673 2.79692 27.2038 0.333374 24.1673 0.333374C21.1309 0.333374 18.6673 2.79692 18.6673 5.83337C18.6673 7.29431 19.9392 9.46567 21.2626 11.3334H18.6673C15.6366 11.3334 13.1673 13.8026 13.1673 16.8334C13.1673 19.8641 15.6366 22.3334 18.6673 22.3334H24.1673C25.1756 22.3334 26.0007 23.1584 26.0007 24.1667C26.0007 25.175 25.1756 26 24.1673 26H10.9616C10.0449 27.4209 9.02513 28.7329 8.25169 29.6667H24.1673C27.198 29.6667 29.6673 27.1974 29.6673 24.1667C29.6673 21.136 27.198 18.6667 24.1673 18.6667ZM24.1673 4.00004C25.1814 4.00004 26.0007 4.81931 26.0007 5.83337C26.0007 6.84744 25.1814 7.66671 24.1673 7.66671C23.1533 7.66671 22.334 6.84744 22.334 5.83337C22.334 4.81931 23.1533 4.00004 24.1673 4.00004ZM5.83398 15C2.79753 15 0.333984 17.4636 0.333984 20.5C0.333984 23.5365 5.83398 29.6667 5.83398 29.6667C5.83398 29.6667 11.334 23.5365 11.334 20.5C11.334 17.4636 8.87044 15 5.83398 15ZM5.83398 22.3334C4.81992 22.3334 4.00065 21.5141 4.00065 20.5C4.00065 19.486 4.81992 18.6667 5.83398 18.6667C6.84805 18.6667 7.66732 19.486 7.66732 20.5C7.66732 21.5141 6.84805 22.3334 5.83398 22.3334Z" fill="#891F16"/>
</svg>
