<svg width="27" height="27" viewBox="0 0 27 27" fill="none" xmlns="http://www.w3.org/2000/svg">
    <g clip-path="url(#clip0_13614_4871)">
        <path fill-rule="evenodd" clip-rule="evenodd"
              d="M27 13.5C27 20.9558 20.9558 27 13.5 27C6.04416 27 0 20.9558 0 13.5C0 6.04416 6.04416 0 13.5 0C20.9558 0 27 6.04416 27 13.5ZM13.984 9.96649C12.6709 10.5126 10.0466 11.643 6.11107 13.3577C5.472 13.6118 5.13723 13.8604 5.10676 14.1035C5.05525 14.5144 5.56974 14.6762 6.27035 14.8965C6.36565 14.9264 6.46439 14.9575 6.56562 14.9904C7.25491 15.2144 8.18212 15.4766 8.66414 15.487C9.10138 15.4964 9.58939 15.3162 10.1282 14.9462C13.8052 12.4641 15.7034 11.2095 15.8225 11.1824C15.9066 11.1634 16.0231 11.1394 16.1021 11.2095C16.181 11.2797 16.1732 11.4126 16.1649 11.4482C16.1139 11.6655 14.0943 13.543 13.0492 14.5147C12.7234 14.8176 12.4923 15.0325 12.445 15.0815C12.3392 15.1915 12.2313 15.2954 12.1277 15.3954C11.4873 16.0127 11.0071 16.4756 12.1543 17.2316C12.7055 17.5949 13.1467 17.8953 13.5867 18.195C14.0674 18.5223 14.5468 18.8487 15.167 19.2553C15.325 19.3589 15.4759 19.4665 15.6229 19.5713C16.1823 19.97 16.6848 20.3283 17.3056 20.2712C17.6663 20.238 18.039 19.8988 18.2282 18.8871C18.6754 16.4962 19.5545 11.316 19.7577 9.18129C19.7755 8.99426 19.7531 8.75491 19.7351 8.64984C19.7171 8.54477 19.6796 8.39506 19.543 8.28424C19.3812 8.153 19.1315 8.12532 19.0199 8.12729C18.5121 8.13623 17.7331 8.40711 13.984 9.96649Z"
              fill="#891F16"/>
    </g>
    <defs>
        <clipPath id="clip0_13614_4871">
            <rect width="27" height="27" fill="white"/>
        </clipPath>
    </defs>
</svg>
