<svg width="535" height="535" viewBox="0 0 536 537" fill="none" xmlns="http://www.w3.org/2000/svg">
<path d="M356.372 0.896729C403.867 0.896729 449.417 19.7642 483.001 53.3486C516.585 86.9329 535.453 132.483 535.453 179.978H356.372V0.896729Z" fill="#C4C4C4" fill-opacity="0.25"/>
<path d="M0 357.268H179.08V536.35C131.585 536.35 86.0355 517.482 52.4514 483.898C18.8673 450.314 0 404.764 0 357.268Z" fill="#C4C4C4" fill-opacity="0.25"/>
<path d="M178.185 179.074H0L0 357.26H178.185V179.074Z" fill="#C4C4C4" fill-opacity="0.25"/>
<path d="M356.372 357.268H535.453C535.453 404.764 516.585 450.314 483.001 483.898C449.417 517.483 403.867 536.35 356.372 536.35V357.268Z" fill="#C4C4C4" fill-opacity="0.25"/>
<path d="M356.372 179.074H178.187V357.26H356.372V179.074Z" fill="#C4C4C4" fill-opacity="0.25"/>
<path d="M356.372 0.895752L178.187 0.895752V179.082H356.372V0.895752Z" fill="#C4C4C4" fill-opacity="0.25"/>
<path d="M89.5402 0.896118V90.437H0C0 66.6893 9.43367 43.9142 26.2257 27.122C43.0178 10.3299 65.7927 0.896118 89.5402 0.896118Z" fill="#C4C4C4" fill-opacity="0.25"/>
</svg>
