<svg width="27" height="27" viewBox="0 0 27 27" fill="none" xmlns="http://www.w3.org/2000/svg">
<path d="M13.5 0C17.1679 0 17.6256 0.0134999 19.0647 0.0809999C20.5025 0.1485 21.4812 0.37395 22.3425 0.70875C23.2335 1.05165 23.9841 1.51605 24.7347 2.2653C25.4212 2.94016 25.9523 3.75649 26.2913 4.6575C26.6247 5.51745 26.8515 6.49755 26.919 7.9353C26.9825 9.3744 27 9.83205 27 13.5C27 17.1679 26.9865 17.6256 26.919 19.0647C26.8515 20.5025 26.6247 21.4812 26.2913 22.3425C25.9533 23.244 25.422 24.0605 24.7347 24.7347C24.0596 25.4209 23.2434 25.9521 22.3425 26.2913C21.4825 26.6247 20.5025 26.8515 19.0647 26.919C17.6256 26.9825 17.1679 27 13.5 27C9.83205 27 9.3744 26.9865 7.9353 26.919C6.49755 26.8515 5.5188 26.6247 4.6575 26.2913C3.75614 25.953 2.93966 25.4218 2.2653 24.7347C1.5787 24.06 1.04751 23.2436 0.70875 22.3425C0.37395 21.4825 0.1485 20.5025 0.0809999 19.0647C0.0175499 17.6256 0 17.1679 0 13.5C0 9.83205 0.0134999 9.3744 0.0809999 7.9353C0.1485 6.4962 0.37395 5.5188 0.70875 4.6575C1.04657 3.75594 1.57788 2.93938 2.2653 2.2653C2.93986 1.57846 3.75628 1.04723 4.6575 0.70875C5.5188 0.37395 6.4962 0.1485 7.9353 0.0809999C9.3744 0.0175499 9.83205 0 13.5 0ZM13.5 6.75C11.7098 6.75 9.9929 7.46116 8.72703 8.72703C7.46116 9.9929 6.75 11.7098 6.75 13.5C6.75 15.2902 7.46116 17.0071 8.72703 18.273C9.9929 19.5388 11.7098 20.25 13.5 20.25C15.2902 20.25 17.0071 19.5388 18.273 18.273C19.5388 17.0071 20.25 15.2902 20.25 13.5C20.25 11.7098 19.5388 9.9929 18.273 8.72703C17.0071 7.46116 15.2902 6.75 13.5 6.75ZM22.275 6.4125C22.275 5.96495 22.0972 5.53573 21.7807 5.21926C21.4643 4.90279 21.0351 4.725 20.5875 4.725C20.1399 4.725 19.7107 4.90279 19.3943 5.21926C19.0778 5.53573 18.9 5.96495 18.9 6.4125C18.9 6.86005 19.0778 7.28928 19.3943 7.60574C19.7107 7.92221 20.1399 8.1 20.5875 8.1C21.0351 8.1 21.4643 7.92221 21.7807 7.60574C22.0972 7.28928 22.275 6.86005 22.275 6.4125ZM13.5 9.45C14.5741 9.45 15.6043 9.87669 16.3638 10.6362C17.1233 11.3957 17.55 12.4259 17.55 13.5C17.55 14.5741 17.1233 15.6043 16.3638 16.3638C15.6043 17.1233 14.5741 17.55 13.5 17.55C12.4259 17.55 11.3957 17.1233 10.6362 16.3638C9.87669 15.6043 9.45 14.5741 9.45 13.5C9.45 12.4259 9.87669 11.3957 10.6362 10.6362C11.3957 9.87669 12.4259 9.45 13.5 9.45Z" fill="white"/>
</svg>
