<svg width="27" height="27" viewBox="0 0 27 27" fill="none" xmlns="http://www.w3.org/2000/svg">
<path d="M10.8 18.2857L17.8065 14L10.8 9.71429V18.2857ZM26.406 7.1C26.5815 7.77143 26.703 8.67143 26.784 9.81429C26.8785 10.9571 26.919 11.9429 26.919 12.8L27 14C27 17.1286 26.784 19.4286 26.406 20.9C26.0685 22.1857 25.2855 23.0143 24.0705 23.3714C23.436 23.5571 22.275 23.6857 20.493 23.7714C18.738 23.8714 17.1315 23.9143 15.6465 23.9143L13.5 24C7.8435 24 4.32 23.7714 2.9295 23.3714C1.7145 23.0143 0.9315 22.1857 0.594 20.9C0.4185 20.2286 0.297 19.3286 0.216 18.1857C0.1215 17.0429 0.0809999 16.0571 0.0809999 15.2L0 14C0 10.8714 0.216 8.57143 0.594 7.1C0.9315 5.81429 1.7145 4.98571 2.9295 4.62857C3.564 4.44286 4.725 4.31429 6.507 4.22857C8.262 4.12857 9.8685 4.08571 11.3535 4.08571L13.5 4C19.1565 4 22.68 4.22857 24.0705 4.62857C25.2855 4.98571 26.0685 5.81429 26.406 7.1Z" fill="white"/>
</svg>
