<svg width="24" height="24" viewBox="0 0 24 24" fill="none" xmlns="http://www.w3.org/2000/svg">
    <path d="M12.0228 2H11.9772C6.46696 2 2 6.46696 2 11.9772V12.0228C2 17.533 6.46696 22 11.9772 22H12.0228C17.533 22 22 17.533 22 12.0228V11.9772C22 6.46696 17.533 2 12.0228 2Z"
          fill="#D3CDCA"/>
    <path d="M11.2261 12.3759C11.0523 12.158 10.8533 11.9913 10.6305 11.8784C10.8274 11.7586 10.997 11.6115 11.1371 11.4363C11.3732 11.1406 11.4931 10.7699 11.4931 10.3341C11.4931 9.97045 11.3971 9.63621 11.2072 9.34122C11.018 9.04622 10.7363 8.80939 10.3698 8.63701C10.0111 8.46815 9.57875 8.38266 9.08616 8.38266H6.28407V15.6188H9.21508C9.69506 15.6188 10.1239 15.5312 10.489 15.3588C10.861 15.1836 11.1511 14.9384 11.3501 14.6308C11.5498 14.3218 11.6514 13.9707 11.6514 13.5874C11.6514 13.1383 11.5085 12.7305 11.2261 12.3759ZM9.7378 11.0572C9.56473 11.1974 9.31178 11.2688 8.98736 11.2688H7.77515V9.66564H8.98736C9.31038 9.66564 9.56193 9.73921 9.735 9.88496C9.90107 10.0244 9.98165 10.2171 9.98165 10.4721C9.98165 10.7272 9.90177 10.9248 9.7378 11.0572ZM7.77515 12.5525H9.07635C9.41689 12.5525 9.67895 12.6352 9.87724 12.8055C10.0671 12.9687 10.1596 13.1852 10.1596 13.4683C10.1596 13.7514 10.0741 13.9511 9.89756 14.1004C9.71468 14.2552 9.45192 14.3337 9.11559 14.3337H7.77515V12.5525Z"
          fill="white"/>
    <path d="M17.3761 11.1658C17.1505 10.758 16.831 10.4364 16.426 10.2108C16.0217 9.98517 15.5543 9.87095 15.0386 9.87095C14.5229 9.87095 14.0205 9.98868 13.6064 10.2206C13.1916 10.4532 12.865 10.7875 12.6366 11.2156C12.4082 11.643 12.2926 12.1447 12.2926 12.7067C12.2926 13.2686 12.4117 13.771 12.6471 14.1978C12.8825 14.6252 13.2119 14.9615 13.6267 15.197C14.0408 15.4324 14.5159 15.5515 15.0393 15.5515C15.6818 15.5515 16.2277 15.3882 16.6621 15.0666C17.0965 14.745 17.4006 14.326 17.5667 13.8222L17.5786 13.7864H16.3076L16.2998 13.8019C16.0553 14.2973 15.6314 14.5481 15.0386 14.5481C14.6259 14.5481 14.2727 14.4171 13.9889 14.1599C13.7122 13.9084 13.5531 13.572 13.516 13.1593H17.6725L17.676 13.1362C17.7026 12.9701 17.716 12.7823 17.716 12.5784C17.716 12.0487 17.6017 11.5737 17.3761 11.1658ZM14.0086 11.2387C14.279 10.997 14.6091 10.8751 14.9888 10.8751C15.4086 10.8751 15.7652 10.9991 16.049 11.2443C16.3251 11.4826 16.4715 11.8028 16.4841 12.1952H13.5279C13.5839 11.7965 13.7451 11.4741 14.0086 11.2387Z"
          fill="white"/>
    <path d="M16.3881 8.54873H13.6197V9.20459H16.3881V8.54873Z" fill="white"/>
</svg>
