<svg width="62" height="62" viewBox="0 0 62 62" fill="none" xmlns="http://www.w3.org/2000/svg">
<circle cx="31" cy="31" r="29.5" fill="white" stroke="#E04031" stroke-width="3"/>
<path d="M45.0335 18.6333C44.1973 17.7943 43.2038 17.1285 42.1098 16.6743C41.0159 16.22 39.843 15.9862 38.6585 15.9862C37.474 15.9862 36.3011 16.22 35.2071 16.6743C34.1131 17.1285 33.1196 17.7943 32.2835 18.6333L31.0001 19.9333L29.7168 18.6333C28.8807 17.7943 27.8871 17.1285 26.7932 16.6743C25.6992 16.22 24.5263 15.9862 23.3418 15.9862C22.1573 15.9862 20.9844 16.22 19.8904 16.6743C18.7965 17.1285 17.8029 17.7943 16.9668 18.6333C13.4335 22.1666 13.2168 28.1333 17.6668 32.6666L31.0001 46L44.3335 32.6666C48.7835 28.1333 48.5668 22.1666 45.0335 18.6333Z" stroke="#E04031" stroke-width="2" stroke-linecap="round" stroke-linejoin="round"/>
<path d="M31.0002 19.9333L25.7835 25.1667C25.124 25.8316 24.7539 26.7302 24.7539 27.6667C24.7539 28.6032 25.124 29.5018 25.7835 30.1667V30.1667C26.4484 30.8262 27.347 31.1963 28.2835 31.1963C29.22 31.1963 30.1186 30.8262 30.7835 30.1667L34.5502 26.4833C35.4863 25.5572 36.75 25.0377 38.0668 25.0377C39.3837 25.0377 40.6474 25.5572 41.5835 26.4833L45.5835 30.4833M41.0002 36L37.6668 32.6667M36.0002 41L32.6668 37.6667" stroke="#E04031" stroke-width="2" stroke-linecap="round" stroke-linejoin="round"/>
</svg>
