<svg width="36" height="33" viewBox="0 0 36 33" fill="none" xmlns="http://www.w3.org/2000/svg">
<path d="M32.0335 4.6333C31.1973 3.79426 30.2038 3.12853 29.1098 2.67428C28.0159 2.22003 26.843 1.98621 25.6585 1.98621C24.474 1.98621 23.3011 2.22003 22.2071 2.67428C21.1131 3.12853 20.1196 3.79426 19.2835 4.6333L18.0001 5.9333L16.7168 4.6333C15.8807 3.79426 14.8871 3.12853 13.7932 2.67428C12.6992 2.22003 11.5263 1.98621 10.3418 1.98621C9.15728 1.98621 7.98441 2.22003 6.89044 2.67428C5.79648 3.12853 4.80294 3.79426 3.96681 4.6333C0.433477 8.16664 0.21681 14.1333 4.66681 18.6666L18.0001 32L31.3335 18.6666C35.7835 14.1333 35.5668 8.16664 32.0335 4.6333Z" stroke="#E04031" stroke-width="2" stroke-linecap="round" stroke-linejoin="round"/>
<path d="M18.0002 5.93335L12.7835 11.1667C12.124 11.8316 11.7539 12.7302 11.7539 13.6667C11.7539 14.6032 12.124 15.5018 12.7835 16.1667V16.1667C13.4484 16.8262 14.347 17.1963 15.2835 17.1963C16.22 17.1963 17.1186 16.8262 17.7835 16.1667L21.5502 12.4833C22.4863 11.5572 23.75 11.0377 25.0668 11.0377C26.3837 11.0377 27.6474 11.5572 28.5835 12.4833L32.5835 16.4833M28.0002 22L24.6668 18.6667M23.0002 27L19.6668 23.6667" stroke="#E04031" stroke-width="2" stroke-linecap="round" stroke-linejoin="round"/>
</svg>
