<svg width="131" height="22" viewBox="0 0 131 22" fill="none" xmlns="http://www.w3.org/2000/svg">
<path d="M3.10598 0.00805664V3.05968H0C0 2.25034 0.327237 1.47415 0.909721 0.901856C1.49221 0.329566 2.28222 0.00805664 3.10598 0.00805664Z" fill="#DB3424"/>
<path d="M12.3618 0.00805664H6.18091V6.08079H12.3618V0.00805664Z" fill="#8D1F16"/>
<path d="M12.3618 6.08081H6.18091V12.1535H12.3618V6.08081Z" fill="#DB3424"/>
<path d="M12.3618 12.1533H18.5738C18.5738 13.772 17.9193 15.3244 16.7543 16.469C15.5894 17.6135 14.0093 18.2566 12.3618 18.2566V12.1533Z" fill="#1D1F23"/>
<path d="M6.18091 6.08081H0V12.1535H6.18091V6.08081Z" fill="#8D1F16"/>
<path d="M0 12.1533H6.21197V18.2566C4.56445 18.2566 2.98441 17.6135 1.81944 16.469C0.654473 15.3244 0 13.772 0 12.1533Z" fill="#1D1F23"/>
<path d="M12.3618 0.00805664C14.0093 0.00805664 15.5894 0.651075 16.7543 1.79566C17.9193 2.94024 18.5738 4.49262 18.5738 6.1113H12.3618V0.00805664Z" fill="#1D1F23"/>
<path d="M36.7127 11.9093C36.6742 12.4489 36.5128 12.9731 36.2404 13.4432C35.968 13.9133 35.5916 14.3173 35.139 14.6252C34.031 15.3962 32.6964 15.7892 31.3394 15.7442C30.4701 15.7863 29.6016 15.6467 28.7914 15.3346C27.9811 15.0225 27.2475 14.5449 26.639 13.9335C26.036 13.3076 25.5668 12.5692 25.2591 11.762C24.9515 10.9548 24.8116 10.0952 24.8479 9.23404C24.8093 8.36697 24.951 7.50127 25.2643 6.68978C25.5776 5.8783 26.0559 5.13804 26.6701 4.5142C27.3101 3.88884 28.0769 3.40268 28.9205 3.08724C29.7641 2.77181 30.6659 2.63416 31.5672 2.68323C32.8467 2.61617 34.116 2.93949 35.2012 3.60889C35.5792 3.82915 35.8931 4.14144 36.1125 4.51561C36.332 4.88978 36.4495 5.31321 36.4539 5.74502C36.4413 6.21334 36.3683 6.67819 36.2365 7.12842L36.0294 7.87099H38.6902L38.8352 7.49462C39.0722 6.9406 39.1953 6.34599 39.1975 5.74502C39.2076 4.92636 39.0127 4.11781 38.63 3.39055C38.2472 2.66329 37.6884 2.03963 37.0026 1.57447C35.4108 0.480701 33.4977 -0.0696201 31.5568 0.00797127C30.2907 -0.043972 29.0271 0.158366 27.8433 0.602612C26.6595 1.04686 25.5804 1.72368 24.6719 2.59168C23.8042 3.46504 23.1257 4.5021 22.6773 5.64024C22.2289 6.77838 22.0199 7.994 22.0629 9.2137C22.0201 10.4242 22.2223 11.6311 22.6577 12.7643C23.0931 13.8975 23.7531 14.9346 24.5994 15.8154C25.4548 16.6808 26.4858 17.3598 27.6255 17.8084C28.7652 18.257 29.9882 18.4652 31.2151 18.4194C33.2513 18.4797 35.2469 17.8513 36.868 16.6393C37.6107 16.0926 38.2252 15.3955 38.6699 14.5953C39.1147 13.795 39.3793 12.9103 39.446 12.0008L39.5081 11.3702H36.7541L36.7127 11.9093Z" fill="#1D1F23"/>
<path d="M40.7712 7.63702H45.6476V18.2261H48.3912V7.63702H53.2676V5.18555H40.7712V7.63702Z" fill="#1D1F23"/>
<path d="M61.9954 5.01271C60.9103 4.99883 59.8402 5.26169 58.8894 5.77561C58.4827 5.9954 58.1039 6.26173 57.7609 6.56903V5.18563H55.0276V22.0001H57.7713V16.8428C58.1166 17.1501 58.495 17.4196 58.8998 17.6464C59.8485 18.1665 60.9194 18.4331 62.0058 18.4195C62.8673 18.4407 63.7235 18.28 64.5165 17.9484C65.3095 17.6167 66.0209 17.1218 66.6026 16.497C67.7819 15.1803 68.4009 13.4686 68.3316 11.7161C68.405 9.95807 67.7815 8.24058 66.5923 6.92506C66.01 6.30157 65.2983 5.80818 64.5053 5.47826C63.7122 5.14833 62.8563 4.98957 61.9954 5.01271ZM61.7262 7.5659C62.2499 7.5485 62.7711 7.6432 63.2538 7.84344C63.7365 8.04367 64.1691 8.34466 64.5216 8.72551C65.2758 9.54106 65.6736 10.6151 65.6294 11.7161C65.6742 12.8142 65.2761 13.8853 64.5216 14.6965C64.1565 15.0607 63.7213 15.3498 63.2414 15.5472C62.7615 15.7446 62.2465 15.8463 61.7262 15.8463C61.206 15.8463 60.6909 15.7446 60.211 15.5472C59.7311 15.3498 59.2959 15.0607 58.9308 14.6965C58.1763 13.8853 57.7782 12.8142 57.823 11.7161C57.7981 11.169 57.8831 10.6223 58.0732 10.1075C58.2632 9.5926 58.5547 9.11955 58.9308 8.71534C59.2851 8.33741 59.7183 8.03906 60.2008 7.84069C60.6832 7.64231 61.2035 7.54858 61.7262 7.5659Z" fill="#1D1F23"/>
<path d="M72.9077 5.18555H70.1641V18.2261H72.9077V5.18555Z" fill="#1D1F23"/>
<path d="M74.6678 7.63702H79.5442V18.2261H82.2879V7.63702H87.1643V5.18555H74.6678V7.63702Z" fill="#1D1F23"/>
<path d="M98.9981 15.4084L95.8196 11.5328L98.5632 8.01329C98.6625 7.87611 98.7948 7.76526 98.9484 7.6907C99.102 7.61614 99.272 7.58018 99.4432 7.58607H100.24V5.09391H98.9566C98.457 5.08346 97.963 5.19965 97.5224 5.43126C97.0817 5.66288 96.7092 6.00212 96.4408 6.41628L93.6661 9.95616C93.5841 10.0816 93.4704 10.184 93.3361 10.2535C93.2019 10.323 93.0517 10.3573 92.9 10.3529H91.6679V5.18546H88.9243V18.2261H91.6679V12.784H92.931C93.0918 12.784 93.2503 12.8208 93.394 12.8914C93.5378 12.962 93.6629 13.0645 93.7593 13.1909L96.8653 16.9851C97.1349 17.4012 97.5088 17.7423 97.9511 17.9757C98.3935 18.209 98.8895 18.3268 99.3915 18.3176H100.551V15.8458H99.8574C99.6887 15.8472 99.5223 15.808 99.3725 15.7318C99.2227 15.6556 99.0942 15.5446 98.9981 15.4084Z" fill="#1D1F23"/>
<path d="M108.254 5.01257C107.358 4.98662 106.465 5.14109 105.632 5.46646C104.799 5.79183 104.042 6.28124 103.408 6.90457C102.782 7.54188 102.292 8.29587 101.966 9.12217C101.641 9.94847 101.487 10.8304 101.514 11.716C101.488 12.5992 101.644 13.4785 101.971 14.3016C102.298 15.1246 102.791 15.8746 103.419 16.507C104.723 17.7331 106.459 18.4174 108.264 18.4174C110.069 18.4174 111.805 17.7331 113.11 16.507C113.743 15.8774 114.24 15.1283 114.571 14.3049C114.902 13.4816 115.06 12.6009 115.035 11.716C115.061 10.8287 114.905 9.94548 114.576 9.11886C114.247 8.29224 113.751 7.53918 113.12 6.90457C112.482 6.28114 111.722 5.79187 110.885 5.46659C110.048 5.14131 109.153 4.98683 108.254 5.01257ZM108.254 15.8458C107.72 15.8622 107.188 15.7673 106.694 15.5675C106.199 15.3676 105.754 15.0673 105.386 14.6862C105.005 14.2905 104.709 13.8237 104.515 13.3135C104.321 12.8033 104.234 12.2601 104.257 11.716C104.229 11.1668 104.315 10.6178 104.509 10.102C104.703 9.58629 105.001 9.11452 105.386 8.7152C106.158 7.98184 107.19 7.5719 108.264 7.5719C109.338 7.5719 110.37 7.98184 111.142 8.7152C111.526 9.11397 111.825 9.58372 112.023 10.0971C112.22 10.6105 112.311 11.1574 112.292 11.7058C112.313 12.2513 112.222 12.7954 112.024 13.3057C111.827 13.816 111.527 14.282 111.142 14.676C110.772 15.06 110.323 15.3627 109.825 15.5643C109.328 15.7659 108.792 15.8618 108.254 15.8458Z" fill="#1D1F23"/>
<path d="M128.795 15.795V5.18555H118.607V5.76535C118.651 8.16534 118.519 10.5653 118.214 12.9468C118.12 13.9671 117.764 14.9472 117.178 15.795H115.191V22H117.82V18.2261H128.381V22H131V15.795H128.795ZM126.051 7.65736V15.795H120.16C120.823 14.1166 121.195 11.4312 121.195 7.65736H126.051Z" fill="#1D1F23"/>
<path d="M109.978 11.6996L108.272 10.0237L106.566 11.6996L108.272 13.3755L109.978 11.6996Z" fill="#1D1F23"/>
<path d="M73.241 1.68714L71.5353 0.0112305L69.8295 1.68714L71.5353 3.36305L73.241 1.68714Z" fill="#1D1F23"/>
</svg>
