<svg id="Основна_частина_текст" data-name="Основна частина+текст" xmlns="http://www.w3.org/2000/svg"  height = "40" width = "180" viewBox="0 0 139.61 21.62"><defs><style>.cls-1{fill:#e04031;}.cls-2{fill:#891f1d;}.cls-3{fill:#111920;}.cls-4{fill:#231f20;}</style></defs><title>лого бета</title><path class="cls-1" d="M3,0H3A0,0,0,0,1,3,0V3A0,0,0,0,1,3,3H0A0,0,0,0,1,0,3V3A3,3,0,0,1,3,0Z"/><rect class="cls-2" x="5.97" width="5.97" height="5.97"/><rect class="cls-1" x="5.97" y="5.97" width="5.97" height="5.97"/><path class="cls-3" d="M11.94,11.94h6a0,0,0,0,1,0,0v0a6,6,0,0,1-6,6h0a0,0,0,0,1,0,0v-6A0,0,0,0,1,11.94,11.94Z"/><rect class="cls-2" y="5.97" width="5.97" height="5.97"/><path class="cls-3" d="M0,11.94H6a0,0,0,0,1,0,0v6a0,0,0,0,1,0,0H6a6,6,0,0,1-6-6v0A0,0,0,0,1,0,11.94Z"/><path class="cls-3" d="M11.94,0h0a6,6,0,0,1,6,6V6a0,0,0,0,1,0,0h-6a0,0,0,0,1,0,0V0A0,0,0,0,1,11.94,0Z"/><path class="cls-3" d="M-321.09,1817.47a3.56,3.56,0,0,1-1.52,2.67,5.94,5.94,0,0,1-3.67,1.1,5.94,5.94,0,0,1-4.54-1.79,6.34,6.34,0,0,1-1.72-4.61,6.32,6.32,0,0,1,1.76-4.65,6.25,6.25,0,0,1,4.73-1.8,6,6,0,0,1,3.45.91,2.47,2.47,0,0,1,1.22,2.1,5.38,5.38,0,0,1-.22,1.34l-0.2.73h2.57l0.14-.37a4.71,4.71,0,0,0,.35-1.73,4.91,4.91,0,0,0-2.13-4.1,8.55,8.55,0,0,0-5.22-1.52,9,9,0,0,0-6.64,2.54,8.88,8.88,0,0,0-2.52,6.51,9,9,0,0,0,2.44,6.49,8.49,8.49,0,0,0,6.39,2.56,8.6,8.6,0,0,0,5.47-1.74,6.28,6.28,0,0,0,2.49-4.56l0.05-.63h-2.66Z" transform="translate(356.55 -1805.77)"/><polygon class="cls-3" points="39.38 7.5 44.09 7.5 44.09 17.91 46.74 17.91 46.74 7.5 51.45 7.5 51.45 5.09 39.38 5.09 39.38 7.5"/><path class="cls-3" d="M-296.67,1810.69a6.09,6.09,0,0,0-3,.75,5.8,5.8,0,0,0-1.09.78v-1.36h-2.65v16.53h2.65v-5.07a5.9,5.9,0,0,0,1.09.79,6,6,0,0,0,3,.76,5.8,5.8,0,0,0,4.44-1.89,6.69,6.69,0,0,0,1.73-4.7,6.68,6.68,0,0,0-1.73-4.71A5.82,5.82,0,0,0-296.67,1810.69Zm-0.26,2.51a3.49,3.49,0,0,1,2.7,1.14,4.12,4.12,0,0,1,1.07,2.94,4.07,4.07,0,0,1-1.07,2.93,3.51,3.51,0,0,1-2.7,1.13,3.51,3.51,0,0,1-2.7-1.13,4.08,4.08,0,0,1-1.07-2.93,4.11,4.11,0,0,1,1.07-3A3.51,3.51,0,0,1-296.93,1813.19Z" transform="translate(356.55 -1805.77)"/><rect class="cls-3" x="67.77" y="5.09" width="2.65" height="12.82"/><polygon class="cls-3" points="72.12 7.5 76.83 7.5 76.83 17.91 79.48 17.91 79.48 7.5 84.19 7.5 84.19 5.09 72.12 5.09 72.12 7.5"/><path class="cls-3" d="M-260.93,1820.91l-3.07-3.81,2.65-3.47a1,1,0,0,1,.84-0.42h0.77v-2.41H-261a2.78,2.78,0,0,0-2.42,1.27l-2.69,3.47a0.83,0.83,0,0,1-.73.39H-268v-5.09h-2.65v12.82H-268v-5.35h1.22a1,1,0,0,1,.8.4l3,3.73a2.83,2.83,0,0,0,2.44,1.26h1.12v-2.39h-0.67A1,1,0,0,1-260.93,1820.91Z" transform="translate(356.55 -1805.77)"/><path class="cls-3" d="M-252,1810.69a6.32,6.32,0,0,0-4.68,1.86,6.48,6.48,0,0,0-1.83,4.72,6.46,6.46,0,0,0,1.85,4.71,6.31,6.31,0,0,0,4.67,1.88,6.35,6.35,0,0,0,4.68-1.87,6.44,6.44,0,0,0,1.86-4.71,6.46,6.46,0,0,0-1.85-4.73A6.37,6.37,0,0,0-252,1810.69Zm0,10.65a3.64,3.64,0,0,1-2.77-1.13,4,4,0,0,1-1.09-2.92,4.06,4.06,0,0,1,1.09-2.95,3.64,3.64,0,0,1,2.77-1.13,3.66,3.66,0,0,1,2.79,1.15,4,4,0,0,1,1.1,2.94,4,4,0,0,1-1.1,2.92A3.67,3.67,0,0,1-252,1821.33Z" transform="translate(356.55 -1805.77)"/><path class="cls-3" d="M-232.15,1821.28v-10.43H-242v0.58a48.73,48.73,0,0,1-.38,7.05,5.9,5.9,0,0,1-1,2.8h-1.92v6.1h2.53v-3.71h10.2v3.71H-230v-6.1h-2.15Zm-2.65-8v8h-5.69c0.64-1.65,1-4.29,1-8h4.69Z" transform="translate(356.55 -1805.77)"/><rect class="cls-3" x="-253.14" y="1816.1" width="2.33" height="2.33" transform="translate(1567.75 -1095.33) rotate(45)"/><rect class="cls-3" x="-288.62" y="1806.25" width="2.33" height="2.33" transform="translate(1550.39 -1073.12) rotate(45)"/><path class="cls-4" d="M-229.17,1805.77h1.86a1.37,1.37,0,0,1,.91.29,0.93,0.93,0,0,1,.35.74,0.91,0.91,0,0,1-.17.54,1,1,0,0,1-.46.35,1.06,1.06,0,0,1,.56.36,1,1,0,0,1,.2.61,1,1,0,0,1-.35.77,1.37,1.37,0,0,1-.91.3h-2v-4Zm1.86,0.33h-1.48v1.46h1.48a1,1,0,0,0,.65-0.21,0.66,0.66,0,0,0,.24-0.53,0.65,0.65,0,0,0-.24-0.52A1,1,0,0,0-227.31,1806.09Zm0.13,1.77h-1.61v1.52h1.61a1,1,0,0,0,.65-0.21,0.69,0.69,0,0,0,.25-0.55,0.7,0.7,0,0,0-.25-0.55A1,1,0,0,0-227.18,1807.87Z" transform="translate(356.55 -1805.77)"/><path class="cls-4" d="M-224.9,1809.36a1.4,1.4,0,0,1-.4-1,1.4,1.4,0,0,1,.4-1,1.4,1.4,0,0,1,1-.4,1.34,1.34,0,0,1,.91.31,1,1,0,0,1,.35.78,1.3,1.3,0,0,1-.08.44h-2.26a1.06,1.06,0,0,0,.33.73,1.1,1.1,0,0,0,.79.28,1.11,1.11,0,0,0,.64-0.18,0.61,0.61,0,0,0,.29-0.45h0.32a0.93,0.93,0,0,1-.4.68,1.44,1.44,0,0,1-.88.27A1.4,1.4,0,0,1-224.9,1809.36Zm0-1.22h2c0-.07,0-0.11,0-0.14a0.72,0.72,0,0,0-.26-0.57,1,1,0,0,0-.67-0.22,1.05,1.05,0,0,0-.73.26A1.09,1.09,0,0,0-224.94,1808.14Z" transform="translate(356.55 -1805.77)"/><path class="cls-4" d="M-220.38,1807.23h-0.82v1.71a0.51,0.51,0,0,0,.13.37,0.47,0.47,0,0,0,.36.14,0.5,0.5,0,0,0,.33-0.09v0.28a0.74,0.74,0,0,1-.45.11,0.7,0.7,0,0,1-.53-0.2,0.77,0.77,0,0,1-.19-0.55v-1.76h-0.51v-0.3h0.51v-0.68l0.36-.14v0.82h0.82v0.3Z" transform="translate(356.55 -1805.77)"/><path class="cls-4" d="M-218.76,1808.14h1.08v-0.25a0.6,0.6,0,0,0-.24-0.48,0.9,0.9,0,0,0-.59-0.19,0.86,0.86,0,0,0-.55.18,0.64,0.64,0,0,0-.25.45h-0.33a1,1,0,0,1,.36-0.68,1.21,1.21,0,0,1,.8-0.27,1.24,1.24,0,0,1,.83.28,0.89,0.89,0,0,1,.33.71v1.32a0.27,0.27,0,0,0,.06.18,0.21,0.21,0,0,0,.16.07,0.29,0.29,0,0,0,.16,0v0.26a0.43,0.43,0,0,1-.27.08,0.46,0.46,0,0,1-.34-0.13,0.47,0.47,0,0,1-.13-0.35h0a1.16,1.16,0,0,1-.45.36,1.4,1.4,0,0,1-.61.13,1.12,1.12,0,0,1-.73-0.23,0.75,0.75,0,0,1-.28-0.61,0.69,0.69,0,0,1,.26-0.57A1.13,1.13,0,0,1-218.76,1808.14Zm-0.63.77a0.45,0.45,0,0,0,.2.38,0.86,0.86,0,0,0,.51.14,1.08,1.08,0,0,0,.71-0.24,0.75,0.75,0,0,0,.3-0.6v-0.18h-1a0.84,0.84,0,0,0-.5.14A0.42,0.42,0,0,0-219.39,1808.91Z" transform="translate(356.55 -1805.77)"/></svg>