<svg width="171" height="29" viewBox="0 0 171 29" fill="none" xmlns="http://www.w3.org/2000/svg">
<path d="M4.05977 0.0102539V4.03851H0C0 2.97015 0.427724 1.94555 1.18908 1.1901C1.95043 0.434658 2.98305 0.0102539 4.05977 0.0102539V0.0102539Z" fill="#DB3424"/>
<path d="M16.1303 0.0102539H8.06494V8.01306H16.1303V0.0102539Z" fill="#8D1F16"/>
<path d="M16.1303 8.0127H8.06494V16.0155H16.1303V8.0127Z" fill="#DB3424"/>
<path d="M16.1299 16.0156H24.2494C24.2494 17.0736 24.0394 18.1213 23.6314 19.0987C23.2233 20.0762 22.6252 20.9643 21.8713 21.7124C21.1173 22.4606 20.2222 23.054 19.2371 23.4589C18.252 23.8638 17.1962 24.0721 16.1299 24.0721V16.0156Z" fill="#1D1F23"/>
<path d="M8.0654 8.0127H0V16.0155H8.0654V8.0127Z" fill="#8D1F16"/>
<path d="M0 16.0156H8.11953V24.0721C5.9661 24.0721 3.90086 23.2233 2.37816 21.7124C0.855448 20.2016 0 18.1523 0 16.0156H0Z" fill="#1D1F23"/>
<path d="M16.1299 0.0102539C17.1962 0.0102539 18.252 0.218642 19.2371 0.62352C20.2222 1.0284 21.1173 1.62184 21.8713 2.36995C22.6252 3.11807 23.2233 4.00621 23.6314 4.98367C24.0394 5.96114 24.2494 7.00877 24.2494 8.06677H16.1299V0.0102539Z" fill="#1D1F23"/>
<path d="M47.9294 15.7068C47.8752 16.4163 47.6625 17.1049 47.3067 17.7227C46.9509 18.3405 46.4611 18.872 45.8726 19.2785C44.4243 20.2962 42.68 20.815 40.9064 20.7555C39.7722 20.8118 38.639 20.6278 37.582 20.2157C36.5251 19.8036 35.5687 19.1729 34.7766 18.3654C33.9967 17.5379 33.3915 16.5639 32.9964 15.5009C32.6014 14.4379 32.4245 13.3072 32.4762 12.1753C32.4109 11.0182 32.5933 9.86036 33.0116 8.77823C33.4299 7.6961 34.0745 6.7142 34.903 5.8972C35.7314 5.0802 36.7249 4.44665 37.818 4.03829C38.9111 3.62993 40.079 3.45602 41.2447 3.52802C42.8897 3.45614 44.5179 3.88229 45.9132 4.74992C46.4089 5.04002 46.8211 5.45175 47.1102 5.94556C47.3994 6.43937 47.5556 6.99867 47.564 7.5697C47.5415 8.19479 47.4322 8.8138 47.2393 9.40927L46.9822 10.3895H50.4463L50.6493 9.90609C50.9514 9.16775 51.112 8.37994 51.1229 7.58313C51.1335 6.50331 50.8761 5.4375 50.3735 4.47973C49.8708 3.52196 49.1383 2.70168 48.2406 2.09127C46.1826 0.652305 43.7066 -0.0786673 41.1906 0.0100071C39.5412 -0.056638 37.8954 0.210139 36.3532 0.794131C34.8109 1.37812 33.4044 2.26714 32.2191 3.40717C31.0892 4.5519 30.2046 5.91177 29.6185 7.40485C29.0325 8.89792 28.7571 10.4933 28.8091 12.0948C28.7533 13.6896 29.0163 15.2796 29.583 16.773C30.1497 18.2664 31.0088 19.6336 32.1108 20.7958C33.2295 21.9327 34.5755 22.8246 36.0623 23.4143C37.5492 24.004 39.1439 24.2784 40.7441 24.2198C43.4042 24.3065 46.0132 23.4814 48.1324 21.8834C49.0994 21.1613 49.9002 20.2429 50.4812 19.1894C51.0622 18.1358 51.4102 16.9714 51.5017 15.7739V14.928H47.9835L47.9294 15.7068Z" fill="#1D1F23"/>
<path d="M53.2339 10.0671H59.5938V24.0317H63.1661V10.0671H69.5396V6.83105H53.2339V10.0671Z" fill="#1D1F23"/>
<path d="M80.9331 6.60292C78.897 6.569 76.9238 7.30326 75.4122 8.65733V6.83118H71.8398V29H75.4122V22.2057C75.8605 22.6114 76.3556 22.9629 76.8872 23.253C78.1257 23.9432 79.5264 24.2953 80.9467 24.2735C82.0697 24.303 83.1861 24.0929 84.2202 23.6574C85.2544 23.2219 86.1823 22.5712 86.9412 21.7492C88.5229 20.0283 89.3716 17.7665 89.3093 15.4382C89.3884 13.1145 88.5537 10.8514 86.9818 9.12729C86.2169 8.29832 85.2802 7.64348 84.2361 7.20773C83.192 6.77197 82.0652 6.56565 80.9331 6.60292ZM80.5813 9.97322C81.2638 9.9495 81.9433 10.0742 82.5721 10.3387C83.2009 10.6031 83.7638 11.0008 84.2213 11.504C84.714 12.032 85.0966 12.6513 85.3474 13.3265C85.5982 14.0016 85.7122 14.7193 85.6828 15.4382C85.7428 16.888 85.2223 18.3024 84.2349 19.3725C83.7577 19.8532 83.1889 20.2349 82.5617 20.4954C81.9345 20.756 81.2613 20.8902 80.5813 20.8902C79.9013 20.8902 79.2282 20.756 78.6009 20.4954C77.9737 20.2349 77.4049 19.8532 76.9278 19.3725C75.9403 18.3024 75.4198 16.888 75.4799 15.4382C75.4162 13.9839 75.937 12.564 76.9278 11.4905C77.3909 10.9916 77.957 10.5978 78.5876 10.336C79.2181 10.0741 79.8982 9.95036 80.5813 9.97322Z" fill="#1D1F23"/>
<path d="M95.1823 6.83105H91.5962V24.0317H95.1823V6.83105Z" fill="#1D1F23"/>
<path d="M97.4688 10.0671H103.829V24.0317H107.415V10.0671H113.774V6.83105H97.4688V10.0671Z" fill="#1D1F23"/>
<path d="M129.242 20.312L125.087 15.2096L128.673 10.5637C128.802 10.3845 128.972 10.2394 129.171 10.141C129.369 10.0427 129.588 9.99417 129.81 9.99971H130.852V6.72339H129.174C128.513 6.69851 127.858 6.84676 127.274 7.1532C126.689 7.45964 126.196 7.91347 125.845 8.46897L122.273 13.1283C122.165 13.2939 122.017 13.4291 121.841 13.5208C121.666 13.6126 121.47 13.6578 121.271 13.652H119.661V6.83081H116.075V24.018H119.661V16.8477H121.312C121.522 16.8477 121.729 16.8963 121.917 16.9895C122.105 17.0827 122.268 17.2181 122.394 17.3848L126.454 22.3933C126.81 22.931 127.3 23.3689 127.876 23.6651C128.451 23.9614 129.094 24.106 129.742 24.0852H131.258V20.8894H130.338C130.122 20.8869 129.91 20.8332 129.719 20.7328C129.528 20.6323 129.365 20.4881 129.242 20.312Z" fill="#1D1F23"/>
<path d="M141.325 6.60284C140.152 6.56714 138.984 6.77168 137.895 7.2037C136.805 7.63571 135.817 8.28594 134.992 9.11379C134.173 9.94964 133.532 10.9402 133.107 12.0266C132.682 13.113 132.48 14.2731 132.516 15.4381C132.481 16.6043 132.683 17.7654 133.111 18.8521C133.539 19.9388 134.183 20.9287 135.005 21.7625C136.709 23.3731 138.972 24.2715 141.325 24.2715C143.678 24.2715 145.941 23.3731 147.644 21.7625C148.482 20.9371 149.142 19.9502 149.582 18.8626C150.021 17.775 150.232 16.6097 150.202 15.4381C150.237 14.2687 150.034 13.1042 149.604 12.015C149.173 10.9257 148.525 9.93421 147.698 9.10036C146.865 8.2725 145.87 7.62355 144.773 7.19388C143.677 6.76422 142.503 6.56303 141.325 6.60284ZM141.325 20.8897C140.626 20.9174 139.929 20.795 139.282 20.5308C138.635 20.2666 138.053 19.8669 137.576 19.359C137.076 18.8378 136.687 18.2221 136.431 17.5485C136.175 16.875 136.059 16.1573 136.088 15.4381C136.055 14.7145 136.17 13.9918 136.426 13.3134C136.681 12.6349 137.073 12.0149 137.576 11.4905C138.056 10.9871 138.639 10.5913 139.285 10.3296C139.932 10.0679 140.627 9.94638 141.325 9.97315C142.025 9.94963 142.723 10.0739 143.371 10.3378C144.02 10.6017 144.604 10.9991 145.087 11.5039C145.585 12.0293 145.973 12.6476 146.228 13.323C146.484 13.9983 146.602 14.7173 146.575 15.4381C146.604 16.1573 146.488 16.875 146.232 17.5485C145.976 18.2221 145.587 18.8378 145.087 19.359C144.606 19.8658 144.022 20.2647 143.373 20.5287C142.724 20.7927 142.026 20.9158 141.325 20.8897Z" fill="#1D1F23"/>
<path d="M168.132 20.8225V6.83105H154.83V7.60985C154.884 10.7511 154.712 13.8921 154.316 17.0091C154.193 18.3559 153.727 19.6497 152.962 20.7688H150.378V28.9462H153.801V24.0183H167.577V28.9999H171V20.8225H168.132ZM164.546 10.0805V20.8225H156.86C157.726 18.6204 158.213 15.0756 158.213 10.0805H164.546Z" fill="#1D1F23"/>
<path d="M95.6128 2.22186L93.3833 0.00952148L91.1538 2.22186L93.3833 4.43419L95.6128 2.22186Z" fill="#1D1F23"/>
</svg>
